<svg width="100" height="100" viewBox="0 0 100 100" xmlns="http://www.w3.org/2000/svg" xmlns:xlink="http://www.w3.org/1999/xlink">
    <defs>
        <filter x="-7.9%" y="-11.4%" width="115.9%" height="122.8%" filterUnits="objectBoundingBox" id="ts219hqf6b">
            <feOffset dy="1" in="SourceAlpha" result="shadowOffsetOuter1"/>
            <feGaussianBlur stdDeviation="1" in="shadowOffsetOuter1" result="shadowBlurOuter1"/>
            <feColorMatrix values="0 0 0 0 0 0 0 0 0 0 0 0 0 0 0 0 0 0 0.1 0" in="shadowBlurOuter1" result="shadowMatrixOuter1"/>
            <feMerge>
                <feMergeNode in="shadowMatrixOuter1"/>
                <feMergeNode in="SourceGraphic"/>
            </feMerge>
        </filter>
        <filter x="-35%" y="-13.9%" width="170%" height="138.9%" filterUnits="objectBoundingBox" id="mbpbxsu1fd">
            <feOffset dy="1" in="SourceAlpha" result="shadowOffsetOuter1"/>
            <feGaussianBlur stdDeviation="1" in="shadowOffsetOuter1" result="shadowBlurOuter1"/>
            <feColorMatrix values="0 0 0 0 0 0 0 0 0 0 0 0 0 0 0 0 0 0 0.1 0" in="shadowBlurOuter1"/>
        </filter>
        <circle id="5hvf0ufuna" cx="50" cy="50" r="50"/>
        <path d="M22.043 30.024c3.787-.049 7.103.18 9.947.685l.04 17.314-5.017-2.991-4.99 3 .02-18.008z" id="h7nmslm56e"/>
    </defs>
    <g fill="none" fill-rule="evenodd">
        <mask id="zcho8xrwec" fill="#fff">
            <use xlink:href="#5hvf0ufuna"/>
        </mask>
        <use fill="#EEE" xlink:href="#5hvf0ufuna"/>
        <g filter="url(#ts219hqf6b)" mask="url(#zcho8xrwec)">
            <g transform="translate(9 30)">
                <rect fill="#D8D8D8" y="10" width="82" height="47" rx="4"/>
                <g transform="translate(4)">
                    <rect fill="#EEE" y="6.509" width="75" height="46.491" rx="2"/>
                    <path d="M18.244.002 18.75 0c.849 0 1.673.013 2.47.038l.946.035c.466.02.923.046 1.37.075l.883.064c.145.011.289.023.432.036l.843.08c6.232.64 10.279 2.174 11.716 4.188l.09.133V51.14c-.925-1.423-3.131-2.616-6.474-3.437l-.64-.15-.666-.14c-.453-.09-.924-.175-1.411-.253l-.745-.113a46.857 46.857 0 0 0-1.164-.15l-.808-.088a54.425 54.425 0 0 0-.413-.04l-.846-.073a60.396 60.396 0 0 0-.432-.032l-.882-.056a74.01 74.01 0 0 0-3.77-.115l-.499-.002c-.849 0-1.672.013-2.468.038l-.944.035c-.62.028-1.224.063-1.81.106l-.867.07-.424.038-.827.086a42.242 42.242 0 0 0-3.4.51l-.682.14-.655.15c-3.315.797-5.541 1.956-6.577 3.342L0 51.14V4.65l.096-.136C1.132 3.13 3.358 1.97 6.673 1.174l.655-.15.682-.14a42.242 42.242 0 0 1 3.4-.512l.827-.085c.14-.014.282-.026.424-.039l.867-.07c.586-.042 1.19-.077 1.81-.105l.944-.035c.637-.02 1.291-.032 1.962-.036z" fill="#FFF"/>
                    <path d="M55.744.002 56.25 0c.849 0 1.673.013 2.47.038l.946.035c.466.02.923.046 1.37.075l.883.064c.145.011.289.023.432.036l.843.08c6.232.64 10.279 2.174 11.716 4.188l.09.133V51.14c-.925-1.423-3.131-2.616-6.474-3.437l-.64-.15-.666-.14c-.453-.09-.924-.175-1.411-.253l-.745-.113a46.857 46.857 0 0 0-1.164-.15l-.808-.088a54.425 54.425 0 0 0-.413-.04l-.846-.073a60.396 60.396 0 0 0-.432-.032l-.882-.056a74.01 74.01 0 0 0-3.77-.115l-.499-.002c-.849 0-1.672.013-2.468.038l-.944.035c-.62.028-1.224.063-1.81.106l-.867.07-.424.038-.827.086a42.242 42.242 0 0 0-3.4.51l-.682.14-.655.15c-3.315.797-5.541 1.956-6.577 3.342l-.096.134V4.65l.096-.136c1.036-1.385 3.262-2.544 6.577-3.34l.655-.15.682-.14a42.242 42.242 0 0 1 3.4-.512l.827-.085c.14-.014.282-.026.424-.039l.867-.07c.586-.042 1.19-.077 1.81-.105l.944-.035c.637-.02 1.291-.032 1.962-.036z" fill="#FBFBFB"/>
                </g>
            </g>
        </g>
        <circle fill="#FFF" mask="url(#zcho8xrwec)" cx="68.5" cy="23.5" r="1.5"/>
        <circle stroke="#FFF" stroke-width="2" mask="url(#zcho8xrwec)" cx="64.5" cy="14.5" r="1.5"/>
        <path stroke="#FFF" stroke-width="2" stroke-linecap="round" stroke-linejoin="round" mask="url(#zcho8xrwec)" d="M77.5 25v-6M74.5 22h6"/>
        <g mask="url(#zcho8xrwec)" transform="matrix(-1 0 0 1 54.053 0)">
            <use fill="#000" filter="url(#mbpbxsu1fd)" xlink:href="#h7nmslm56e"/>
            <use fill="#FCF5C9" xlink:href="#h7nmslm56e"/>
        </g>
    </g>
</svg>
