<?xml version="1.0" encoding="UTF-8"?>
<svg width="24px" height="24px" viewBox="0 0 24 24" version="1.1" xmlns="http://www.w3.org/2000/svg" xmlns:xlink="http://www.w3.org/1999/xlink">
    <title>calendar</title>
    <defs>
        <path d="M9.00000003,11 L7.00000003,11 L7.00000003,13 L9.00000003,13 L9.00000003,11 L9.00000003,11 Z M13,11 L11,11 L11,13 L13,13 L13,11 L13,11 Z M17.0000001,11 L15.0000001,11 L15.0000001,13 L17.0000001,13 L17.0000001,11 L17.0000001,11 Z M19,4.00000001 L18,4.00000001 L18,2.00000001 L16,2.00000001 L16,4.00000001 L8.00000001,4.00000001 L8.00000001,2.00000001 L6.00000001,2.00000001 L6.00000001,4.00000001 L5.00000001,4.00000001 C3.89000002,4.00000001 3.01000001,4.90000002 3.01000001,6.00000001 L3.00000001,20 C3.00000001,21.1000001 3.89000002,22 5.00000001,22 L19,22 C20.1000001,22 21,21.1000001 21,20 L21,6.00000001 C21,4.90000002 20.1000001,4.00000001 19,4.00000001 L19,4.00000001 Z M19,20 L5.00000002,20 L5.00000002,9.00000004 L19,9.00000004 L19,20 L19,20 Z" id="path-1"></path>
    </defs>
    <g id="Page-1" stroke="none" stroke-width="1" fill="none" fill-rule="evenodd">
        <g id="calendar" transform="translate(-0.000000, -0.000000)">
            <polygon id="Base" fill-rule="nonzero" points="0 0 24.0000001 0 24.0000001 24.0000001 0 24.0000001"></polygon>
            <mask id="mask-2" fill="white">
                <use xlink:href="#path-1"></use>
            </mask>
            <use id="Icon" fill="#444444" fill-rule="nonzero" xlink:href="#path-1"></use>
        </g>
    </g>
</svg>