<svg width="24" height="24" viewBox="0 0 24 24" xmlns="http://www.w3.org/2000/svg">
    <g fill="none" fill-rule="evenodd">
        <path d="M0 0h24v24H0z"/>
        <path d="M12 2c5.523 0 10 4.477 10 10s-4.477 10-10 10S2 17.523 2 12 6.477 2 12 2zm0 2a8 8 0 1 0 0 16 8 8 0 0 0 0-16z" fill="#007BD8" fill-rule="nonzero"/>
        <path d="M10.355 12.01V9.08c0-.192.04-.36.201-.482.203-.15.41-.138.666.046.79.573 1.58 1.146 2.368 1.72l1.625 1.183c.395.288.395.645-.002.933-1.325.964-2.651 1.928-3.978 2.891-.186.135-.379.21-.598.103-.229-.112-.283-.315-.281-.555.002-.969 0-1.939 0-2.909z" fill="#007BD8" fill-rule="nonzero"/>
    </g>
</svg>
