<svg width="24" height="24" viewBox="0 0 24 24" xmlns="http://www.w3.org/2000/svg">
    <g fill="none" fill-rule="evenodd">
        <path d="M0 0h24v24H0z"/>
        <path d="M19 1.7H5a1.8 1.8 0 0 0-1.8 1.8v17A1.8 1.8 0 0 0 5 22.3h14a1.8 1.8 0 0 0 1.8-1.8v-17A1.8 1.8 0 0 0 19 1.7zM5 3.3h14c.11 0 .2.09.2.2v17a.2.2 0 0 1-.2.2H5a.2.2 0 0 1-.2-.2v-17c0-.11.09-.2.2-.2z" fill="#007BD8" fill-rule="nonzero"/>
        <path d="M10 10.2a.8.8 0 0 1 .1 1.594l-.1.006H7a.8.8 0 0 1-.1-1.594L7 10.2h3zM13 13.2a.8.8 0 0 1 .1 1.594l-.1.006H7a.8.8 0 0 1-.1-1.594L7 13.2h6zM12 16.2a.8.8 0 0 1 .1 1.594l-.1.006H7a.8.8 0 0 1-.1-1.594L7 16.2h5z" fill="#007BD8" fill-rule="nonzero"/>
    </g>
</svg>
