<svg width="24" height="24" viewBox="0 0 24 24" xmlns="http://www.w3.org/2000/svg">
    <g fill="none" fill-rule="evenodd">
        <path d="M0 0h24v24H0z"/>
        <path d="M12 2c5.523 0 10 4.477 10 10s-4.477 10-10 10S2 17.523 2 12 6.477 2 12 2zm0 2a8 8 0 1 0 0 16 8 8 0 0 0 0-16z" fill="#007BD8" fill-rule="nonzero"/>
        <g fill="#007BD8" fill-rule="nonzero">
            <path d="M12.056 17.182c2.223 0 3.536-1.339 3.536-2.912 0-1.391-.767-2.132-1.937-2.613l-1.261-.533c-.819-.325-1.508-.572-1.508-1.261 0-.637.546-1.014 1.391-1.014.793 0 1.43.286 2.041.793l.975-1.209c-.78-.793-1.898-1.235-3.016-1.235-1.95 0-3.328 1.209-3.328 2.782 0 1.404.975 2.184 1.95 2.587l1.287.546c.858.364 1.443.585 1.443 1.3 0 .676-.533 1.105-1.534 1.105-.845 0-1.755-.429-2.444-1.066l-1.105 1.326a5.126 5.126 0 0 0 3.51 1.404z"/>
        </g>
    </g>
</svg>
