<?xml version="1.0" encoding="UTF-8"?>
<svg width="34px" height="170px" viewBox="0 0 34 170" version="1.1" xmlns="http://www.w3.org/2000/svg" xmlns:xlink="http://www.w3.org/1999/xlink">
    <title>Group 2</title>
    <defs>
        <path d="M20.5,19 L19.71,19 L19.43,18.73 C20.41,17.59 21,16.11 21,14.5 C21,10.91 18.09,7.99999996 14.5,7.99999996 C10.91,7.99999996 7.99999996,10.91 7.99999996,14.5 C7.99999996,18.09 10.91,21 14.5,21 C16.11,21 17.59,20.41 18.73,19.43 L19,19.71 L19,20.5 L24,25.49 L25.49,24 L20.5,19 L20.5,19 Z M14.5,19 C12.01,19 9.99999997,16.99 9.99999997,14.5 C9.99999997,12.01 12.01,9.99999997 14.5,9.99999997 C16.99,9.99999997 19,12.01 19,14.5 C19,16.99 16.99,19 14.5,19 L14.5,19 Z" id="path-1"></path>
        <path d="M23,6.99999996 C24.1,6.99999996 25,7.89999996 25,8.99999996 L25,8.99999996 L25,25 C25,26.1 24.1,27 23,27 L23,27 L11,27 C9.89999997,27 8.99999997,26.1 8.99999997,25 L8.99999997,25 L8.99999997,8.99999996 C8.99999997,7.89999996 9.89999997,6.99999996 11,6.99999996 L11,6.99999996 Z M21.5,9 L17,8.99999997 L17,17 L14.5,15.5 L12,17 L12.0005271,9.09174329 C11.4191372,9.31247104 11,9.90656 11,10.6 L11,23.4 C11,24.28 11.675,25 12.5,25 L21.5,25 C22.325,25 23,24.28 23,23.4 L23,10.6 C23,9.72 22.325,9 21.5,9 Z" id="path-3"></path>
        <path d="M16.99,143 C11.47,143 7,147.48 7,153 C7,158.52 11.47,163 16.99,163 C22.5200001,163 27,158.52 27,153 C27,147.48 22.5200001,143 16.99,143 L16.99,143 Z M23.9200001,149 L20.9700001,149 C20.6500001,147.75 20.1900001,146.55 19.5900001,145.44 C21.4300001,146.07 22.9600001,147.35 23.9200001,149 L23.9200001,149 Z M17,145.04 C17.83,146.24 18.48,147.57 18.91,149 L15.09,149 C15.52,147.57 16.17,146.24 17,145.04 L17,145.04 Z M9.26000001,155 C9.10000001,154.36 9.00000001,153.69 9.00000001,153 C9.00000001,152.31 9.10000001,151.64 9.26000001,151 L12.64,151 C12.56,151.66 12.5,152.32 12.5,153 C12.5,153.68 12.56,154.34 12.64,155 L9.26000001,155 L9.26000001,155 Z M10.08,157 L13.03,157 C13.35,158.25 13.81,159.45 14.41,160.56 C12.57,159.93 11.04,158.66 10.08,157 L10.08,157 Z M13.03,149 L10.08,149 C11.04,147.34 12.57,146.07 14.41,145.44 C13.81,146.55 13.35,147.75 13.03,149 L13.03,149 Z M17,160.96 C16.17,159.76 15.52,158.43 15.09,157 L18.91,157 C18.48,158.43 17.83,159.76 17,160.96 L17,160.96 Z M19.3400001,155 L14.66,155 C14.57,154.34 14.5,153.68 14.5,153 C14.5,152.32 14.57,151.65 14.66,151 L19.3400001,151 C19.4300001,151.65 19.5,152.32 19.5,153 C19.5,153.68 19.4300001,154.34 19.3400001,155 L19.3400001,155 Z M19.5900001,160.56 C20.1900001,159.45 20.6500001,158.25 20.9700001,157 L23.9200001,157 C22.9600001,158.65 21.4300001,159.93 19.5900001,160.56 L19.5900001,160.56 Z M21.3600001,155 C21.4400001,154.34 21.5000001,153.68 21.5000001,153 C21.5000001,152.32 21.4400001,151.66 21.3600001,151 L24.7400001,151 C24.9000001,151.64 25.0000001,152.31 25.0000001,153 C25.0000001,153.69 24.9000001,154.36 24.7400001,155 L21.3600001,155 L21.3600001,155 Z" id="path-5"></path>
    </defs>
    <g id="Page-1" stroke="none" stroke-width="1" fill="none" fill-rule="evenodd">
        <g id="Group-2">
            <g id="Group-7">
                <circle id="Oval" fill="#F5DF4D" cx="17" cy="17" r="17"></circle>
                <polygon id="Base" fill-rule="nonzero" points="4.99999995 4.99999995 29.0000001 4.99999995 29.0000001 29.0000001 4.99999995 29.0000001"></polygon>
                <mask id="mask-2" fill="white">
                    <use xlink:href="#path-1"></use>
                </mask>
                <use id="Icon" fill="#444444" fill-rule="nonzero" xlink:href="#path-1"></use>
            </g>
            <g id="Group-8" transform="translate(0.000000, 34.000000)">
                <circle id="Oval-Copy" fill="#F5DF4D" cx="17" cy="17" r="17"></circle>
                <polygon id="Base" points="5 5 29.0000001 5 29.0000001 29.0000001 5 29.0000001"></polygon>
                <g id="open-book" transform="translate(7.000000, 10.000000)" fill="#444444" fill-rule="nonzero">
                    <path d="M19.5549105,1.72129496 C15.7845354,-0.462107363 13.9015991,-0.576937814 9.99997446,1.42597316 C6.09829127,-0.576937814 4.21535497,-0.462107363 0.445038419,1.72129496 C0.166953624,1.88194595 9.4950423e-07,2.15235314 9.4950423e-07,2.44183954 L9.4950423e-07,13.1284863 C-0.000506625679,13.448266 0.202519884,13.7422178 0.528006829,13.8931769 C0.853317993,14.0439331 1.24812106,14.0272896 1.55497527,13.8498935 C4.85015705,11.9403996 6.14973637,11.9403996 9.44491815,13.8498935 C9.4579259,13.8577079 9.47292584,13.8594331 9.4859336,13.8663341 C9.49894136,13.8732858 9.51294521,13.8853626 9.52794515,13.8931769 C9.56286688,13.9061163 9.59860892,13.9173811 9.6349369,13.9269715 C9.67126487,13.9412809 9.70870612,13.9534084 9.74690909,13.9633539 C9.80216277,13.9744158 9.85835395,13.981672 9.91489668,13.985021 C9.94390047,13.985021 9.97091208,13.9954232 9.99991587,13.9954232 C10.0079432,13.9954232 10.0159119,13.9954232 10.0249353,13.9954232 C10.0585094,13.993292 10.0918491,13.9895371 10.1249544,13.9841584 C10.1755792,13.9797438 10.2257353,13.9719294 10.2749538,13.960766 C10.3089966,13.951125 10.3423949,13.9398601 10.3749729,13.9269715 C10.4059689,13.9157066 10.438957,13.9096683 10.4689569,13.8958156 C10.4829608,13.8888638 10.4939763,13.8785123 10.5079802,13.870698 C10.521984,13.8628836 10.5379801,13.8602957 10.5519839,13.8525321 C13.8471657,11.9430382 15.146745,11.9430382 18.4419268,13.8525321 C18.9002452,14.1194381 19.5215708,14.0140458 19.8297727,13.6171373 C19.941862,13.4727747 20.0011587,13.3025333 19.9999828,13.1285371 L19.9999828,2.44183954 C19.9999828,2.15235314 19.8329367,1.88194595 19.5549105,1.72129496 Z M8.99995904,11.6484776 C5.83210095,10.362204 5.16785105,10.362204 1.99999297,11.6484776 L1.99999297,2.91983461 C5.08189438,1.3341291 5.91805763,1.3341291 8.99995904,2.91983461 L8.99995904,11.6484776 Z M17.9998974,11.6484776 C14.8320393,10.362204 14.1677894,10.362204 10.9999313,11.6484776 L10.9999313,2.91983461 C14.0817741,1.3341291 14.9179959,1.3341291 17.9998974,2.91983461 L17.9998974,11.6484776 Z" id="Shape"></path>
                </g>
            </g>
            <g id="Group-10" transform="translate(0.000000, 68.000000)">
                <circle id="Oval-Copy" fill="#F5DF4D" cx="17" cy="17" r="17"></circle>
                <polygon id="Base" points="4.99999995 4.99999995 29.0000001 4.99999995 29.0000001 29 4.99999995 29"></polygon>
                <mask id="mask-4" fill="white">
                    <use xlink:href="#path-3"></use>
                </mask>
                <use id="Icon" fill="#444444" fill-rule="nonzero" xlink:href="#path-3"></use>
            </g>
            <g id="Group-11" transform="translate(0.000000, 102.000000)">
                <circle id="Oval-Copy" fill="#F5DF4D" cx="17" cy="17" r="17"></circle>
                <polygon id="Base" points="5 5 29.0000001 5 29.0000001 29.0000001 5 29.0000001"></polygon>
                <circle id="Oval" stroke="#444444" stroke-width="2" cx="17" cy="17" r="9"></circle>
                <path d="M15.0015669,22.8144531 L15.0015669,19.8134766 L17.8955078,19.8134766 C19.2138672,19.7900391 20.2158203,19.3681641 20.9013672,18.5478516 C21.5693359,17.7685547 21.9033203,16.9042969 21.9033203,15.9550781 C21.9033203,15.2519531 21.7714844,14.6425781 21.5078125,14.1269531 C21.2558594,13.59375 20.9277344,13.1835937 20.5234375,12.8964844 C20.0429687,12.515625 19.5683594,12.2636719 19.0996094,12.140625 C18.6308594,12.046875 18.1445312,12 17.640625,12 L13,12 L13,22.8144531 L15.0015669,22.8144531 Z M17.8164062,17.9765625 L15.0028048,17.9765625 L15.0028048,13.8369141 L17.7460938,13.8369141 C18.2734375,13.8251953 18.7363281,13.9453125 19.1347656,14.1972656 C19.3984375,14.3496094 19.6035156,14.5576172 19.75,14.8212891 C19.890625,15.1142578 19.9609375,15.4746094 19.9609375,15.9023437 C19.9609375,16.4179687 19.7880859,16.8867187 19.4423828,17.3085937 C19.0791016,17.7421875 18.5371094,17.9648437 17.8164062,17.9765625 Z" id="P" fill="#444444" fill-rule="nonzero"></path>
            </g>
            <circle id="Oval-Copy" fill="#F5DF4D" cx="17" cy="153" r="17"></circle>
            <polygon id="Base" points="5 141 29.0000001 141 29.0000001 165 5 165"></polygon>
            <mask id="mask-6" fill="white">
                <use xlink:href="#path-5"></use>
            </mask>
            <use id="Icon" fill="#444444" fill-rule="nonzero" xlink:href="#path-5"></use>
        </g>
    </g>
</svg>