<?xml version="1.0" encoding="UTF-8"?>
<svg width="130px" height="44px" viewBox="0 0 130 44" version="1.1" xmlns="http://www.w3.org/2000/svg" xmlns:xlink="http://www.w3.org/1999/xlink">
    <title>logo-m</title>
    <g id="Page-1" stroke="none" stroke-width="1" fill="none" fill-rule="evenodd">
        <g id="logo-m" transform="translate(0.210000, 0.432000)" fill="#444444" fill-rule="nonzero">
            <path d="M19.624,18.568 L19.624,16.94 L10.626,16.94 L10.626,4.312 L18.524,4.312 L18.524,2.64 L1.144,2.64 L1.144,4.312 L8.844,4.312 L8.844,16.94 L0,16.94 L0,18.568 L19.624,18.568 Z M24.86,19.25 L24.86,17.49 L29.282,17.49 L29.282,8.074 L24.904,8.074 C25.454,6.446 25.916,4.664 26.268,2.86 L29.678,2.86 L29.678,1.364 L21.978,1.364 L21.978,2.86 L24.728,2.86 C24.134,6.204 23.122,9.284 21.582,11.352 C21.846,11.792 22.22,12.716 22.33,13.09 C22.748,12.562 23.122,11.968 23.474,11.33 L23.474,19.25 L24.86,19.25 Z M31.086,20.35 C33.572,17.776 34.144,14.124 34.21,10.78 L37.796,10.78 L37.796,20.24 L39.358,20.24 L39.358,10.78 L41.822,10.78 L41.822,9.218 L39.358,9.218 L39.358,2.904 L41.404,2.904 L41.404,1.364 L30.866,1.364 L30.866,2.904 L32.67,2.904 L32.67,9.218 L30.25,9.218 L30.25,10.78 L32.648,10.78 C32.582,13.728 32.098,17.05 29.854,19.404 C30.228,19.602 30.822,20.064 31.086,20.35 Z M37.796,9.218 L34.232,9.218 L34.232,2.904 L37.796,2.904 L37.796,9.218 Z M27.83,16.016 L24.86,16.016 L24.86,9.526 L27.83,9.526 L27.83,16.016 Z M52.778,6.732 L52.778,4.334 L62.018,4.334 L62.018,6.732 L63.58,6.732 L63.58,2.904 L58.102,2.904 L58.564,2.728 C58.3,2.002 57.706,0.858 57.134,0 L55.66,0.484 C56.122,1.21 56.606,2.156 56.848,2.904 L51.26,2.904 L51.26,6.732 L52.778,6.732 Z M46.068,20.218 L46.068,2.552 L48.972,2.552 C48.51,4.026 47.85,5.918 47.234,7.502 C48.796,9.24 49.192,10.736 49.192,11.924 C49.192,12.606 49.082,13.222 48.73,13.464 C48.554,13.596 48.312,13.64 48.048,13.662 C47.696,13.706 47.278,13.684 46.772,13.64 C47.036,14.058 47.168,14.674 47.19,15.092 C47.674,15.114 48.224,15.114 48.664,15.048 C49.104,15.004 49.5,14.872 49.808,14.63 C50.402,14.212 50.666,13.244 50.666,12.078 C50.666,10.714 50.292,9.13 48.686,7.326 C49.434,5.566 50.226,3.432 50.886,1.628 L49.83,0.99 L49.566,1.056 L44.594,1.056 L44.594,20.218 L46.068,20.218 Z M61.82,8.228 L61.82,6.776 L53.02,6.776 L53.02,8.228 L61.82,8.228 Z M50.402,20.24 C54.56,18.788 55.616,16.214 55.99,12.188 L58.3,12.188 L58.3,17.952 C58.3,19.514 58.652,19.976 60.192,19.976 L62.128,19.976 C63.448,19.976 63.866,19.25 63.998,16.39 C63.558,16.324 62.942,16.06 62.59,15.796 C62.546,18.194 62.458,18.568 61.974,18.568 L60.412,18.568 C59.928,18.568 59.84,18.48 59.84,17.93 L59.84,12.188 L63.734,12.188 L63.734,10.692 L51.348,10.692 L51.348,12.188 L54.406,12.188 C54.12,15.598 53.24,17.754 49.456,18.942 C49.786,19.25 50.226,19.844 50.402,20.24 Z M68.2,20.218 L68.2,19.36 L83.38,19.36 L83.38,20.218 L84.942,20.218 L84.942,1.056 L66.682,1.056 L66.682,20.218 L68.2,20.218 Z M83.38,17.952 L68.2,17.952 L68.2,2.442 L83.38,2.442 L83.38,17.952 Z M82.39,8.91 L82.39,7.876 L76.406,7.876 L76.406,6.886 L80.124,6.886 L80.124,3.476 L71.434,3.476 L71.434,6.886 L75.02,6.886 L75.02,7.876 L69.234,7.876 L69.234,8.91 L82.39,8.91 Z M78.716,5.896 L72.798,5.896 L72.798,4.444 L78.716,4.444 L78.716,5.896 Z M80.828,16.786 L80.828,9.856 L70.73,9.856 L70.73,16.786 L80.828,16.786 Z M79.486,15.752 L72.006,15.752 L72.006,10.868 L79.486,10.868 L79.486,15.752 Z M78.078,14.806 L78.078,11.814 L73.414,11.814 L73.414,14.806 L78.078,14.806 Z M77.022,13.948 L74.426,13.948 L74.426,12.672 L77.022,12.672 L77.022,13.948 Z M107.514,12.474 L107.514,11.264 L98.516,11.264 L98.516,9.966 L106.018,9.966 L106.018,8.844 L98.516,8.844 L98.516,7.634 L104.808,7.634 L104.808,5.236 L107.492,5.236 L107.492,4.004 L104.808,4.004 L104.808,1.672 L98.516,1.672 L98.516,0.132 L96.91,0.132 L96.91,1.672 L90.42,1.672 L90.42,2.772 L96.91,2.772 L96.91,4.004 L88.11,4.004 L88.11,5.236 L96.91,5.236 L96.91,6.534 L90.178,6.534 L90.178,7.634 L96.91,7.634 L96.91,8.844 L89.562,8.844 L89.562,9.966 L96.91,9.966 L96.91,11.264 L88.066,11.264 L88.066,12.474 L107.514,12.474 Z M103.202,4.004 L98.516,4.004 L98.516,2.772 L103.202,2.772 L103.202,4.004 Z M103.202,6.534 L98.516,6.534 L98.516,5.236 L103.202,5.236 L103.202,6.534 Z M92.466,20.306 L92.466,19.58 L103.29,19.58 L103.29,20.262 L104.918,20.262 L104.918,13.508 L90.882,13.508 L90.882,20.306 L92.466,20.306 Z M103.29,15.972 L92.466,15.972 L92.466,14.63 L103.29,14.63 L103.29,15.972 Z M103.29,18.436 L92.466,18.436 L92.466,17.028 L103.29,17.028 L103.29,18.436 Z M110.308,6.094 C111.716,5.148 113.124,3.784 114.246,2.31 C115.39,3.036 116.71,3.938 117.392,4.532 L118.14,3.278 C117.436,2.75 116.116,1.892 115.016,1.21 C115.17,0.968 115.324,0.726 115.456,0.462 L114.114,0 C113.124,1.87 111.298,3.586 109.582,4.686 C109.824,4.994 110.198,5.786 110.308,6.094 Z M119.592,6.27 L119.592,4.048 L128.084,4.048 L128.084,6.27 L129.492,6.27 L129.492,2.706 L124.388,2.706 L125.026,2.376 C124.806,1.76 124.322,0.792 123.904,0.044 L122.518,0.638 C122.826,1.254 123.222,2.068 123.486,2.706 L118.25,2.706 L118.25,6.27 L119.592,6.27 Z M116.27,5.456 L116.27,4.268 L112.552,4.268 L112.552,5.456 L116.27,5.456 Z M121.11,20.218 L121.11,19.25 L127.182,19.25 L127.182,20.108 L128.634,20.108 L128.634,13.354 L121.11,13.354 L121.11,11.528 L127.666,11.528 L127.666,6.028 L119.658,6.028 L119.658,20.218 L121.11,20.218 Z M110.792,20.218 C111.188,19.932 111.782,19.602 116.094,17.842 C116.424,18.502 116.688,19.096 116.864,19.58 L118.074,18.964 C117.634,17.886 116.6,15.972 115.808,14.586 L114.664,15.048 C114.95,15.576 115.258,16.126 115.522,16.72 L112.464,17.908 L112.464,14.146 L117.304,14.146 L117.304,6.776 L111.012,6.776 L111.012,17.6 C111.012,18.392 110.55,18.7 110.22,18.832 C110.462,19.162 110.704,19.866 110.792,20.218 Z M126.258,10.164 L121.11,10.164 L121.11,7.37 L126.258,7.37 L126.258,10.164 Z M115.852,9.768 L112.464,9.768 L112.464,8.03 L115.852,8.03 L115.852,9.768 Z M115.852,12.892 L112.464,12.892 L112.464,11 L115.852,11 L115.852,12.892 Z M127.182,17.842 L121.11,17.842 L121.11,14.762 L127.182,14.762 L127.182,17.842 Z" id="工研院圖書館"></path>
            <path d="M30.766,39.568 L30.766,38.84 L29.66,38.574 L29.66,30.58 L30.766,30.3 L30.766,29.572 L27.308,29.572 L27.308,30.3 L28.414,30.58 L28.414,38.574 L27.308,38.84 L27.308,39.568 L30.766,39.568 Z M35.966,39.568 L35.966,30.678 L38.85,30.678 L38.85,29.572 L31.808,29.572 L31.808,30.678 L34.72,30.678 L34.72,39.568 L35.966,39.568 Z M41.894,39.568 L41.894,35.438 L43.7,35.438 L45.968,39.568 L47.424,39.568 L44.82,35.088 C45.1373333,34.976 45.4383333,34.8126667 45.723,34.598 C46.0076667,34.3833333 46.241,34.0986667 46.423,33.744 C46.605,33.3893333 46.696,32.946 46.696,32.414 C46.696,31.462 46.416,30.7503333 45.856,30.279 C45.296,29.8076667 44.428,29.572 43.252,29.572 L43.252,29.572 L40.648,29.572 L40.648,39.568 L41.894,39.568 Z M43.238,34.374 L41.894,34.374 L41.894,30.664 L43.182,30.664 C43.938,30.664 44.498,30.8016667 44.862,31.077 C45.226,31.3523333 45.408,31.8166667 45.408,32.47 C45.408,33.0953333 45.2353333,33.569 44.89,33.891 C44.5446667,34.213 43.994,34.374 43.238,34.374 L43.238,34.374 Z M51.952,39.568 L51.952,38.84 L50.846,38.574 L50.846,30.58 L51.952,30.3 L51.952,29.572 L48.494,29.572 L48.494,30.3 L49.6,30.58 L49.6,38.574 L48.494,38.84 L48.494,39.568 L51.952,39.568 Z M63.248,39.568 L63.248,38.448 L59.16,38.448 L59.16,29.572 L57.914,29.572 L57.914,39.568 L63.248,39.568 Z M65.69,30.818 C65.8766667,30.818 66.04,30.755 66.18,30.629 C66.32,30.503 66.39,30.3046667 66.39,30.034 C66.39,29.7633333 66.32,29.565 66.18,29.439 C66.04,29.313 65.8766667,29.25 65.69,29.25 C65.494,29.25 65.326,29.313 65.186,29.439 C65.046,29.565 64.976,29.7633333 64.976,30.034 C64.976,30.3046667 65.046,30.503 65.186,30.629 C65.326,30.755 65.494,30.818 65.69,30.818 Z M66.292,39.568 L66.292,32.064 L65.074,32.064 L65.074,39.568 L66.292,39.568 Z M72.262,39.708 C73.13,39.708 73.83,39.3813333 74.362,38.728 C74.894,38.0746667 75.16,37.104 75.16,35.816 C75.16,34.528 74.8963333,33.5596667 74.369,32.911 C73.8416667,32.2623333 73.1393333,31.938 72.262,31.938 C71.7113333,31.938 71.261,32.0453333 70.911,32.26 C70.561,32.4746667 70.288,32.7406667 70.092,33.058 L70.092,33.058 L70.022,33.058 C70.0313333,32.8993333 70.0453333,32.6823333 70.064,32.407 C70.0826667,32.1316667 70.092,31.8353333 70.092,31.518 L70.092,31.518 L70.092,28.928 L68.874,28.928 L68.874,39.568 L69.756,39.568 L69.994,38.616 L70.092,38.616 C70.288,38.9146667 70.561,39.1713333 70.911,39.386 C71.261,39.6006667 71.7113333,39.708 72.262,39.708 Z M72.066,38.686 C71.3006667,38.686 70.7803333,38.441 70.505,37.951 C70.2296667,37.461 70.092,36.754 70.092,35.83 L70.092,35.83 L70.092,35.774 C70.092,34.8126667 70.232,34.1033333 70.512,33.646 C70.792,33.1886667 71.3006667,32.96 72.038,32.96 C73.2793333,32.96 73.9,33.9073333 73.9,35.802 C73.9,36.7353333 73.746,37.4493333 73.438,37.944 C73.13,38.4386667 72.6726667,38.686 72.066,38.686 Z M78.568,39.568 L78.568,35.564 C78.568,35.06 78.6636667,34.619 78.855,34.241 C79.0463333,33.863 79.2983333,33.569 79.611,33.359 C79.9236667,33.149 80.2573333,33.044 80.612,33.044 C80.7333333,33.044 80.8616667,33.0533333 80.997,33.072 C81.1323333,33.0906667 81.256,33.114 81.368,33.142 L81.368,33.142 L81.508,32.008 C81.396,31.98 81.2653333,31.959 81.116,31.945 C80.9666667,31.931 80.8266667,31.924 80.696,31.924 C80.2106667,31.924 79.786,32.0733333 79.422,32.372 C79.058,32.6706667 78.764,33.0253333 78.54,33.436 L78.54,33.436 L78.484,33.436 L78.344,32.064 L77.35,32.064 L77.35,39.568 L78.568,39.568 Z M84.65,39.708 C85.2473333,39.708 85.714,39.61 86.05,39.414 C86.386,39.218 86.708,38.9146667 87.016,38.504 L87.016,38.504 L87.072,38.504 L87.31,39.568 L88.192,39.568 L88.192,34.458 C88.192,33.5806667 87.9796667,32.9413333 87.555,32.54 C87.1303333,32.1386667 86.4886667,31.938 85.63,31.938 C85.1633333,31.938 84.72,32.001 84.3,32.127 C83.88,32.253 83.5113333,32.4046667 83.194,32.582 L83.194,32.582 L83.572,33.506 C83.8613333,33.3566667 84.174,33.2236667 84.51,33.107 C84.846,32.9903333 85.196,32.932 85.56,32.932 C86.0173333,32.932 86.3696667,33.0533333 86.617,33.296 C86.8643333,33.5386667 86.988,33.9726667 86.988,34.598 L86.988,34.598 L86.988,35.046 L85.798,35.088 C84.65,35.1253333 83.8006667,35.347 83.25,35.753 C82.6993333,36.159 82.424,36.7353333 82.424,37.482 C82.424,38.2473333 82.6363333,38.8096667 83.061,39.169 C83.4856667,39.5283333 84.0153333,39.708 84.65,39.708 Z M84.944,38.714 C84.5706667,38.714 84.2673333,38.616 84.034,38.42 C83.8006667,38.224 83.684,37.916 83.684,37.496 C83.684,37.02 83.8496667,36.6513333 84.181,36.39 C84.5123333,36.1286667 85.1073333,35.9793333 85.966,35.942 L85.966,35.942 L86.988,35.9 L86.988,36.572 C86.988,37.3 86.792,37.839 86.4,38.189 C86.008,38.539 85.5226667,38.714 84.944,38.714 Z M91.95,39.568 L91.95,35.564 C91.95,35.06 92.0456667,34.619 92.237,34.241 C92.4283333,33.863 92.6803333,33.569 92.993,33.359 C93.3056667,33.149 93.6393333,33.044 93.994,33.044 C94.1153333,33.044 94.2436667,33.0533333 94.379,33.072 C94.5143333,33.0906667 94.638,33.114 94.75,33.142 L94.75,33.142 L94.89,32.008 C94.778,31.98 94.6473333,31.959 94.498,31.945 C94.3486667,31.931 94.2086667,31.924 94.078,31.924 C93.5926667,31.924 93.168,32.0733333 92.804,32.372 C92.44,32.6706667 92.146,33.0253333 91.922,33.436 L91.922,33.436 L91.866,33.436 L91.726,32.064 L90.732,32.064 L90.732,39.568 L91.95,39.568 Z M96.604,42.928 C97.2853333,42.928 97.8266667,42.718 98.228,42.298 C98.6293333,41.878 98.956,41.3133333 99.208,40.604 L99.208,40.604 L102.246,32.064 L100.916,32.064 L99.502,36.32 C99.3713333,36.7026667 99.2546667,37.083 99.152,37.461 C99.0493333,37.839 98.97,38.1446667 98.914,38.378 L98.914,38.378 L98.872,38.378 C98.8253333,38.07 98.7506667,37.748 98.648,37.412 C98.5453333,37.076 98.4286667,36.7166667 98.298,36.334 L98.298,36.334 L96.8,32.064 L95.484,32.064 L98.326,39.596 L97.976,40.59 C97.836,40.9913333 97.6423333,41.3133333 97.395,41.556 C97.1476667,41.7986667 96.8233333,41.92 96.422,41.92 C96.2726667,41.92 96.128,41.9106667 95.988,41.892 C95.848,41.8733333 95.7313333,41.8546667 95.638,41.836 L95.638,41.836 L95.638,42.816 C95.75,42.844 95.8853333,42.8696667 96.044,42.893 C96.2026667,42.9163333 96.3893333,42.928 96.604,42.928 Z" id="ITRILibrary"></path>
        </g>
    </g>
</svg>