<?xml version="1.0" encoding="UTF-8"?>
<svg width="212px" height="62px" viewBox="0 0 212 62" version="1.1" xmlns="http://www.w3.org/2000/svg" xmlns:xlink="http://www.w3.org/1999/xlink">
    <title>logo</title>
    <g id="Page-1" stroke="none" stroke-width="1" fill="none" fill-rule="evenodd">
        <g id="logo" fill="#444444" fill-rule="nonzero">
            <path d="M4.8984375,57.4355469 L4.8984375,56.4521484 L3.30273438,56.090332 L3.30273438,45.2358398 L4.8984375,44.8554688 L4.8984375,43.8720703 L0,43.8720703 L0,44.8554688 L1.59570312,45.2358398 L1.59570312,56.090332 L0,56.4521484 L0,57.4355469 L4.8984375,57.4355469 Z M12.3193359,57.4355469 L12.3193359,45.375 L16.53125,45.375 L16.53125,43.8720703 L6.36328125,43.8720703 L6.36328125,45.375 L10.6030273,45.375 L10.6030273,57.4355469 L12.3193359,57.4355469 Z M20.7978516,57.4355469 L20.7978516,51.8320312 L23.4975586,51.8320312 L26.7817383,57.4355469 L28.7763672,57.4355469 L25.0561523,51.3588867 C26.8683268,50.7342122 27.7744141,49.5219727 27.7744141,47.722168 C27.7744141,46.4357096 27.3708496,45.4724121 26.5637207,44.8322754 C25.7565918,44.1921387 24.5118815,43.8720703 22.8295898,43.8720703 L22.8295898,43.8720703 L19.0908203,43.8720703 L19.0908203,57.4355469 L20.7978516,57.4355469 Z M22.8295898,50.3847656 L20.7978516,50.3847656 L20.7978516,45.347168 L22.7368164,45.347168 C23.887207,45.347168 24.7190755,45.5435384 25.2324219,45.9362793 C25.7457682,46.3290202 26.0024414,46.9521484 26.0024414,47.8056641 C26.0024414,48.6591797 25.7488607,49.3024089 25.2416992,49.7353516 C24.7345378,50.1682943 23.9305013,50.3847656 22.8295898,50.3847656 L22.8295898,50.3847656 Z M35.2231445,57.4355469 L35.2231445,56.4521484 L33.6274414,56.090332 L33.6274414,45.2358398 L35.2231445,44.8554688 L35.2231445,43.8720703 L30.324707,43.8720703 L30.324707,44.8554688 L31.9204102,45.2358398 L31.9204102,56.090332 L30.324707,56.4521484 L30.324707,57.4355469 L35.2231445,57.4355469 Z M51.4194336,57.4355469 L51.4194336,55.9140625 L45.4912109,55.9140625 L45.4912109,43.8720703 L43.7841797,43.8720703 L43.7841797,57.4355469 L51.4194336,57.4355469 Z M54.8603516,45.5605469 C55.1201172,45.5605469 55.3474121,45.4739583 55.5422363,45.3007812 C55.7370605,45.1276042 55.8344727,44.8585612 55.8344727,44.4936523 C55.8344727,44.1225586 55.7370605,43.8535156 55.5422363,43.6865234 C55.3474121,43.5195312 55.1201172,43.4360352 54.8603516,43.4360352 C54.5820312,43.4360352 54.3485514,43.5195312 54.1599121,43.6865234 C53.9712728,43.8535156 53.8769531,44.1225586 53.8769531,44.4936523 C53.8769531,44.8585612 53.9712728,45.1276042 54.1599121,45.3007812 C54.3485514,45.4739583 54.5820312,45.5605469 54.8603516,45.5605469 Z M55.6767578,57.4355469 L55.6767578,47.2490234 L54.0068359,47.2490234 L54.0068359,57.4355469 L55.6767578,57.4355469 Z M64.2294922,57.6210938 C65.546875,57.6210938 66.5766602,57.1618652 67.3188477,56.2434082 C68.0610352,55.3249512 68.4321289,54.0245768 68.4321289,52.3422852 C68.4321289,50.6847331 68.0672201,49.3936361 67.3374023,48.4689941 C66.6075846,47.5443522 65.5716146,47.0820312 64.2294922,47.0820312 C62.813151,47.0820312 61.7617188,47.5891927 61.0751953,48.6035156 L61.0751953,48.6035156 L60.9824219,48.6035156 C61.0442708,47.9046224 61.0751953,47.2057292 61.0751953,46.5068359 L61.0751953,46.5068359 L61.0751953,43 L59.4052734,43 L59.4052734,57.4355469 L60.6020508,57.4355469 C60.6054244,57.4248639 60.6094369,57.4115996 60.6140883,57.395754 L60.6496643,57.2697048 C60.7073218,57.0603384 60.8058712,56.6857688 60.9453125,56.1459961 L60.9453125,56.1459961 L61.0751953,56.1459961 C61.4153646,56.6346029 61.8544922,57.0026042 62.3925781,57.25 C62.9306641,57.4973958 63.5429688,57.6210938 64.2294922,57.6210938 Z M63.9882812,56.2387695 C62.9554036,56.2387695 62.2116699,55.9403483 61.7570801,55.3435059 C61.3024902,54.7466634 61.0751953,53.7524414 61.0751953,52.3608398 L61.0751953,52.3608398 L61.0751953,52.2866211 C61.0751953,50.9012044 61.2978516,49.917806 61.7431641,49.3364258 C62.1884766,48.7550456 62.9244792,48.4643555 63.9511719,48.4643555 C64.8850911,48.4643555 65.5777995,48.7859701 66.0292969,49.4291992 C66.4807943,50.0724284 66.706543,51.0372721 66.706543,52.3237305 C66.706543,53.5916341 66.4823405,54.5611165 66.0339355,55.2321777 C65.5855306,55.9032389 64.9036458,56.2387695 63.9882812,56.2387695 Z M73.2646484,57.4355469 L73.2646484,51.9990234 C73.2646484,51.3619792 73.3945312,50.7821452 73.6542969,50.2595215 C73.9140625,49.7368978 74.2743327,49.3271484 74.7351074,49.0302734 C75.1958822,48.7333984 75.6953125,48.5849609 76.2333984,48.5849609 C76.5921224,48.5849609 76.9601237,48.6282552 77.3374023,48.7148438 L77.3374023,48.7148438 L77.5415039,47.1748047 C77.1951497,47.1005859 76.796224,47.0634766 76.3447266,47.0634766 C75.7200521,47.0634766 75.1417643,47.2366536 74.6098633,47.5830078 C74.0779622,47.929362 73.6171875,48.4396159 73.2275391,49.1137695 L73.2275391,49.1137695 L73.1533203,49.1137695 L72.9677734,47.2490234 L71.5947266,47.2490234 L71.5947266,57.4355469 L73.2646484,57.4355469 Z M82.2255859,57.6210938 C82.992513,57.6210938 83.6280111,57.5082194 84.1320801,57.2824707 C84.6361491,57.056722 85.1417643,56.6253255 85.6489258,55.9882812 L85.6489258,55.9882812 L85.7231445,55.9882812 L86.0478516,57.4355469 L87.2631836,57.4355469 L87.2631836,50.4960938 C87.2631836,49.3085938 86.9632161,48.4427083 86.3632812,47.8984375 C85.7633464,47.3541667 84.8479818,47.0820312 83.6171875,47.0820312 C83.0234375,47.0820312 82.4235026,47.1593424 81.8173828,47.3139648 C81.211263,47.4685872 80.6515299,47.6819661 80.1381836,47.9541016 L80.1381836,47.9541016 L80.6484375,49.206543 C81.0690104,49.0086263 81.5189616,48.8292643 81.998291,48.668457 C82.4776204,48.5076497 82.9863281,48.4272461 83.5244141,48.4272461 C84.2604167,48.4272461 84.7954102,48.6112467 85.1293945,48.979248 C85.4633789,49.3472493 85.6303711,49.917806 85.6303711,50.690918 L85.6303711,50.690918 L85.6303711,51.2939453 L83.9047852,51.3588867 C80.6453451,51.4578451 79.015625,52.5402018 79.015625,54.605957 C79.015625,55.5646159 79.3001302,56.3068034 79.8691406,56.8325195 C80.438151,57.3582357 81.2236328,57.6210938 82.2255859,57.6210938 Z M82.605957,56.2758789 C82.0183919,56.2758789 81.5622559,56.1336263 81.2375488,55.8491211 C80.9128418,55.5646159 80.7504883,55.1564128 80.7504883,54.6245117 C80.7504883,53.9194336 81.017985,53.4029948 81.5529785,53.0751953 C82.087972,52.7473958 82.9399414,52.561849 84.1088867,52.5185547 L84.1088867,52.5185547 L85.6118164,52.4536133 L85.6118164,53.3720703 C85.6118164,54.2998047 85.3443197,55.0157064 84.8093262,55.5197754 C84.2743327,56.0238444 83.5398763,56.2758789 82.605957,56.2758789 Z M92.5874023,57.4355469 L92.5874023,51.9990234 C92.5874023,51.3619792 92.7172852,50.7821452 92.9770508,50.2595215 C93.2368164,49.7368978 93.5970866,49.3271484 94.0578613,49.0302734 C94.5186361,48.7333984 95.0180664,48.5849609 95.5561523,48.5849609 C95.9148763,48.5849609 96.2828776,48.6282552 96.6601562,48.7148438 L96.6601562,48.7148438 L96.8642578,47.1748047 C96.5179036,47.1005859 96.1189779,47.0634766 95.6674805,47.0634766 C95.042806,47.0634766 94.4645182,47.2366536 93.9326172,47.5830078 C93.4007161,47.929362 92.9399414,48.4396159 92.550293,49.1137695 L92.550293,49.1137695 L92.4760742,49.1137695 L92.2905273,47.2490234 L90.9174805,47.2490234 L90.9174805,57.4355469 L92.5874023,57.4355469 Z M99.2475586,62 C100.113444,62 100.840169,61.7556966 101.427734,61.2670898 C102.015299,60.7784831 102.522461,59.9713542 102.949219,58.8457031 L102.949219,58.8457031 L107.337402,47.2490234 L105.537598,47.2490234 L103.46875,53.0288086 C103.332682,53.4060872 103.16569,53.90861 102.967773,54.536377 C102.769857,55.1641439 102.643066,55.5924479 102.587402,55.8212891 L102.587402,55.8212891 L102.513184,55.8212891 C102.40804,55.233724 102.123535,54.309082 101.659668,53.0473633 L101.659668,53.0473633 L99.4609375,47.2490234 L97.6704102,47.2490234 L101.770996,57.4726562 L101.242188,58.8271484 C101.007161,59.4394531 100.704102,59.8924967 100.333008,60.1862793 C99.9619141,60.4800618 99.5104167,60.6269531 98.9785156,60.6269531 C98.5455729,60.6269531 98.1744792,60.5898438 97.8652344,60.515625 L97.8652344,60.515625 L97.8652344,61.8422852 C98.3229167,61.9474284 98.7836914,62 99.2475586,62 Z" id="ITRILibrary"></path>
            <path d="M32.112,30.384 L32.112,27.72 L17.388,27.72 L17.388,7.056 L30.312,7.056 L30.312,4.32 L1.872,4.32 L1.872,7.056 L14.472,7.056 L14.472,27.72 L0,27.72 L0,30.384 L32.112,30.384 Z M40.68,31.5 L40.68,28.62 L47.916,28.62 L47.916,13.212 L40.752,13.212 C41.652,10.548 42.408,7.632 42.984,4.68 L48.564,4.68 L48.564,2.232 L35.964,2.232 L35.964,4.68 L40.464,4.68 C39.492,10.152 37.836,15.192 35.316,18.576 C35.748,19.296 36.36,20.808 36.504,21.42 C37.224,20.556 37.8,19.548 38.412,18.504 L38.412,31.5 L40.68,31.5 Z M50.868,33.3 C54.936,29.088 55.872,23.112 55.98,17.64 L61.848,17.64 L61.848,33.12 L64.404,33.12 L64.404,17.64 L68.472,17.64 L68.472,15.084 L64.404,15.084 L64.404,4.752 L67.752,4.752 L67.752,2.232 L50.508,2.232 L50.508,4.752 L53.46,4.752 L53.46,15.084 L49.5,15.084 L49.5,17.64 L53.424,17.64 C53.316,22.464 52.524,27.9 48.852,31.752 C49.464,32.076 50.436,32.832 50.868,33.3 Z M61.848,15.084 L56.016,15.084 L56.016,4.752 L61.848,4.752 L61.848,15.084 Z M45.54,26.208 L40.68,26.208 L40.68,15.588 L45.54,15.588 L45.54,26.208 Z M86.364,11.016 L86.364,7.092 L101.484,7.092 L101.484,11.016 L104.04,11.016 L104.04,4.752 L95.076,4.752 L95.832,4.464 C95.4,3.276 94.428,1.404 93.492,0 L91.08,0.792 C91.836,1.98 92.628,3.528 93.024,4.752 L83.88,4.752 L83.88,11.016 L86.364,11.016 Z M75.384,33.084 L75.384,4.176 L80.136,4.176 C79.38,6.588 78.3,9.684 77.292,12.276 C79.848,15.12 80.496,17.568 80.496,19.512 C80.496,20.628 80.316,21.636 79.74,22.032 C79.452,22.248 79.056,22.32 78.624,22.356 C78.048,22.428 77.364,22.392 76.536,22.32 C76.968,23.004 77.184,24.012 77.22,24.696 C78.012,24.732 78.912,24.732 79.632,24.624 C80.352,24.552 81,24.336 81.504,23.94 C82.476,23.256 82.908,21.672 82.908,19.764 C82.908,17.532 82.296,14.94 79.668,11.988 C80.892,9.108 82.188,5.616 83.268,2.664 L81.54,1.62 L81.108,1.728 L72.972,1.728 L72.972,33.084 L75.384,33.084 Z M101.124,13.464 L101.124,11.088 L86.76,11.088 L86.76,13.464 L101.124,13.464 Z M82.476,33.12 C89.28,30.744 91.008,26.532 91.62,19.944 L95.4,19.944 L95.4,29.376 C95.4,31.932 95.976,32.688 98.496,32.688 L101.664,32.688 C103.824,32.688 104.508,31.5 104.724,26.82 C104.004,26.712 102.996,26.28 102.42,25.848 C102.348,29.772 102.204,30.384 101.412,30.384 L98.856,30.384 C98.064,30.384 97.92,30.24 97.92,29.34 L97.92,19.944 L104.292,19.944 L104.292,17.496 L84.024,17.496 L84.024,19.944 L89.028,19.944 C88.56,25.524 87.12,29.052 80.928,30.996 C81.468,31.5 82.188,32.472 82.476,33.12 Z M111.6,33.084 L111.6,31.68 L136.44,31.68 L136.44,33.084 L138.996,33.084 L138.996,1.728 L109.116,1.728 L109.116,33.084 L111.6,33.084 Z M136.44,29.376 L111.6,29.376 L111.6,3.996 L136.44,3.996 L136.44,29.376 Z M134.856,14.58 L134.856,12.888 L125.028,12.888 L125.028,11.268 L131.112,11.268 L131.112,5.688 L116.892,5.688 L116.892,11.268 L122.76,11.268 L122.76,12.888 L113.292,12.888 L113.292,14.58 L134.856,14.58 Z M128.808,9.648 L119.124,9.648 L119.124,7.272 L128.808,7.272 L128.808,9.648 Z M132.264,27.468 L132.264,16.128 L115.74,16.128 L115.74,27.468 L132.264,27.468 Z M130.068,25.776 L117.828,25.776 L117.828,17.784 L130.068,17.784 L130.068,25.776 Z M127.764,24.228 L127.764,19.332 L120.132,19.332 L120.132,24.228 L127.764,24.228 Z M126.036,22.824 L121.788,22.824 L121.788,20.736 L126.036,20.736 L126.036,22.824 Z M175.932,20.412 L175.932,18.432 L161.208,18.432 L161.208,16.308 L173.484,16.308 L173.484,14.472 L161.208,14.472 L161.208,12.492 L171.504,12.492 L171.504,8.568 L175.896,8.568 L175.896,6.552 L171.504,6.552 L171.504,2.736 L161.208,2.736 L161.208,0.216 L158.58,0.216 L158.58,2.736 L147.96,2.736 L147.96,4.536 L158.58,4.536 L158.58,6.552 L144.18,6.552 L144.18,8.568 L158.58,8.568 L158.58,10.692 L147.564,10.692 L147.564,12.492 L158.58,12.492 L158.58,14.472 L146.556,14.472 L146.556,16.308 L158.58,16.308 L158.58,18.432 L144.108,18.432 L144.108,20.412 L175.932,20.412 Z M168.876,6.552 L161.208,6.552 L161.208,4.536 L168.876,4.536 L168.876,6.552 Z M168.876,10.692 L161.208,10.692 L161.208,8.568 L168.876,8.568 L168.876,10.692 Z M151.308,33.228 L151.308,32.04 L169.02,32.04 L169.02,33.156 L171.684,33.156 L171.684,22.104 L148.716,22.104 L148.716,33.228 L151.308,33.228 Z M169.02,26.136 L151.308,26.136 L151.308,23.94 L169.02,23.94 L169.02,26.136 Z M169.02,30.168 L151.308,30.168 L151.308,27.864 L169.02,27.864 L169.02,30.168 Z M180.504,9.972 C182.808,8.46 185.112,6.228 186.948,3.78 C188.82,5.004 190.98,6.48 192.096,7.452 L193.32,5.4 C192.168,4.5 190.008,3.096 188.208,1.98 C188.46,1.584 188.712,1.188 188.928,0.756 L186.732,0 C185.112,3.024 182.124,5.868 179.316,7.668 C179.712,8.172 180.324,9.468 180.504,9.972 Z M195.696,10.26 L195.696,6.624 L209.628,6.624 L209.628,10.26 L211.896,10.26 L211.896,4.428 L203.544,4.428 L204.588,3.888 C204.192,2.88 203.436,1.296 202.752,0.072 L200.484,1.044 C200.988,2.052 201.6,3.384 202.032,4.428 L193.5,4.428 L193.5,10.26 L195.696,10.26 Z M190.26,8.928 L190.26,6.984 L184.176,6.984 L184.176,8.928 L190.26,8.928 Z M198.18,33.084 L198.18,31.5 L208.116,31.5 L208.116,32.904 L210.492,32.904 L210.492,21.852 L198.18,21.852 L198.18,18.864 L208.908,18.864 L208.908,9.864 L195.804,9.864 L195.804,33.084 L198.18,33.084 Z M181.296,33.084 C181.944,32.616 182.916,32.076 189.972,29.196 C190.512,30.276 190.944,31.248 191.232,32.04 L193.248,31.032 C192.492,29.268 190.836,26.136 189.504,23.868 L187.632,24.624 C188.1,25.488 188.604,26.388 189.072,27.36 L184.032,29.304 L184.032,23.148 L191.952,23.148 L191.952,11.088 L181.656,11.088 L181.656,28.8 C181.656,30.096 180.9,30.6 180.36,30.816 C180.756,31.356 181.152,32.508 181.296,33.084 Z M206.604,16.632 L198.18,16.632 L198.18,12.06 L206.604,12.06 L206.604,16.632 Z M189.576,15.984 L184.032,15.984 L184.032,13.14 L189.576,13.14 L189.576,15.984 Z M189.576,21.096 L184.032,21.096 L184.032,18 L189.576,18 L189.576,21.096 Z M208.116,29.196 L198.18,29.196 L198.18,24.156 L208.116,24.156 L208.116,29.196 Z" id="工研院圖書館"></path>
        </g>
    </g>
</svg>