<?xml version="1.0" encoding="UTF-8"?>
<svg width="16px" height="16px" viewBox="0 0 16 16" version="1.1" xmlns="http://www.w3.org/2000/svg" xmlns:xlink="http://www.w3.org/1999/xlink">
    <title>manual-dl</title>
    <g id="Page-1" stroke="none" stroke-width="1" fill="none" fill-rule="evenodd">
        <g id="manual-dl" fill="#007BD8" fill-rule="nonzero">
            <path d="M12.2186667,6.71253333 C12.1322667,6.5216 11.9424,6.4 11.7333333,6.4 L9.6,6.4 L9.6,0.533333333 C9.6,0.238933333 9.36106667,0 9.06666667,0 L6.93333333,0 C6.63893333,0 6.4,0.238933333 6.4,0.533333333 L6.4,6.4 L4.26666667,6.4 C4.0576,6.4 3.86773333,6.52266667 3.78133333,6.71253333 C3.69386667,6.90346667 3.728,7.1264 3.8656,7.28426667 L7.59893333,11.5509333 C7.70026667,11.6672 7.8464,11.7333333 8,11.7333333 C8.1536,11.7333333 8.29973333,11.6661333 8.40106667,11.5509333 L12.1344,7.28426667 C12.2730667,7.12746667 12.3050667,6.90346667 12.2186667,6.71253333 Z" id="Path"></path>
            <path d="M13.8666667,10.6666667 L13.8666667,13.8666667 L2.13333333,13.8666667 L2.13333333,10.6666667 L0,10.6666667 L0,14.9333333 C0,15.5232 0.477866667,16 1.06666667,16 L14.9333333,16 C15.5232,16 16,15.5232 16,14.9333333 L16,10.6666667 L13.8666667,10.6666667 Z" id="Path"></path>
        </g>
    </g>
</svg>