<?xml version="1.0" encoding="UTF-8"?>
<svg width="1295px" height="827px" viewBox="0 0 1295 827" version="1.1" xmlns="http://www.w3.org/2000/svg" xmlns:xlink="http://www.w3.org/1999/xlink">
    <title>Back Copy</title>
    <g id="Page-1" stroke="none" stroke-width="1" fill="none" fill-rule="evenodd">
        <g id="Back-Copy" transform="translate(1.669683, 0.000000)" fill-rule="nonzero">
            <g id="Group" transform="translate(1172.000000, 372.000000)">
                <path d="M9.00704138,16.943662 C4.69771662,16.943662 1.13477817,13.4366197 1.07140574,9.12676056 C1.03619884,7.00704225 1.83187482,5 3.31056469,3.47183099 C4.78925456,1.95070423 6.76788243,1.0915493 8.88733791,1.05633803 L9.01408276,1.05633803 C13.3234075,1.05633803 16.886346,4.56338028 16.9497184,8.87323944 C17.0201322,13.2535211 13.5135248,16.8732394 9.13378623,16.943662 L9.00704138,16.943662 Z" id="Path" fill="#FFFFFF"></path>
                <path d="M9.00704138,2.11267606 C12.7460143,2.11267606 15.8301389,5.15492958 15.88647,8.8943662 C15.9498424,12.6901408 12.9079661,15.8309859 9.11266209,15.8873239 L9,15.8873239 C5.26102704,15.8873239 2.17690246,12.8450704 2.12057141,9.1056338 C2.05719899,5.30985915 5.0990753,2.16901408 8.8943793,2.11267606 L9.00704138,2.11267606 M9.00704138,0 C8.95775172,0 8.90846206,0 8.85917239,0 C3.88795788,0.0774647887 -0.0763392497,4.16901408 0.00111593396,9.14084507 C0.0785711176,14.0633803 4.09215791,18 8.99295862,18 C9.04224828,18 9.09153794,18 9.14082761,18 C14.1120421,17.9225352 18.0763392,13.8309859 17.9988841,8.85915493 C17.9284703,3.93661972 13.9148835,0 9.00704138,0 L9.00704138,0 Z" id="Shape" fill="#F5DF4D"></path>
            </g>
            <g id="Group-Copy-6" transform="translate(191.000000, 322.000000)">
                <path d="M9.00704138,16.943662 C4.69771662,16.943662 1.13477817,13.4366197 1.07140574,9.12676056 C1.03619884,7.00704225 1.83187482,5 3.31056469,3.47183099 C4.78925456,1.95070423 6.76788243,1.0915493 8.88733791,1.05633803 L9.01408276,1.05633803 C13.3234075,1.05633803 16.886346,4.56338028 16.9497184,8.87323944 C17.0201322,13.2535211 13.5135248,16.8732394 9.13378623,16.943662 L9.00704138,16.943662 Z" id="Path" fill="#FFFFFF"></path>
                <path d="M9.00704138,2.11267606 C12.7460143,2.11267606 15.8301389,5.15492958 15.88647,8.8943662 C15.9498424,12.6901408 12.9079661,15.8309859 9.11266209,15.8873239 L9,15.8873239 C5.26102704,15.8873239 2.17690246,12.8450704 2.12057141,9.1056338 C2.05719899,5.30985915 5.0990753,2.16901408 8.8943793,2.11267606 L9.00704138,2.11267606 M9.00704138,0 C8.95775172,0 8.90846206,0 8.85917239,0 C3.88795788,0.0774647887 -0.0763392497,4.16901408 0.00111593396,9.14084507 C0.0785711176,14.0633803 4.09215791,18 8.99295862,18 C9.04224828,18 9.09153794,18 9.14082761,18 C14.1120421,17.9225352 18.0763392,13.8309859 17.9988841,8.85915493 C17.9284703,3.93661972 13.9148835,0 9.00704138,0 L9.00704138,0 Z" id="Shape" fill="#F5DF4D"></path>
            </g>
            <g id="Group" transform="translate(1269.000000, 772.000000)">
                <path d="M9,16.943662 C4.69067524,16.943662 1.12773679,13.4366197 1.06436436,9.12676056 C0.993950561,4.74647887 4.50055797,1.12676056 8.88029653,1.05633803 L9.00704138,1.05633803 C13.3163661,1.05633803 16.8793046,4.56338028 16.942677,8.87323944 C16.9778839,10.9929577 16.1822079,13 14.7035181,14.528169 C13.2248282,16.0492958 11.2462003,16.9084507 9.12674485,16.943662 L9,16.943662 Z" id="Path" fill="#FFFFFF"></path>
                <path d="M9.00704138,2.11267606 C12.7460143,2.11267606 15.8301389,5.15492958 15.88647,8.8943662 C15.9498424,12.6901408 12.9079661,15.8309859 9.11266209,15.8873239 L9,15.8873239 C5.26102704,15.8873239 2.17690246,12.8450704 2.12057141,9.1056338 C2.09240589,7.26760563 2.78246117,5.52816901 4.05695101,4.20422535 C5.33144085,2.88028169 7.05657903,2.14084507 8.89437929,2.11267606 L9.00704138,2.11267606 M9.00704138,0 C8.95775172,0 8.90846206,0 8.85917239,0 C3.88795788,0.0774647887 -0.0763392497,4.16901408 0.00111593396,9.14084507 C0.0785711176,14.0633803 4.09215791,18 8.99295862,18 C9.04224828,18 9.09153794,18 9.14082761,18 C14.1120421,17.9225352 18.0763392,13.8309859 17.9988841,8.85915493 C17.9214289,3.93661972 13.9078421,0 9.00704138,0 L9.00704138,0 Z" id="Shape" fill="#F5DF4D"></path>
            </g>
            <g id="Group" transform="translate(941.000000, 627.000000)">
                <path d="M9,16.943662 C4.69067524,16.943662 1.12773679,13.4366197 1.06436436,9.12676056 C0.993950561,4.74647887 4.50055797,1.12676056 8.88029653,1.05633803 L9.00704138,1.05633803 C13.3163661,1.05633803 16.8793046,4.56338028 16.942677,8.87323944 C16.9778839,10.9929577 16.1822079,13 14.7035181,14.528169 C13.2248282,16.0492958 11.2462003,16.9084507 9.12674485,16.943662 L9,16.943662 Z" id="Path" fill="#FFFFFF"></path>
                <path d="M9.00704138,2.11267606 C12.7460143,2.11267606 15.8301389,5.15492958 15.88647,8.8943662 C15.9146355,10.7323944 15.2245802,12.471831 13.9500904,13.7957746 C12.6756005,15.1197183 10.9504624,15.8591549 9.11266209,15.8873239 L9,15.8873239 C5.26102704,15.8873239 2.17690246,12.8450704 2.12057141,9.1056338 C2.05719899,5.30985915 5.0990753,2.16901408 8.8943793,2.11267606 L9.00704138,2.11267606 M9.00704138,0 C8.95775172,0 8.90846206,0 8.85917239,0 C3.88795788,0.0774647887 -0.0763392497,4.16901408 0.00111593396,9.14084507 C0.0785711176,14.0633803 4.09215791,18 8.99295862,18 C9.04224828,18 9.09153794,18 9.14082761,18 C14.1120421,17.9225352 18.0763392,13.8309859 17.9988841,8.85915493 C17.9214289,3.93661972 13.9078421,0 9.00704138,0 L9.00704138,0 Z" id="Shape" fill="#F5DF4D"></path>
            </g>
            <g id="Group" transform="translate(12.000000, 211.000000)">
                <path d="M9,16.9440751 C8.1412568,16.9440751 7.2825136,16.8032851 6.45896479,16.5217051 C2.31306523,15.1208447 0.0747018043,10.6085256 1.47543867,6.45522096 C2.56646487,3.22409073 5.58614383,1.05592491 9,1.05592491 C9.8587432,1.05592491 10.7174864,1.1967149 11.5410352,1.47829488 C15.6869348,2.87915526 17.9252982,7.39147438 16.5245613,11.544779 C15.4335351,14.7688698 12.4068173,16.9440751 9,16.9440751 Z" id="Path" fill="#FFFFFF"></path>
                <path d="M9,2.11184982 L9,2.11184982 C9.74612114,2.11184982 10.4852034,2.23152131 11.203169,2.47790379 C14.8000361,3.69573719 16.7357277,7.60969887 15.5250406,11.2068831 C14.5818308,14.0086038 11.9563291,15.8881502 9.00703888,15.8881502 C8.26091774,15.8881502 7.52183547,15.7684787 6.80386984,15.5220962 C3.20700283,14.3042628 1.27131118,10.3903011 2.48199832,6.79311693 C3.42520807,3.99843567 6.04367094,2.11184982 9,2.11184982 M9,0 C5.24827765,0 1.74291606,2.3652718 0.47591789,6.11732499 C-1.1148687,10.8267501 1.41208876,15.9303872 6.12109861,17.521314 C7.07838611,17.845131 8.04975138,18 9,18 C12.7517223,18 16.2570839,15.6347282 17.5240821,11.882675 C19.1148687,7.1732499 16.5879112,2.06961283 11.8789014,0.47868596 C10.9216139,0.154868987 9.9572875,0 9,0 L9,0 Z" id="Shape" fill="#F5DF4D"></path>
            </g>
            <g id="Group" transform="translate(436.000000, 805.000000)">
                <polygon id="Rectangle" fill="#FFFFFF" transform="translate(11.025273, 11.011314) rotate(-34.986857) translate(-11.025273, -11.011314) " points="4.24130749 4.2273491 17.8092382 4.2273491 17.8092382 17.7952798 4.24130749 17.7952798"></polygon>
                <path d="M12.3991881,3.11096076 L18.8964817,12.3917456 L9.61569689,18.8890392 L3.11840325,9.6082544 L12.3991881,3.11096076 M12.9424899,0 L0,9.05751015 L9.05751015,22 L22,12.9424899 L12.9424899,0 L12.9424899,0 Z" id="Shape" fill="#F5DF4D"></path>
            </g>
            <g id="Group" transform="translate(1004.000000, 219.000000)">
                <polygon id="Rectangle" fill="#FFFFFF" transform="translate(11.021619, 10.980195) rotate(-34.986857) translate(-11.021619, -10.980195) " points="4.23765397 4.19622982 17.8055847 4.19622982 17.8055847 17.7641605 4.23765397 17.7641605"></polygon>
                <path d="M12.3917456,3.11096076 L18.8890392,12.3917456 L9.6082544,18.8890392 L3.11096076,9.6082544 L12.3917456,3.11096076 M12.9424899,0 L0,9.05751015 L9.05751015,22 L22,12.9424899 L12.9424899,0 L12.9424899,0 Z" id="Shape" fill="#F5DF4D"></path>
            </g>
            <g id="Group" transform="translate(118.000000, 575.000000)">
                <polygon id="Rectangle" fill="#FFFFFF" transform="translate(11.020103, 10.999773) rotate(-34.986857) translate(-11.020103, -10.999773) " points="4.23613794 4.21580803 17.8040686 4.21580803 17.8040686 17.7837387 4.23613794 17.7837387"></polygon>
                <path d="M12.3917456,3.11096076 L18.8890392,12.3917456 L9.6082544,18.8890392 L3.11096076,9.6082544 L12.3917456,3.11096076 M12.9424899,0 L0,9.05751015 L9.05751015,22 L22,12.9424899 L12.9424899,0 L12.9424899,0 Z" id="Shape" fill="#F5DF4D"></path>
            </g>
            <g id="Group" transform="translate(512.000000, 0.000000)">
                <polygon id="Rectangle" fill="#FFFFFF" transform="translate(11.015749, 10.968448) rotate(-39.730014) translate(-11.015749, -10.968448) " points="4.30650973 4.25920863 17.7249888 4.25920863 17.7249888 17.6776877 4.30650973 17.6776877"></polygon>
                <path d="M11.7249916,3.10605554 L18.8865841,11.7249916 L10.267648,18.8865841 L3.10605554,10.267648 L11.7249916,3.10605554 M12.0120442,0 L0,9.98795584 L9.98795584,22 L22,12.0120442 L12.0120442,0 L12.0120442,0 Z" id="Shape" fill="#F5DF4D"></path>
            </g>
            <line x1="390" y1="207" x2="418" y2="200" id="Path" stroke="#979797" stroke-width="3" fill="#FFFFFF"></line>
            <line x1="22" y1="800" x2="0" y2="818" id="Path" stroke="#979797" stroke-width="3" fill="#FFFFFF"></line>
            <line x1="864" y1="41" x2="883" y2="62" id="Path" stroke="#979797" stroke-width="3" fill="#FFFFFF"></line>
            <line x1="1154" y1="540" x2="1165" y2="566" id="Path" stroke="#979797" stroke-width="3" fill="#FFFFFF"></line>
            <line x1="1292" y1="171" x2="1266" y2="182" id="Path" stroke="#979797" stroke-width="3" fill="#FFFFFF"></line>
            <line x1="1029" y1="823" x2="1035" y2="795" id="Path" stroke="#979797" stroke-width="3" fill="#FFFFFF"></line>
            <line x1="227" y1="743" x2="248.5" y2="753.5" id="Path-Copy" stroke="#979797" stroke-width="3" fill="#FFFFFF"></line>
            <line x1="118" y1="45" x2="103" y2="22" id="Path" stroke="#979797" stroke-width="3" fill="#FFFFFF"></line>
        </g>
    </g>
</svg>