<?xml version="1.0" encoding="UTF-8"?>
<svg width="24px" height="24px" viewBox="0 0 24 24" version="1.1" xmlns="http://www.w3.org/2000/svg" xmlns:xlink="http://www.w3.org/1999/xlink">
    <title>notice</title>
    <defs>
        <path d="M11,13 L13,13 L13,7.00000005 L11,7.00000005 L11,13 L11,13 Z M12,2.00000001 C6.48000003,2.00000001 2.00000001,6.48000003 2.00000001,12 C2.00000001,17.5200001 6.48000003,22 12,22 C17.5200001,22 22,17.5200001 22,12 C22,6.48000003 17.5200001,2.00000001 12,2.00000001 L12,2.00000001 Z M4.00000002,12 C4.00000002,7.59000003 7.59000003,4.00000002 12,4.00000002 C16.4100001,4.00000002 20,7.59000003 20,12 C20,16.4100001 16.4100001,20 12,20 C7.59000003,20 4.00000002,16.4100001 4.00000002,12 Z M11,17 L13,17 L13,15 L11,15 L11,17 L11,17 Z" id="path-1"></path>
    </defs>
    <g id="Page-1" stroke="none" stroke-width="1" fill="none" fill-rule="evenodd">
        <g id="notice">
            <polygon id="Base" points="0 0 24.0000001 0 24.0000001 24.0000001 0 24.0000001"></polygon>
            <mask id="mask-2" fill="white">
                <use xlink:href="#path-1"></use>
            </mask>
            <use id="Icon" fill="#EC7D33" fill-rule="nonzero" xlink:href="#path-1"></use>
        </g>
    </g>
</svg>