<?xml version="1.0" encoding="UTF-8"?>
<svg width="34px" height="34px" viewBox="0 0 34 34" version="1.1" xmlns="http://www.w3.org/2000/svg" xmlns:xlink="http://www.w3.org/1999/xlink">
    <title>Group</title>
    <g id="Page-1" stroke="none" stroke-width="1" fill="none" fill-rule="evenodd">
        <g id="novice-8" transform="translate(-19.000000, -19.000000)">
            <g id="business" transform="translate(19.000000, 19.000000)">
                <polygon id="Base" points="0 0 34.0000001 0 34.0000001 34.0000001 0 34.0000001"></polygon>
                <g id="atom" transform="translate(2.833333, 2.833333)" fill="#444444" fill-rule="nonzero">
                    <path d="M25.6720089,14.9537037 C25.8691173,14.7260102 26.1024735,14.5010621 26.2804392,14.2726092 C28.3229078,11.6474749 28.8638446,9.24477684 27.8019165,7.5060583 C26.7417793,5.76733977 24.2578544,5.00499295 20.8477298,5.37030726 C20.5563279,5.40103244 20.2410284,5.4782543 19.9412284,5.52434209 C18.5934561,2.17144133 16.5264107,0 14.1666667,0 C11.8069226,0 9.73987728,2.17144133 8.39210492,5.52434209 C8.09236667,5.4782543 7.77700547,5.40103244 7.48560358,5.37030726 C4.07912221,5.01013328 1.59155408,5.76821596 0.531416818,7.5060583 C-0.530511218,9.24477684 0.0103637988,11.6474164 2.0528941,14.2726092 C2.23085983,14.5010621 2.464216,14.7260102 2.66132447,14.9537037 C2.464216,15.1813972 2.23085983,15.4063453 2.0528941,15.6347982 C0.0104255496,18.2599325 -0.530511218,20.6626306 0.531416818,22.4013491 C1.82608352,24.525768 4.91022585,24.8099468 7.48560358,24.5371002 C7.77700547,24.506375 8.09230492,24.4291531 8.39210492,24.3830653 C9.73987728,27.7359661 11.8069226,29.9074074 14.1666667,29.9074074 C16.5264107,29.9074074 18.5934561,27.7359661 19.9412284,24.3830653 C20.2409667,24.4291531 20.5563279,24.506375 20.8477298,24.5371002 C23.423972,24.8100637 26.5086083,24.5236652 27.8019165,22.4013491 C28.8638446,20.6626306 28.3229695,18.259991 26.2804392,15.6347982 C26.1024735,15.4063453 25.8690556,15.1813972 25.6720089,14.9537037 Z M21.0521248,7.11247215 C23.6626387,6.83950864 25.5368982,7.29816678 26.1990517,8.38225188 C26.8593527,9.46464301 26.3455863,11.2333274 24.7879231,13.2329763 C24.6859108,13.3641133 24.5466628,13.4936147 24.4375492,13.6246349 C23.5258608,12.7438267 22.4678848,11.8938605 21.3238282,11.0762551 C21.1443805,9.69052572 20.8716891,8.39218207 20.5174249,7.20388835 C20.6922413,7.17993906 20.8807047,7.13052174 21.0521248,7.11247215 L21.0521248,7.11247215 Z M16.9454514,19.5066392 C16.0227096,20.0106257 15.0931753,20.4512927 14.1666667,20.8510122 C13.2401581,20.4512927 12.3106237,20.0106257 11.3878819,19.5066392 C10.4616203,19.000725 9.59044041,18.4571929 8.75847225,17.8955528 C8.66337606,16.9596613 8.60909713,15.978967 8.60909713,14.9537037 C8.60909713,13.9284404 8.66337606,12.9477461 8.75859575,12.0117377 C9.59056391,11.4500977 10.4616203,10.9066824 11.3878819,10.4007682 C12.3106237,9.89678168 13.2401581,9.4559979 14.1666667,9.05633681 C15.0931753,9.45605632 16.0227096,9.89678168 16.9454514,10.4007682 C17.871713,10.9066824 18.7427694,11.4500977 19.5747376,12.0117377 C19.6699573,12.9477461 19.7242362,13.9284404 19.7242362,14.9537037 C19.7242362,15.978967 19.6699573,16.9596613 19.5748611,17.8955528 C18.7428929,18.4571929 17.871713,19.000725 16.9454514,19.5066392 Z M19.2379489,20.2021032 C19.08703,20.976892 18.9043094,21.7040158 18.6967033,22.3825401 C17.9592756,22.2091706 17.2030757,21.9926924 16.4345255,21.7332807 C16.9142673,21.4986945 17.3958616,21.2844944 17.8717748,21.0245569 C18.347194,20.7649116 18.7837102,20.4776369 19.2379489,20.2021032 L19.2379489,20.2021032 Z M11.8988695,21.7332807 C11.1303194,21.992634 10.3741195,22.2091122 9.63669174,22.3825401 C9.42908564,21.703899 9.24636511,20.976892 9.09544622,20.2021032 C9.54962315,20.4776369 9.98620111,20.7647947 10.4616821,21.0246153 C10.9375335,21.2844944 11.419066,21.4987529 11.8988695,21.7332807 L11.8988695,21.7332807 Z M6.79306866,16.4562589 C6.18365029,15.9645974 5.61535793,15.4623049 5.09714544,14.9537037 C5.61535793,14.4451025 6.18365029,13.9428684 6.79306866,13.4511485 C6.76960337,13.944796 6.75657395,14.4456283 6.75657395,14.9537037 C6.75657395,15.4617792 6.76960337,15.9626114 6.79306866,16.4562589 Z M9.09538447,9.70530418 C9.24630336,8.93051541 9.42914739,8.20339157 9.63675349,7.52475043 C10.3741812,7.69811994 11.1302577,7.91471499 11.8988078,8.17406829 C11.419066,8.40865451 10.9374718,8.62285464 10.4615586,8.88279206 C9.98613936,9.14261267 9.54962315,9.42977051 9.09538447,9.70530418 Z M16.4344638,8.1741267 C17.2030139,7.9147734 17.9590904,7.69817835 18.6965181,7.52480885 C18.9041242,8.20344998 19.0869682,8.93057382 19.2378871,9.70536259 C18.7837102,9.42982892 18.3471322,9.14267108 17.8716513,8.88285048 C17.3957998,8.62291305 16.9142673,8.40865451 16.4344638,8.1741267 L16.4344638,8.1741267 Z M21.5402647,13.4511485 C22.149683,13.94281 22.7179754,14.4451025 23.2361879,14.9537037 C22.7179754,15.4623049 22.149683,15.964539 21.5402647,16.4562589 C21.56373,15.9626114 21.5767594,15.4617792 21.5767594,14.9537037 C21.5767594,14.4456283 21.56373,13.944796 21.5402647,13.4511485 Z M14.1666667,1.75238715 C15.5517365,1.75238715 17.0162178,3.32042318 18.0956831,5.87166522 C16.8210854,6.18055266 15.5004216,6.62729456 14.1666667,7.16264884 C12.8329117,6.62735297 11.512248,6.18055266 10.2376503,5.87166522 C11.3171155,3.32042318 12.7815968,1.75238715 14.1666667,1.75238715 Z M2.13428162,8.38225188 C2.66978432,7.50436433 4.003107,7.03460775 5.87915723,7.03460775 C6.31876098,7.03460775 6.78732584,7.06025101 7.28120852,7.11247215 C7.45262866,7.13052174 7.64109202,7.17993906 7.81590846,7.20394676 C7.46164428,8.39235731 7.18895286,9.69058413 7.00950512,11.0763135 C5.86557206,11.8939189 4.80747257,12.7440019 3.89578416,13.6248101 C3.78654704,13.49379 3.6473608,13.3641717 3.54541028,13.2330348 C1.98774704,11.2333274 1.47398061,9.46464301 2.13428162,8.38225188 L2.13428162,8.38225188 Z M7.28120852,22.7949353 C4.67248538,23.0704689 2.79643516,22.6092406 2.13428162,21.5251555 C1.47398061,20.4427644 1.98774704,18.67408 3.54541028,16.6744311 C3.64742255,16.5432941 3.7866088,16.4136759 3.89578416,16.2826557 C4.80747257,17.1634639 5.86557206,18.0135469 7.00950512,18.8311523 C7.18895286,20.2168817 7.46164428,21.5151085 7.81590846,22.7035191 C7.64109202,22.7274684 7.45262866,22.7768857 7.28120852,22.7949353 L7.28120852,22.7949353 Z M14.1666667,28.1550203 C12.7815968,28.1550203 11.3171155,26.5869842 10.2376503,24.0357422 C11.512248,23.7268547 12.8329117,23.2801128 14.1666667,22.7447586 C15.5004216,23.2800544 16.8210854,23.7268547 18.0956831,24.0357422 C17.0162178,26.5869842 15.5517365,28.1550203 14.1666667,28.1550203 Z M26.1990517,21.5251555 C25.5387507,22.609299 23.6572664,23.0704689 21.0521248,22.7949353 C20.8807047,22.7768857 20.6922413,22.7274684 20.5174249,22.7034606 C20.8716891,21.5151669 21.1443805,20.2168233 21.3238282,18.8310939 C22.4678848,18.0134885 23.5258608,17.1635223 24.4375492,16.2827141 C24.5466628,16.4137343 24.6859725,16.5432357 24.7879231,16.6743726 C26.3455863,18.67408 26.8593527,20.4427644 26.1990517,21.5251555 L26.1990517,21.5251555 Z" id="Shape"></path>
                    <circle id="Oval" cx="14.9537037" cy="14.9537037" r="2.36111111"></circle>
                </g>
            </g>
        </g>
    </g>
</svg>