<?xml version="1.0" encoding="UTF-8"?>
<svg width="34px" height="34px" viewBox="0 0 34 34" version="1.1" xmlns="http://www.w3.org/2000/svg" xmlns:xlink="http://www.w3.org/1999/xlink">
    <title>search</title>
    <g id="Page-1" stroke="none" stroke-width="1" fill="none" fill-rule="evenodd">
        <g id="novice-1" transform="translate(-19.000000, -18.000000)">
            <g id="search" transform="translate(19.000000, 18.000000)">
                <polygon id="Base" points="-3.95666295e-18 -1.21637127e-15 34.0000002 -1.21637127e-15 34.0000002 34.0000002 -3.95666295e-18 34.0000002"></polygon>
                <g id="Icon" transform="translate(4.250000, 4.250000)" fill="#444444" fill-rule="nonzero">
                    <path d="M17.7083335,15.5833334 L16.5891668,15.5833334 L16.1925,15.2008333 C17.5808335,13.5858334 18.4166668,11.4891667 18.4166668,9.20833335 C18.4166668,4.12250001 14.2941668,8.8817842e-16 9.20833335,8.8817842e-16 C4.12250001,8.8817842e-16 8.8817842e-16,4.12250001 8.8817842e-16,9.20833335 C8.8817842e-16,14.2941668 4.12250001,18.4166668 9.20833335,18.4166668 C11.4891667,18.4166668 13.5858334,17.5808335 15.2008333,16.1925 L15.5833334,16.5891668 L15.5833334,17.7083335 L22.6666668,24.7775002 L24.7775002,22.6666668 L17.7083335,15.5833334 L17.7083335,15.5833334 Z M9.20833335,15.5833334 C5.68083335,15.5833334 2.83333334,12.7358334 2.83333334,9.20833335 C2.83333334,5.68083335 5.68083335,2.83333334 9.20833335,2.83333334 C12.7358334,2.83333334 15.5833334,5.68083335 15.5833334,9.20833335 C15.5833334,12.7358334 12.7358334,15.5833334 9.20833335,15.5833334 L9.20833335,15.5833334 Z" id="path-1"></path>
                </g>
            </g>
        </g>
    </g>
</svg>