<?xml version="1.0" encoding="UTF-8"?>
<svg width="34px" height="34px" viewBox="0 0 34 34" version="1.1" xmlns="http://www.w3.org/2000/svg" xmlns:xlink="http://www.w3.org/1999/xlink">
    <title>novice-5</title>
    <g id="Page-1" stroke="none" stroke-width="1" fill="none" fill-rule="evenodd">
        <g id="novice-5" transform="translate(-17.000000, -17.000000)">
            <g transform="translate(17.000000, 17.000000)">
                <g id="business">
                    <polygon id="Base" points="0 0 34 0 34 34 0 34"></polygon>
                </g>
                <g id="ereader" transform="translate(3.578947, 0.000000)" fill="#000000" fill-rule="nonzero">
                    <g id="Group" transform="translate(0.000000, 0.000000)">
                        <path d="M27.286594,30.9775531 L27.286594,3.02220735 C27.286594,1.35310954 25.8680956,0 24.1183388,0 L3.16825519,0 C1.4184984,0 0,1.35310954 0,3.02220735 L0,30.9775531 C0,32.6466509 1.4184984,34 3.16825519,34 L24.1579079,34 C25.0091737,34.0071359 25.8259492,33.6791444 26.4153162,33.0930838 C27.0067299,32.537465 27.3233584,31.7686084 27.286594,30.9775531 Z M25.2629446,32.0353546 C24.9604316,32.3294334 24.545036,32.4931399 24.1127878,32.4888327 L3.09264817,32.4888327 C2.21646109,32.4888327 1.50621968,31.8121381 1.50621968,30.9775531 L1.50621968,3.02220735 C1.50621968,2.18762229 2.21646109,1.51110368 3.09264817,1.51110368 L24.0730853,1.51110368 C24.0998826,1.51073761 24.1266798,1.51073761 24.1534771,1.51110368 C25.0074217,1.53221777 25.6817563,2.20880869 25.6595138,3.02220735 L25.6595138,31.0153704 C25.69246,31.3944841 25.5472386,31.7681022 25.2629446,32.0353546 Z" id="Shape"></path>
                        <path d="M23.2619858,4.33607187 C23.2633921,4.31016831 23.2633921,4.28426475 23.2619858,4.2583612 C23.2400027,3.86228279 22.8937513,3.55853103 22.4885824,3.58002085 L4.35235075,3.58002085 C3.92519878,3.58002085 3.57894737,3.91850364 3.57894737,4.33607187 L3.57894737,26.97976 C3.57894737,27.3973282 3.92519878,27.735811 4.35235075,27.735811 L22.4886564,27.735811 C22.5151545,27.7371858 22.5416525,27.7371858 22.5681506,27.735811 C22.9733196,27.7143212 23.2840428,27.3758384 23.2620598,26.97976 L23.2620598,4.33607187 L23.2619858,4.33607187 Z M21.715253,26.223709 L5.12575414,26.223709 L5.12575414,5.09212288 L21.715253,5.09212288 L21.715253,26.223709 L21.715253,26.223709 Z" id="Shape"></path>
                        <path d="M15.3895376,29.5263158 L11.4526361,29.5263158 C11.0573019,29.5263158 10.7368421,29.926888 10.7368421,30.4210526 C10.7368421,30.9152173 11.0573019,31.3157895 11.4526361,31.3157895 L15.3894691,31.3157895 C15.7848033,31.3157895 16.1052632,30.9152173 16.1052632,30.4210526 C16.1053317,29.9269736 15.7848718,29.5263158 15.3895376,29.5263158 Z" id="Path"></path>
                        <path d="M7.90351387,11.6315789 L12.6754335,11.6315789 C13.0872402,11.6315789 13.4210526,11.2310067 13.4210526,10.7368421 C13.4210526,10.2426775 13.0872402,9.84210526 12.6754335,9.84210526 L7.90351387,9.84210526 C7.49170719,9.84210526 7.15789474,10.2426775 7.15789474,10.7368421 C7.15789474,11.2310067 7.49177855,11.6315789 7.90351387,11.6315789 Z" id="Path"></path>
                        <path d="M7.90351175,16.1052632 L17.1491198,16.1052632 C17.5609253,16.1052632 17.8947368,15.704691 17.8947368,15.2105263 C17.8947368,14.7163617 17.5609253,14.3157895 17.1491198,14.3157895 L7.90351175,14.3157895 C7.49170624,14.3157895 7.15789474,14.7163617 7.15789474,15.2105263 C7.15789474,15.704691 7.49177759,16.1052632 7.90351175,16.1052632 Z" id="Path"></path>
                        <path d="M7.90351175,21.4736842 L17.1491198,21.4736842 C17.5609253,21.4736842 17.8947368,21.073112 17.8947368,20.5789474 C17.8947368,20.0847827 17.5609253,19.6842105 17.1491198,19.6842105 L7.90351175,19.6842105 C7.49170624,19.6842105 7.15789474,20.0847827 7.15789474,20.5789474 C7.15789474,21.0730264 7.49177759,21.4736842 7.90351175,21.4736842 Z" id="Path"></path>
                    </g>
                </g>
            </g>
        </g>
    </g>
</svg>