<?xml version="1.0" encoding="UTF-8"?>
<svg width="34px" height="34px" viewBox="0 0 34 34" version="1.1" xmlns="http://www.w3.org/2000/svg" xmlns:xlink="http://www.w3.org/1999/xlink">
    <title>novice-12</title>
    <g id="Page-1" stroke="none" stroke-width="1" fill="none" fill-rule="evenodd">
        <g id="novice-12" transform="translate(-18.000000, -18.000000)">
            <g transform="translate(18.000000, 18.000000)">
                <g id="business">
                    <polygon id="Base" points="0 0 34 0 34 34 0 34"></polygon>
                </g>
                <g id="bell" transform="translate(0.894737, 0.000000)" fill="#444444" fill-rule="nonzero">
                    <path d="M16.1050267,0 C13.1451558,0 10.7368421,2.15855011 10.7368421,4.81145595 L10.7368421,6.26315789 L13.5134649,6.26315789 L13.5134649,4.81145595 C13.5134649,3.53063804 14.6764007,2.48866219 16.1050267,2.48866219 C17.5340468,2.48866219 18.6970615,3.5305674 18.6970615,4.81145595 L18.6970615,6.26315789 L21.4736842,6.26315789 L21.4736842,4.81145595 C21.4736842,2.15855011 19.0649764,0 16.1050267,0 Z" id="Path"></path>
                    <path d="M19.2053563,28.6315789 C19.2053563,30.3322003 17.8315077,31.7156897 16.143059,31.7156897 L16.0674674,31.7156897 C14.379083,31.7156897 13.00517,30.3322003 13.00517,28.6315789 L10.7368421,28.6315789 C10.7368421,31.5919751 13.1280868,34 16.0674674,34 L16.143059,34 C19.0824395,34 21.4736842,31.5919751 21.4736842,28.6315789 L19.2053563,28.6315789 Z" id="Path"></path>
                    <path d="M32.0151297,28.5901023 L28.5223785,23.3376404 L28.5223785,16.5956844 C28.5223785,9.91154859 22.9519,4.47368421 16.1052897,4.47368421 C9.25826063,4.47368421 3.68820088,9.91154859 3.68820088,16.5956844 L3.68820088,23.3376404 L0.195449709,28.5896975 C-0.0479952498,28.9553074 -0.0651648197,29.4204327 0.150362139,29.8018975 C0.365889099,30.1833624 0.779424472,30.4210526 1.22939284,30.4210526 L30.9812564,30.4210526 C31.4312247,30.4210526 31.8446903,30.1833624 32.0598683,29.8023023 C32.2757442,29.4208375 32.2585746,28.9557796 32.0151297,28.5901023 Z M3.48118891,28.0442176 L5.95151313,24.3292196 C6.0789588,24.13788 6.14700893,23.9144255 6.14700893,23.6866531 L6.14700893,16.5956844 C6.14700893,11.222387 10.6143077,6.85058668 16.1052897,6.85058668 C21.5966905,6.85058668 26.0635705,11.2224545 26.0635705,16.5956844 L26.0635705,23.6866531 C26.0635705,23.9144255 26.1312018,24.1374752 26.2586475,24.3292196 L28.7289717,28.0442176 L3.48118891,28.0442176 Z" id="Shape"></path>
                </g>
            </g>
        </g>
    </g>
</svg>