<?xml version="1.0" encoding="UTF-8"?>
<svg width="34px" height="34px" viewBox="0 0 34 34" version="1.1" xmlns="http://www.w3.org/2000/svg" xmlns:xlink="http://www.w3.org/1999/xlink">
    <title>Group</title>
    <g id="Page-1" stroke="none" stroke-width="1" fill="none" fill-rule="evenodd">
        <g id="novice-9" transform="translate(-19.000000, -19.000000)">
            <g id="business" transform="translate(19.000000, 19.000000)">
                <polygon id="Base" points="0 0 34.0000001 0 34.0000001 34.0000001 0 34.0000001"></polygon>
                <g id="Icon" transform="translate(2.833333, 2.833333)" fill="#444444" fill-rule="nonzero">
                    <path d="M14.1525001,-2.22044605e-15 C6.33250003,-2.22044605e-15 -2.22044605e-15,6.3466667 -2.22044605e-15,14.1666668 C-2.22044605e-15,21.9866668 6.33250003,28.3333335 14.1525001,28.3333335 C21.9866668,28.3333335 28.3333335,21.9866668 28.3333335,14.1666668 C28.3333335,6.3466667 21.9866668,-2.22044605e-15 14.1525001,-2.22044605e-15 L14.1525001,-2.22044605e-15 Z M23.9700001,8.50000007 L19.7908334,8.50000007 C19.3375001,6.7291667 18.6858334,5.02916669 17.8358334,3.45666668 C20.4425001,4.34916669 22.6100001,6.16250003 23.9700001,8.50000007 L23.9700001,8.50000007 Z M14.1666668,2.89000002 C15.3425001,4.59000002 16.2633334,6.4741667 16.8725001,8.50000007 L11.4608334,8.50000007 C12.0700001,6.4741667 12.9908334,4.59000002 14.1666668,2.89000002 L14.1666668,2.89000002 Z M3.20166668,17.0000001 C2.97500002,16.0933334 2.83333335,15.1441668 2.83333335,14.1666668 C2.83333335,13.1891668 2.97500002,12.2400001 3.20166668,11.3333334 L7.99000007,11.3333334 C7.87666667,12.2683334 7.79166667,13.2033334 7.79166667,14.1666668 C7.79166667,15.1300001 7.87666667,16.0650001 7.99000007,17.0000001 L3.20166668,17.0000001 L3.20166668,17.0000001 Z M4.36333335,19.8333334 L8.54250007,19.8333334 C8.99583337,21.6041668 9.64750007,23.3041668 10.4975001,24.8766668 C7.89083337,23.9841668 5.72333336,22.1850001 4.36333335,19.8333334 L4.36333335,19.8333334 Z M8.54250007,8.50000007 L4.36333335,8.50000007 C5.72333336,6.14833336 7.89083337,4.34916669 10.4975001,3.45666668 C9.64750007,5.02916669 8.99583337,6.7291667 8.54250007,8.50000007 L8.54250007,8.50000007 Z M14.1666668,25.4433335 C12.9908334,23.7433335 12.0700001,21.8591668 11.4608334,19.8333334 L16.8725001,19.8333334 C16.2633334,21.8591668 15.3425001,23.7433335 14.1666668,25.4433335 L14.1666668,25.4433335 Z M17.4816668,17.0000001 L10.8516667,17.0000001 C10.7241667,16.0650001 10.6250001,15.1300001 10.6250001,14.1666668 C10.6250001,13.2033334 10.7241667,12.2541668 10.8516667,11.3333334 L17.4816668,11.3333334 C17.6091668,12.2541668 17.7083334,13.2033334 17.7083334,14.1666668 C17.7083334,15.1300001 17.6091668,16.0650001 17.4816668,17.0000001 L17.4816668,17.0000001 Z M17.8358334,24.8766668 C18.6858334,23.3041668 19.3375001,21.6041668 19.7908334,19.8333334 L23.9700001,19.8333334 C22.6100001,22.1708335 20.4425001,23.9841668 17.8358334,24.8766668 L17.8358334,24.8766668 Z M20.3433335,17.0000001 C20.4566668,16.0650001 20.5416668,15.1300001 20.5416668,14.1666668 C20.5416668,13.2033334 20.4566668,12.2683334 20.3433335,11.3333334 L25.1316668,11.3333334 C25.3583335,12.2400001 25.5000001,13.1891668 25.5000001,14.1666668 C25.5000001,15.1441668 25.3583335,16.0933334 25.1316668,17.0000001 L20.3433335,17.0000001 L20.3433335,17.0000001 Z" id="path-1"></path>
                </g>
            </g>
        </g>
    </g>
</svg>