<?xml version="1.0" encoding="UTF-8"?>
<svg width="34px" height="34px" viewBox="0 0 34 34" version="1.1" xmlns="http://www.w3.org/2000/svg" xmlns:xlink="http://www.w3.org/1999/xlink">
    <title>novice-11</title>
    <g id="Page-1" stroke="none" stroke-width="1" fill="none" fill-rule="evenodd">
        <g id="novice-11" transform="translate(-17.000000, -17.000000)">
            <g transform="translate(17.000000, 17.000000)">
                <g id="business">
                    <polygon id="Base" points="0 0 34 0 34 34 0 34"></polygon>
                </g>
                <g id="presentation" transform="translate(0.894737, 2.684211)" fill="#000000" fill-rule="nonzero">
                    <g id="Group" transform="translate(0.000000, 0.000000)">
                        <path d="M29.2453453,0 L15.0945065,0 C13.4595529,0 12.1293254,1.35202147 12.1293254,3.01376152 L12.1293254,12.240128 L9.50180052,10.9120848 C9.41308594,10.8671256 9.32289684,10.8246642 9.23197055,10.7844507 C10.0033698,9.96594446 10.4788899,8.85695215 10.4788899,7.63681084 C10.4788899,5.12534287 8.46868092,3.08194961 5.99769676,3.08194961 C3.5264668,3.08194961 1.51625781,5.12534287 1.51625781,7.63681084 C1.51625781,9.00157076 2.11071936,10.2274569 3.04947219,11.0629477 C1.32064341,12.0515493 0,13.9800471 0,16.3691262 L0,19.4510758 C0,20.7778702 0.847580743,21.9070942 2.02151325,22.3084795 L2.02151325,27.6698578 C2.02151325,28.1993767 2.44395204,28.6289863 2.96518102,28.6289863 L9.02972091,28.6289863 C9.55094988,28.6289863 9.97338867,28.1993767 9.97338867,27.6698578 L9.97338867,16.8933999 L12.9946,18.428505 C14.1508388,19.0159712 15.7191949,18.6657894 16.4284202,17.3282547 L19.8118624,17.3282547 L16.2291196,27.3419058 C16.0509531,27.8397035 16.3038266,28.3902033 16.7936,28.571039 C17.3534112,28.7781008 17.8512943,28.4211752 18.00292,27.9975601 L21.8201053,17.3282547 L22.4816557,17.3282547 L26.3379147,28.0005573 C26.4843798,28.4054394 26.9785767,28.7830963 27.5492008,28.5700399 C28.038237,28.3874558 28.2893902,27.8364565 28.1095035,27.3391583 L24.4921104,17.3282547 L29.2453453,17.3282547 C30.8485974,17.3282547 32.2105263,16.0136992 32.2105263,14.3144932 L32.2105263,3.01376152 C32.2105263,1.31430579 30.8485974,0 29.2453453,0 L29.2453453,0 Z M3.40359333,7.63681084 C3.40359333,6.1828819 4.56720451,5.00020659 5.99745096,5.00020659 C7.42794315,5.00020659 8.59155432,6.1828819 8.59155432,7.63681084 C8.59155432,9.09048996 7.42794315,10.2731653 5.99745096,10.2731653 C4.56720451,10.2731653 3.40359333,9.09048996 3.40359333,7.63681084 Z M14.8155839,16.3026866 C14.8131264,16.3096802 14.8106689,16.3169237 14.8084572,16.3241671 C14.7440715,16.5067512 14.5985894,16.6606114 14.420423,16.7350437 C14.2319352,16.8129729 14.0198557,16.8047304 13.8387403,16.7128139 C12.0442971,15.800393 9.45142244,14.4838393 9.45142244,14.4838393 C8.82525956,14.1656284 8.08605315,14.6292072 8.08605315,15.3418097 L8.08605315,26.7107293 L3.90884878,26.7107293 L3.90884878,21.5057089 C3.90884878,20.97619 3.48616426,20.5465804 2.96518102,20.5465804 C2.37071952,20.5465804 1.88733553,20.0552768 1.88733553,19.4510758 L1.88733553,16.3691262 C1.88733553,14.0255057 3.76484118,12.1916721 5.99745096,12.1916721 L6.83126995,12.1916721 C7.46382221,12.1916721 8.09563729,12.342535 8.6601177,12.6290246 C8.6601177,12.6290246 13.3408573,14.9948749 14.532975,15.5983266 C14.788306,15.7272095 14.9097049,16.0299344 14.8155839,16.3026866 Z M30.3231908,14.3144932 C30.3231908,14.607477 30.211376,14.8824771 30.0078976,15.0892891 C29.807614,15.2931039 29.5296743,15.4099977 29.2453453,15.4099977 L16.6336188,15.4099977 C16.6318986,15.4047525 16.6306698,15.3995073 16.6289496,15.3945118 L18.9709167,10.6340874 C19.2038847,10.1602679 19.0151512,9.58429125 18.5489695,9.34725665 C18.0830335,9.1104718 17.5160956,9.3022975 17.2828819,9.77611695 L15.2854518,13.8361778 C14.9131454,13.6475991 14.4803852,13.4285482 14.016661,13.194261 L14.016661,3.01376152 C14.016661,2.40981033 14.500045,1.91825698 15.0945065,1.91825698 L29.2453453,1.91825698 C29.5296743,1.91825698 29.807614,2.03515076 30.0081434,2.23946515 C30.211376,2.44577765 30.3231908,2.72077775 30.3231908,3.01376152 L30.3231908,14.3144932 Z" id="Shape"></path>
                        <path d="M27.6461238,4.47368421 L17.0907183,4.47368421 C16.5464083,4.47368421 16.1052632,4.87421876 16.1052632,5.36842105 C16.1052632,5.86262334 16.5464083,6.26315789 17.0907183,6.26315789 L27.6461238,6.26315789 C28.1901772,6.26315789 28.6315789,5.86262334 28.6315789,5.36842105 C28.6315789,4.87421876 28.1904338,4.47368421 27.6461238,4.47368421 Z" id="Path"></path>
                        <path d="M27.7801123,8.05263158 L23.2198877,8.05263158 C22.7498071,8.05263158 22.3684211,8.45316613 22.3684211,8.94736842 C22.3684211,9.44157071 22.7498071,9.84210526 23.2198877,9.84210526 L27.7801123,9.84210526 C28.2501929,9.84210526 28.6315789,9.44157071 28.6315789,8.94736842 C28.6315789,8.45316613 28.2504146,8.05263158 27.7801123,8.05263158 Z" id="Path"></path>
                        <path d="M27.7801123,11.6315789 L23.2198877,11.6315789 C22.7498071,11.6315789 22.3684211,12.0321135 22.3684211,12.5263158 C22.3684211,13.0202851 22.7498071,13.4210526 23.2198877,13.4210526 L27.7801123,13.4210526 C28.2501929,13.4210526 28.6315789,13.0202851 28.6315789,12.5263158 C28.6315789,12.0321135 28.2504146,11.6315789 27.7801123,11.6315789 Z" id="Path"></path>
                    </g>
                </g>
            </g>
        </g>
    </g>
</svg>