<?xml version="1.0" encoding="UTF-8"?>
<svg width="34px" height="34px" viewBox="0 0 34 34" version="1.1" xmlns="http://www.w3.org/2000/svg" xmlns:xlink="http://www.w3.org/1999/xlink">
    <title>content_copy</title>
    <defs>
        <path d="M19.8333334,0 L2.83333335,0 C1.27500001,0 -1.77635684e-15,1.27500001 -1.77635684e-15,2.83333335 L-1.77635684e-15,22.6666668 L2.83333335,22.6666668 L2.83333335,2.83333335 L19.8333334,2.83333335 L19.8333334,0 L19.8333334,0 Z M24.0833334,5.66666669 L8.50000003,5.66666669 C6.9416667,5.66666669 5.66666669,6.9416667 5.66666669,8.50000004 L5.66666669,28.3333335 C5.66666669,29.8916668 6.9416667,31.1666667 8.50000003,31.1666667 L24.0833334,31.1666667 C25.6416667,31.1666667 26.9166668,29.8916668 26.9166668,28.3333335 L26.9166668,8.50000004 C26.9166668,6.9416667 25.6416667,5.66666669 24.0833334,5.66666669 L24.0833334,5.66666669 Z M24.0833334,28.3333335 L8.50000003,28.3333335 L8.50000003,8.50000004 L24.0833334,8.50000004 L24.0833334,28.3333335 L24.0833334,28.3333335 Z" id="path-1"></path>
    </defs>
    <g id="Page-1" stroke="none" stroke-width="1" fill="none" fill-rule="evenodd">
        <g id="novice-10" transform="translate(-17.000000, -17.000000)">
            <g id="content_copy" transform="translate(17.000000, 17.000000)">
                <polygon id="Base" points="-1.22410619e-15 1.20845795e-15 34.0000002 1.20845795e-15 34.0000002 34.0000002 -1.22410619e-15 34.0000002"></polygon>
                <g id="↳-🎨-Color-Clipped" transform="translate(2.833333, 1.416667)">
                    <mask id="mask-2" fill="white">
                        <use xlink:href="#path-1"></use>
                    </mask>
                    <g id="path-1"></g>
                    <rect id="↳-🎨-Color" fill="#444444" fill-rule="nonzero" mask="url(#mask-2)" x="-2.83333327" y="-1.4166666" width="34" height="34"></rect>
                </g>
            </g>
        </g>
    </g>
</svg>