<?xml version="1.0" encoding="UTF-8"?>
<svg width="34px" height="34px" viewBox="0 0 34 34" version="1.1" xmlns="http://www.w3.org/2000/svg" xmlns:xlink="http://www.w3.org/1999/xlink">
    <title>borrow</title>
    <g id="Page-1" stroke="none" stroke-width="1" fill="none" fill-rule="evenodd">
        <g id="novice-2" transform="translate(-18.000000, -18.000000)">
            <g id="borrow" transform="translate(18.000000, 18.000000)">
                <polygon id="Base" points="0 0 34.0000001 0 34.0000001 34.0000001 0 34.0000001"></polygon>
                <g id="open-book" transform="translate(2.833332, 7.083333)" fill="#444444" fill-rule="nonzero">
                    <path d="M27.7027912,2.43850119 C22.3614264,-0.654652099 19.6939333,-0.81732857 14.1666318,2.02012865 C8.6392473,-0.81732857 5.97175421,-0.654652099 0.630472434,2.43850119 C0.236518974,2.6660901 1.34010862e-06,3.04916695 1.34010862e-06,3.45927268 L1.34010862e-06,18.5986889 C-0.000716379604,19.0517102 0.286904509,19.4681418 0.748011014,19.6820007 C1.2088685,19.8955719 1.76817284,19.8719936 2.20288297,19.6206825 C6.87105715,16.9155661 8.71212786,16.9155661 13.380302,19.6206825 C13.3987297,19.6317528 13.4199796,19.6341969 13.4384072,19.6439733 C13.4568349,19.6538216 13.4766737,19.6709303 13.4979236,19.6820007 C13.547396,19.7003314 13.5980306,19.71629 13.6494952,19.7298763 C13.7009599,19.7501479 13.7540016,19.7673285 13.8081225,19.7814181 C13.8863986,19.7970891 13.9660027,19.8073687 14.0461049,19.8121131 C14.0871936,19.8121131 14.1254601,19.8268496 14.1665488,19.8268496 C14.1779208,19.8268496 14.1892098,19.8268496 14.201993,19.8268496 C14.2495562,19.8238304 14.2967875,19.8185109 14.3436867,19.810891 C14.4154052,19.804637 14.4864596,19.7935667 14.5561858,19.7777519 C14.6044132,19.7640937 14.6517274,19.7481352 14.6978796,19.7298763 C14.7417906,19.7139177 14.7885238,19.7053634 14.8310236,19.6857387 C14.8508624,19.6758904 14.8664678,19.6612258 14.8863066,19.6501555 C14.9061453,19.6390851 14.9288064,19.635419 14.9486452,19.6244205 C19.6168194,16.9193042 21.4578901,16.9193042 26.1260643,19.6244205 C26.7753487,20.0025373 27.6555599,19.8532315 28.0921792,19.2909445 C28.2509725,19.0864308 28.3349761,18.8452556 28.3333346,18.5987608 L28.3333346,3.45927268 C28.3333346,3.04916695 28.0966616,2.6660901 27.7027912,2.43850119 Z M12.7499433,16.5020099 C8.26214436,14.679789 7.32112367,14.679789 2.83332471,16.5020099 L2.83332471,4.13643237 C7.1993517,1.89001622 8.38391632,1.89001622 12.7499433,4.13643237 L12.7499433,16.5020099 Z M25.4998559,16.5020099 C21.0120569,14.679789 20.0710362,14.679789 15.5832373,16.5020099 L15.5832373,4.13643237 C19.9491813,1.89001622 21.1338289,1.89001622 25.4998559,4.13643237 L25.4998559,16.5020099 Z" id="Shape"></path>
                </g>
            </g>
        </g>
    </g>
</svg>