<?xml version="1.0" encoding="UTF-8"?>
<svg width="34px" height="34px" viewBox="0 0 34 34" version="1.1" xmlns="http://www.w3.org/2000/svg" xmlns:xlink="http://www.w3.org/1999/xlink">
    <title>business</title>
    <g id="Page-1" stroke="none" stroke-width="1" fill="none" fill-rule="evenodd">
        <g id="novice-6" transform="translate(-17.000000, -17.000000)">
            <g id="business" transform="translate(17.000000, 17.000000)">
                <polygon id="Base" points="0 0 34 0 34 34 0 34"></polygon>
                <g id="magazine" transform="translate(2.684211, 0.000000)" fill="#000000" fill-rule="nonzero">
                    <g id="Group" transform="translate(-0.000000, 0.000000)">
                        <path d="M27.6374154,2.98828709 L7.82744732,2.98828709 C7.38491198,1.27174858 5.82619609,0 3.97665421,0 C1.78392708,0 0,1.78739412 0,3.98438278 L0,29.0171309 L0,29.0332012 C0.00152438412,31.7719331 2.22652869,34 4.95994825,34 L25.649022,34 C26.1980654,34 26.6431856,33.5540148 26.6431856,33.0039043 L26.6431856,30.015418 L27.6374154,30.015418 C28.1864588,30.015418 28.6315789,29.5694328 28.6315789,29.0193223 L28.6315789,3.98438278 C28.6315789,3.43427233 28.1864588,2.98828709 27.6374154,2.98828709 L27.6374154,2.98828709 Z M3.97665421,1.99219139 C5.07301778,1.99219139 5.96498132,2.88588845 5.96498132,3.98438278 L5.96498132,25.5709718 C5.37955154,25.2307719 4.70073667,25.0349395 3.97665421,25.0349395 C3.2530357,25.0349395 2.57369061,25.2298422 1.98839338,25.5698429 L1.98832711,3.98438278 C1.98832711,2.88588845 2.88029065,1.99219139 3.97665421,1.99219139 Z M24.6548585,32.0078086 L4.95988197,32.0078086 C3.32222948,32.0078086 1.98925499,30.6729076 1.98832711,29.03267 L1.98832711,29.0178614 C1.98912244,27.9201639 2.88108598,27.0271309 3.97658794,27.0271309 C5.0729515,27.0271309 5.96491504,27.920828 5.96491504,29.0193223 C5.96491504,29.5694328 6.4100352,30.015418 6.9590786,30.015418 L24.6548585,30.015418 L24.6548585,32.0078086 L24.6548585,32.0078086 Z M26.6432518,28.0232266 L7.95330843,28.0232266 L7.95330843,4.98047848 L26.6432518,4.98047848 L26.6432518,28.0232266 Z" id="Shape"></path>
                        <path d="M10.8522866,25.0526316 L21.3582397,25.0526316 C21.9161292,25.0526316 22.3684211,24.6520281 22.3684211,24.1578947 C22.3684211,23.6637614 21.9161292,23.2631579 21.3582397,23.2631579 L10.8522866,23.2631579 C10.2943971,23.2631579 9.84210526,23.6637614 9.84210526,24.1578947 C9.84210526,24.6520281 10.2943971,25.0526316 10.8522866,25.0526316 Z" id="Path"></path>
                        <path d="M10.8094101,20.5789474 L23.1905899,20.5789474 C23.7248001,20.5789474 24.1578947,20.1783439 24.1578947,19.6842105 C24.1578947,19.1900772 23.7248001,18.7894737 23.1905899,18.7894737 L10.8094101,18.7894737 C10.2751999,18.7894737 9.84210526,19.1900772 9.84210526,19.6842105 C9.84210526,20.1783439 10.2751999,20.5789474 10.8094101,20.5789474 Z" id="Path"></path>
                        <path d="M23.1410713,15.2105263 L20.701034,15.2105263 C20.1394763,15.2105263 19.6842105,15.6111298 19.6842105,16.1052632 C19.6842105,16.5993965 20.1394763,17 20.701034,17 L23.1410713,17 C23.702629,17 24.1578947,16.5993965 24.1578947,16.1052632 C24.1578947,15.6111298 23.702629,15.2105263 23.1410713,15.2105263 Z" id="Path"></path>
                        <path d="M23.1410713,10.7368421 L20.701034,10.7368421 C20.1394763,10.7368421 19.6842105,11.1374456 19.6842105,11.6315789 C19.6842105,12.1257123 20.1394763,12.5263158 20.701034,12.5263158 L23.1410713,12.5263158 C23.702629,12.5263158 24.1578947,12.1257123 24.1578947,11.6315789 C24.1578947,11.1374456 23.702629,10.7368421 23.1410713,10.7368421 Z" id="Path"></path>
                        <path d="M10.8094101,8.94736842 L23.1905899,8.94736842 C23.7248001,8.94736842 24.1578947,8.54676491 24.1578947,8.05263158 C24.1578947,7.55849825 23.7248001,7.15789474 23.1905899,7.15789474 L10.8094101,7.15789474 C10.2751999,7.15789474 9.84210526,7.55849825 9.84210526,8.05263158 C9.84210526,8.54676491 10.2751999,8.94736842 10.8094101,8.94736842 Z" id="Path"></path>
                        <path d="M10.8007671,17 L16.936075,17 C17.465512,17 17.8947368,16.5326448 17.8947368,15.9561751 L17.8947368,11.780667 C17.8947368,11.2041973 17.465512,10.7368421 16.936075,10.7368421 L10.8007671,10.7368421 C10.2713301,10.7368421 9.84210526,11.2041973 9.84210526,11.780667 L9.84210526,15.9561751 C9.84210526,16.5326448 10.2713301,17 10.8007671,17 L10.8007671,17 Z M11.7594289,12.8244918 L15.9774132,12.8244918 L15.9774132,14.9123503 L11.7594289,14.9123503 L11.7594289,12.8244918 Z" id="Shape"></path>
                    </g>
                </g>
            </g>
        </g>
    </g>
</svg>