<?xml version="1.0" encoding="UTF-8"?>
<svg width="34px" height="34px" viewBox="0 0 34 34" version="1.1" xmlns="http://www.w3.org/2000/svg" xmlns:xlink="http://www.w3.org/1999/xlink">
    <title>patent</title>
    <g id="Page-1" stroke="none" stroke-width="1" fill="none" fill-rule="evenodd">
        <g id="novice-7" transform="translate(-19.000000, -19.000000)">
            <g id="patent" transform="translate(19.000000, 19.000000)">
                <polygon id="Base" points="8.88178364e-16 8.88178364e-16 34.0000001 8.88178364e-16 34.0000001 34.0000001 8.88178364e-16 34.0000001"></polygon>
                <path d="M17,2.83333333 C24.824034,2.83333333 31.1666667,9.17596604 31.1666667,17 C31.1666667,24.824034 24.824034,31.1666667 17,31.1666667 C9.17596604,31.1666667 2.83333333,24.824034 2.83333333,17 C2.83333333,9.17596604 9.17596604,2.83333333 17,2.83333333 Z M17,5.66666667 C10.7407728,5.66666667 5.66666667,10.7407728 5.66666667,17 C5.66666667,23.2592272 10.7407728,28.3333333 17,28.3333333 C23.2592272,28.3333333 28.3333333,23.2592272 28.3333333,17 C28.3333333,10.7407728 23.2592272,5.66666667 17,5.66666667 Z" id="Oval" fill="#444444" fill-rule="nonzero"></path>
                <path d="M14.1688864,25.2371419 L14.1688864,20.9857585 L18.2686361,20.9857585 C20.1363118,20.9525553 21.5557454,20.3548991 22.5269368,19.1927897 C23.4732259,18.0887858 23.9463704,16.8644206 23.9463704,15.519694 C23.9463704,14.5236003 23.7596029,13.660319 23.3860677,12.9298503 C23.0291341,12.1744792 22.5642904,11.5934245 21.9915365,11.1866862 C21.3108724,10.6471354 20.6385091,10.2902018 19.9744466,10.1158854 C19.3103841,9.98307292 18.6214193,9.91666667 17.9075521,9.91666667 L11.3333333,9.91666667 L11.3333333,25.2371419 L14.1688864,25.2371419 Z M18.1565755,18.3834635 L14.1706401,18.3834635 L14.1706401,12.5189616 L18.0569661,12.5189616 C18.8040365,12.50236 19.4597982,12.672526 20.0242513,13.0294596 C20.3977865,13.2452799 20.6883138,13.5399577 20.8958333,13.9134928 C21.0950521,14.3285319 21.1946615,14.8390299 21.1946615,15.444987 C21.1946615,16.1754557 20.9497884,16.8395182 20.4600423,17.4371745 C19.9453939,18.0514323 19.1775716,18.366862 18.1565755,18.3834635 Z" id="P" fill="#444444" fill-rule="nonzero"></path>
            </g>
        </g>
    </g>
</svg>