<?xml version="1.0" encoding="UTF-8"?>
<svg width="34px" height="34px" viewBox="0 0 34 34" version="1.1" xmlns="http://www.w3.org/2000/svg" xmlns:xlink="http://www.w3.org/1999/xlink">
    <title>business</title>
    <g id="Page-1" stroke="none" stroke-width="1" fill="none" fill-rule="evenodd">
        <g id="novice-4" transform="translate(-17.000000, -17.000000)">
            <g id="business" transform="translate(17.000000, 17.000000)">
                <polygon id="Base" points="0 0 34 0 34 34 0 34"></polygon>
                <g id="newspaper" transform="translate(1.789474, 1.789474)" fill="#000000" fill-rule="nonzero">
                    <g id="Group" transform="translate(0.000000, 0.000000)">
                        <path d="M30.3983347,6.61880643 L23.4256785,6.61880643 L23.4256785,0.954635543 C23.4256785,0.427422154 23.0149034,0 22.5082237,0 L0.91745477,0 C0.410775082,0 0,0.427422154 0,0.954635543 L0,25.6478749 C0,28.2798051 2.05785105,30.4210526 4.58727385,30.4210526 L26.7285156,30.4210526 C29.2579384,30.4210526 31.3157895,28.2798051 31.3157895,25.6478749 L31.3157895,7.57344197 C31.3157895,7.04622858 30.9050144,6.61880643 30.3983347,6.61880643 Z M4.58727385,28.5117815 C3.06962017,28.5117815 1.83490954,27.227033 1.83490954,25.6478749 L1.83490954,1.90927109 L21.5907689,1.90927109 C21.5907689,27.1413068 21.579209,25.7385017 21.6118092,26.098272 C21.6915666,26.9832828 22.0087613,27.8178251 22.5103644,28.5117815 L4.58727385,28.5117815 Z M29.4808799,25.6478749 C29.4808799,27.227033 28.2461693,28.5117815 26.7285156,28.5117815 C26.5226388,28.5117815 26.3801886,28.5117815 26.1780428,28.5117815 C24.6603891,28.5117815 23.4256785,27.227033 23.4256785,25.6478749 L23.4256785,8.52807752 L29.4808799,8.52807752 L29.4808799,25.6478749 Z" id="Shape"></path>
                        <path d="M18.7331123,4.47368421 L4.53004559,4.47368421 C4.00478574,4.47368421 3.57894737,4.87428772 3.57894737,5.36842105 C3.57894737,5.86255439 4.00478574,6.26315789 4.53004559,6.26315789 L18.7331123,6.26315789 C19.2583722,6.26315789 19.6842105,5.86255439 19.6842105,5.36842105 C19.6842105,4.87428772 19.2583722,4.47368421 18.7331123,4.47368421 Z" id="Path"></path>
                        <path d="M18.7331123,8.94736842 L4.53004559,8.94736842 C4.00478574,8.94736842 3.57894737,9.34797193 3.57894737,9.84210526 C3.57894737,10.3362386 4.00478574,10.7368421 4.53004559,10.7368421 L18.7331123,10.7368421 C19.2583722,10.7368421 19.6842105,10.3362386 19.6842105,9.84210526 C19.6842105,9.34797193 19.2583722,8.94736842 18.7331123,8.94736842 Z" id="Path"></path>
                        <path d="M18.7331123,24.1578947 L4.53004559,24.1578947 C4.00478574,24.1578947 3.57894737,24.5584982 3.57894737,25.0526316 C3.57894737,25.5467649 4.00478574,25.9473684 4.53004559,25.9473684 L18.7331123,25.9473684 C19.2583722,25.9473684 19.6842105,25.5467649 19.6842105,25.0526316 C19.6842105,24.5584982 19.2583722,24.1578947 18.7331123,24.1578947 Z" id="Path"></path>
                        <path d="M18.739066,12.5263158 L11.6819867,12.5263158 C11.1600148,12.5263158 10.7368421,12.9494885 10.7368421,13.4714603 L10.7368421,20.5285397 C10.7368421,21.0505115 11.1600148,21.4736842 11.6819867,21.4736842 L18.739066,21.4736842 C19.2610378,21.4736842 19.6842105,21.0505115 19.6842105,20.5285397 L19.6842105,13.4714603 C19.6842105,12.9494885 19.2610378,12.5263158 18.739066,12.5263158 Z M17.7939214,19.5833951 L12.6271312,19.5833951 L12.6271312,14.4166049 L17.7939214,14.4166049 L17.7939214,19.5833951 Z" id="Shape"></path>
                        <path d="M4.61133603,16.1052632 L7.91497976,16.1052632 C8.4851336,16.1052632 8.94736842,15.7046596 8.94736842,15.2105263 C8.94736842,14.716393 8.4851336,14.3157895 7.91497976,14.3157895 L4.61133603,14.3157895 C4.04118219,14.3157895 3.57894737,14.716393 3.57894737,15.2105263 C3.57894737,15.7046596 4.04118219,16.1052632 4.61133603,16.1052632 Z" id="Path"></path>
                        <path d="M4.61133603,20.5789474 L7.91497976,20.5789474 C8.4851336,20.5789474 8.94736842,20.1783439 8.94736842,19.6842105 C8.94736842,19.1900772 8.4851336,18.7894737 7.91497976,18.7894737 L4.61133603,18.7894737 C4.04118219,18.7894737 3.57894737,19.1900772 3.57894737,19.6842105 C3.57894737,20.1783439 4.04118219,20.5789474 4.61133603,20.5789474 Z" id="Path"></path>
                    </g>
                </g>
            </g>
        </g>
    </g>
</svg>