<?xml version="1.0" encoding="UTF-8"?>
<svg width="18px" height="18px" viewBox="0 0 18 18" version="1.1" xmlns="http://www.w3.org/2000/svg" xmlns:xlink="http://www.w3.org/1999/xlink">
    <title>overnight</title>
    <g id="Page-1" stroke="none" stroke-width="1" fill="none" fill-rule="evenodd">
        <g id="overnight" fill="#444444" fill-rule="nonzero">
            <circle id="Oval" cx="16.4179688" cy="1.58203125" r="1"></circle>
            <circle id="Oval" cx="17.4726562" cy="5.8359375" r="1"></circle>
            <path d="M9.03515625,18 C12.879,18 16.2897539,15.5155781 17.5226133,11.8705078 C17.5978125,11.6485664 17.5169531,11.4034219 17.3248594,11.2690195 C17.133293,11.1356367 16.8752813,11.1438633 16.6919414,11.291168 C15.555375,12.2073047 14.1839648,12.6914062 12.7265625,12.6914062 C9.23702344,12.6914062 6.36328125,9.85282031 6.36328125,6.36328125 C6.36328125,4.18130859 7.50617578,2.14491797 9.36217969,0.975375 C9.56095313,0.85021875 9.62996484,0.607675781 9.56457422,0.382113281 C9.49967578,0.156550781 9.27,0 9.03515625,0 C4.09183594,0 0,4.05667969 0,9 C0,13.9433203 4.09183594,18 9.03515625,18 Z" id="Path"></path>
            <path d="M10.0898438,4.25390625 C10.9622109,4.25390625 11.671875,4.96357031 11.671875,5.8359375 C11.671875,6.12741797 11.9077383,6.36328125 12.1992188,6.36328125 C12.4906992,6.36328125 12.7265625,6.12741797 12.7265625,5.8359375 C12.7265625,4.96357031 13.4362266,4.25390625 14.3085938,4.25390625 C14.6000742,4.25390625 14.8359375,4.01804297 14.8359375,3.7265625 C14.8359375,3.43508203 14.6000742,3.19921875 14.3085938,3.19921875 C13.4362266,3.19921875 12.7265625,2.45439844 12.7265625,1.58203125 C12.7265625,1.29055078 12.4906992,1.0546875 12.1992188,1.0546875 C11.9077383,1.0546875 11.671875,1.29055078 11.671875,1.58203125 C11.671875,2.45439844 10.9622109,3.19921875 10.0898438,3.19921875 C9.79836328,3.19921875 9.5625,3.43508203 9.5625,3.7265625 C9.5625,4.01804297 9.79836328,4.25390625 10.0898438,4.25390625 Z" id="Path"></path>
        </g>
    </g>
</svg>