<?xml version="1.0" encoding="UTF-8"?>
<svg width="24px" height="96px" viewBox="0 0 24 96" version="1.1" xmlns="http://www.w3.org/2000/svg" xmlns:xlink="http://www.w3.org/1999/xlink">
    <title>Group</title>
    <defs>
        <path d="M16.5900001,6.00000005 L18.0000001,7.41000006 L13.42,12 L18.0000001,16.5900001 L16.5900001,18 L10.59,12 L16.5900001,6.00000005 Z M8.00000005,6.00000008 L8.00000005,18.0000001 L6.00000005,18.0000001 L6.00000005,6.00000008 L8.00000005,6.00000008 Z" id="path-1"></path>
        <polygon id="path-3" points="10 6.00000002 8.59000004 7.41000003 13.1700001 12 8.59000004 16.5900001 10 18.0000001 16.0000001 12"></polygon>
        <polygon id="path-5" points="10 6.00000002 8.59000004 7.41000003 13.1700001 12 8.59000004 16.5900001 10 18.0000001 16.0000001 12"></polygon>
        <path d="M16.5900001,6.00000005 L18.0000001,7.41000006 L13.42,12 L18.0000001,16.5900001 L16.5900001,18 L10.59,12 L16.5900001,6.00000005 Z M8.00000005,6.00000008 L8.00000005,18.0000001 L6.00000005,18.0000001 L6.00000005,6.00000008 L8.00000005,6.00000008 Z" id="path-7"></path>
    </defs>
    <g id="Page-1" stroke="none" stroke-width="1" fill="none" fill-rule="evenodd">
        <g id="Group" transform="translate(-0.000000, -0.000000)">
            <g id="navigate_next">
                <polygon id="Base" points="1.13686838e-13 0 24.0000001 0 24.0000001 24.0000001 1.13686838e-13 24.0000001"></polygon>
                <mask id="mask-2" fill="white">
                    <use xlink:href="#path-1"></use>
                </mask>
                <g id="Icon-2"></g>
                <rect id="↳-🎨-Color" fill="#444444" mask="url(#mask-2)" x="5.00000397e-08" y="4.9999926e-08" width="24" height="24"></rect>
            </g>
            <g id="navigate_next" transform="translate(0.000000, 24.000000)">
                <polygon id="Base" points="1.13686838e-13 0 24.0000001 0 24.0000001 24.0000001 1.13686838e-13 24.0000001"></polygon>
                <mask id="mask-4" fill="white">
                    <use xlink:href="#path-3"></use>
                </mask>
                <g id="Icon" transform="translate(12.295000, 12.000000) scale(-1, 1) translate(-12.295000, -12.000000) "></g>
                <rect id="↳-🎨-Color" fill="#444444" mask="url(#mask-4)" x="5.00000397e-08" y="4.9999926e-08" width="24" height="24"></rect>
            </g>
            <g id="navigate_next" transform="translate(0.000000, 48.000000)">
                <polygon id="Base" points="0 0 24.0000001 0 24.0000001 24.0000001 0 24.0000001"></polygon>
                <mask id="mask-6" fill="white">
                    <use xlink:href="#path-5"></use>
                </mask>
                <g id="Icon"></g>
                <rect id="↳-🎨-Color" fill="#444444" mask="url(#mask-6)" x="5.00000397e-08" y="4.9999926e-08" width="24" height="24"></rect>
            </g>
            <g id="navigate_next" transform="translate(0.000000, 72.000000)">
                <polygon id="Base" points="1.13686838e-13 0 24.0000001 0 24.0000001 24.0000001 1.13686838e-13 24.0000001"></polygon>
                <mask id="mask-8" fill="white">
                    <use xlink:href="#path-7"></use>
                </mask>
                <g id="Icon-2" transform="translate(12.000000, 12.000000) scale(-1, 1) translate(-12.000000, -12.000000) "></g>
                <rect id="↳-🎨-Color" fill="#444444" mask="url(#mask-8)" x="5.00000397e-08" y="4.9999926e-08" width="24" height="24"></rect>
            </g>
        </g>
    </g>
</svg>