<?xml version="1.0" encoding="UTF-8"?>
<svg width="24px" height="24px" viewBox="0 0 24 24" version="1.1" xmlns="http://www.w3.org/2000/svg" xmlns:xlink="http://www.w3.org/1999/xlink">
    <title>Icon/24x24/pin</title>
    <g id="Page-1" stroke="none" stroke-width="1" fill="none" fill-rule="evenodd">
        <g id="Icon/24x24/pin" fill="#F5DF4D" fill-rule="nonzero">
            <g id="pin">
                <path d="M23.7985679,9.88282496 L22.5569758,11.1253898 C21.2338027,12.4477061 19.1773156,12.7382949 17.5438591,11.8371947 L15.4456648,13.9354839 C15.440165,13.924942 15.4351234,13.9139418 15.4296236,13.9033999 C14.65309,12.3485209 13.8019418,11.6243408 12.4326615,10.2549986 C11.5688178,9.39111579 10.507071,8.73976615 10.0645161,8.55546688 L12.163627,6.45626106 C11.2621093,4.82456397 11.5522266,2.76660892 12.8749415,1.44337591 L14.1174501,0.201269415 C14.3860263,-0.067318927 14.8214314,-0.0668605852 15.0895493,0.201269415 L23.7985679,8.91068183 C24.067144,9.17927017 24.067144,9.61469496 23.7985679,9.88282496 Z" id="Path"></path>
                <path d="M5.41935484,19.6318067 L1.26941406,23.7819373 C1.12421073,23.9271472 0.933910127,24 0.743609523,24 C0.553308918,24 0.363008314,23.9271472 0.217804988,23.7819373 C-0.0726016628,23.4915173 -0.0726016628,23.0211956 0.217804988,22.7307757 L4.36824134,18.5806452 L5.41935484,19.6318067 Z" id="Path"></path>
                <path d="M14.7096774,18.3415023 C14.708745,20.3635414 13.934956,22.3097906 12.4498985,23.795475 C12.1783707,24.0669384 11.7355995,24.0694088 11.460575,23.795475 L0.204572702,12.5416749 C-0.0676078116,12.2695589 -0.0687733671,11.8263333 0.204572702,11.553052 C2.55479875,9.20338308 6.13072294,8.62027739 9.10288938,10.1025125 C10.4522296,10.7761837 11.0516981,11.4901269 12.4498985,12.8875297 C13.9071225,14.3444083 14.7096774,16.2967637 14.7096774,18.3415023 L14.7096774,18.3415023 Z" id="Path"></path>
            </g>
        </g>
    </g>
</svg>