<?xml version="1.0" encoding="UTF-8"?>
<svg width="26.0001736px" height="27px" viewBox="0 0 26.0001736 27" version="1.1" xmlns="http://www.w3.org/2000/svg" xmlns:xlink="http://www.w3.org/1999/xlink">
    <title>resource-icon-video</title>
    <defs>
        <polygon id="path-1" points="0 0 26 0 26 7 0 7"></polygon>
    </defs>
    <g id="Page-1" stroke="none" stroke-width="1" fill="none" fill-rule="evenodd">
        <g id="resource-icon-video" transform="translate(-1.9998, -2)">
            <rect id="Rectangle" x="0" y="0" width="30" height="30"></rect>
            <g id="Group-3" transform="translate(1.9998, 2)">
                <path d="M13.0000868,1.7276476 C9.64305988,1.7276476 6.28487535,1.7276476 2.92784841,1.7276476 C2.09785244,1.7276476 1.73436745,2.08519799 1.73436745,2.90295033 C1.73436745,7.30082012 1.73436745,11.6986899 1.73436745,16.0965597 C1.73436745,16.9027781 2.10132522,17.2718624 2.90122371,17.2718624 C9.63379912,17.2730158 16.3663745,17.2730158 23.1001075,17.2718624 C23.8988484,17.2718624 24.2669638,16.9016248 24.2669638,16.0965597 C24.2669638,11.6986899 24.2669638,7.30082012 24.2669638,2.90295033 C24.2669638,2.09673187 23.900006,1.7276476 23.0989499,1.7276476 C19.7326622,1.7276476 16.3663745,1.7276476 13.0000868,1.7276476" id="Path" fill="#FFFFFF"></path>
                <path d="M13.0000868,1.7276476 C9.64305988,1.7276476 6.28487535,1.7276476 2.92784841,1.7276476 C2.09785244,1.7276476 1.73436745,2.08519799 1.73436745,2.90295033 C1.73436745,7.30082012 1.73436745,11.6986899 1.73436745,16.0965597 C1.73436745,16.9027781 2.10132522,17.2718624 2.90122371,17.2718624 C9.63379912,17.2730158 16.3663745,17.2730158 23.1001075,17.2718624 C23.8988484,17.2718624 24.2669638,16.9016248 24.2669638,16.0965597 C24.2669638,11.6986899 24.2669638,7.30082012 24.2669638,2.90295033 C24.2669638,2.09673187 23.900006,1.7276476 23.0989499,1.7276476 C19.7326622,1.7276476 16.3663745,1.7276476 13.0000868,1.7276476 M23.1001075,0.00102523409 C24.8492343,0.00102523409 25.9998842,1.14633987 25.9998842,2.88795628 C25.9998842,7.32273449 26.0010418,11.7563593 25.9987266,16.1911375 C25.9987266,17.5256079 25.2092465,18.5798048 23.9578858,18.9050603 C23.7090028,18.9696501 23.4415982,18.996178 23.1834544,18.996178 C16.3953144,19.0007916 9.60717442,19.0007916 2.81903443,18.9984848 C1.17987921,18.9984848 0.00376218536,17.8254888 0.00260458987,16.1922909 C-0.000868196622,11.7309848 -0.000868196622,7.26967863 0.00260458987,2.80837248 C0.00260458987,1.17402119 1.17872161,0.0033320108 2.81787684,0.00102523409 C6.21194683,-0.00128154261 9.60601683,0.00102523409 13.0000868,0.00102523409 C16.3663745,0.00102523409 19.7338198,0 23.1001075,0.00102523409 Z" id="Fill-1" fill="#C2BFB5"></path>
            </g>
            <g id="Group-6" transform="translate(2, 22)">
                <mask id="mask-2" fill="white">
                    <use xlink:href="#path-1"></use>
                </mask>
                <g id="Clip-5"></g>
                <circle id="Oval" fill="#FFFFFF" mask="url(#mask-2)" cx="18.5" cy="3.5" r="2.5"></circle>
                <path d="M17.2980202,3.50061922 C17.299227,4.33969603 17.9016863,5.00374249 18.6571702,5.00107831 C19.3885558,4.99706194 20.0042692,4.30896551 19.9970397,3.50195533 C19.9910151,2.66688685 19.3777115,1.99615984 18.6294571,2.00284039 C17.8896371,2.00952094 17.2968172,2.6749035 17.2980202,3.50061922 M21.6610322,2.50120926 C22.7972705,2.50120926 23.9238693,2.49853704 25.0516731,2.50120926 C25.5806324,2.50388148 25.9746408,2.8980338 25.9987391,3.43514985 C26.0252473,4.04441582 25.631239,4.49735696 25.0564928,4.50002918 C24.0226727,4.50537362 22.9900574,4.50804584 21.9562373,4.49602085 C21.7429667,4.49334863 21.6333191,4.5441208 21.5489748,4.78862885 C21.0766467,6.14344396 19.9151052,7.00790685 18.6174079,6.99994547 C17.3389893,6.99053743 16.1846773,6.11271344 15.7268082,4.76992332 C15.6448738,4.5307597 15.5340213,4.49735696 15.3352097,4.49735696 C10.5914453,4.5027014 5.84888572,4.50136529 1.10512127,4.50136529 C0.983424494,4.50136529 0.85931788,4.50804584 0.740030941,4.48399587 C0.285776636,4.39180431 -0.0323218693,3.92550207 0.00262076951,3.42045265 C0.0375634083,2.92742821 0.400243901,2.534612 0.854498206,2.50254537 C0.948481855,2.49720093 1.0424655,2.50120926 1.13644915,2.50120926 C5.87057425,2.50120926 10.6034944,2.49987315 15.3376195,2.50388148 C15.5183573,2.50388148 15.6352344,2.49052038 15.7147591,2.2553651 C16.1810625,0.87516391 17.3389893,-0.00266007925 18.645121,6.05613197e-06 C19.9524577,0.00268435904 21.1007451,0.888525006 21.5778929,2.26204565 C21.6044011,2.33820389 21.6321142,2.41569825 21.6610322,2.50120926" id="Fill-4" fill="#C2BFB5" mask="url(#mask-2)"></path>
            </g>
            <path d="M17.396994,10.9984629 C15.8505781,10.1013512 14.3449837,9.22761339 12.8201791,8.34274513 L12.8201791,13.6552938 C14.3533881,12.7659734 15.85418,11.8944616 17.396994,10.9984629 M11.00242,10.9928977 C11.00242,9.64723016 11.0072226,8.30267563 11.0000093,6.95812109 C10.9988181,6.59081729 11.1116777,6.29029599 11.4706671,6.10553105 C11.8296565,5.91965306 12.1634326,5.99867903 12.4984094,6.19234831 C14.8264377,7.54692022 17.1592686,8.89370084 19.4896982,10.2460467 C20.1632536,10.6367244 20.1728587,11.3512972 19.5017045,11.7419749 C17.1508642,13.1110163 14.7940206,14.4722665 12.4395783,15.8379688 C12.1202098,16.0227338 11.7924369,16.0639163 11.4586608,15.8858296 C11.1272859,15.708856 11.0000093,15.4283694 11.0012194,15.0788743 C11.0060219,13.7165111 11.00242,12.3541479 11.00242,10.9928977" id="Fill-7" fill="#C2BFB5"></path>
        </g>
    </g>
</svg>