<?xml version="1.0" encoding="UTF-8"?>
<svg width="23px" height="30px" viewBox="0 0 23 30" version="1.1" xmlns="http://www.w3.org/2000/svg" xmlns:xlink="http://www.w3.org/1999/xlink">
    <title>resource-icon-article</title>
    <g id="Page-1" stroke="none" stroke-width="1" fill="none" fill-rule="evenodd">
        <g id="resource-icon-article" transform="translate(-3, 0)">
            <rect id="Rectangle" x="0" y="0" width="30" height="30"></rect>
            <path d="M22.7564103,28.2421875 L6.24358974,28.2421875 C5.43062821,28.2421875 4.76923077,27.5850586 4.76923077,26.7773438 L4.76923077,3.22265625 C4.76923077,2.41494141 5.43062821,1.7578125 6.24358974,1.7578125 L16.8,1.7578125 L16.8,6.73828125 C16.8,7.86908203 17.7259564,8.7890625 18.8641026,8.7890625 L24.2307692,8.7890625 L24.2307692,26.7773438 C24.2307692,27.5850586 23.5693718,28.2421875 22.7564103,28.2421875 Z" id="Path" fill="#FFFFFF" fill-rule="nonzero"></path>
            <path d="M24.9855231,6.22664062 L19.2990385,0.881601562 C18.6941974,0.313066406 17.9025256,0 17.0699256,0 L6.24358974,0 C4.45507436,0 3,1.44568359 3,3.22265625 L3,26.7773438 C3,28.5543164 4.45507436,30 6.24358974,30 L22.7564103,30 C24.5449256,30 26,28.5543164 26,26.7773438 L26,8.56769531 C26,7.68591797 25.6302308,6.83261719 24.9855231,6.22664062 Z M23.2671872,7.03125 L18.8641026,7.03125 C18.7015103,7.03125 18.5692308,6.89982422 18.5692308,6.73828125 L18.5692308,2.61539062 L23.2671872,7.03125 Z M22.7564103,28.2421875 L6.24358974,28.2421875 C5.43062821,28.2421875 4.76923077,27.5850586 4.76923077,26.7773438 L4.76923077,3.22265625 C4.76923077,2.41494141 5.43062821,1.7578125 6.24358974,1.7578125 L16.8,1.7578125 L16.8,6.73828125 C16.8,7.86908203 17.7259564,8.7890625 18.8641026,8.7890625 L24.2307692,8.7890625 L24.2307692,26.7773438 C24.2307692,27.5850586 23.5693718,28.2421875 22.7564103,28.2421875 Z" id="Shape" fill="#C2BFB5" fill-rule="nonzero"></path>
            <path d="M21.1,11 L7.9,11 C7.40296,11 7,11.4477333 7,12 C7,12.5522667 7.40296,13 7.9,13 L21.1,13 C21.59704,13 22,12.5522667 22,12 C22,11.4477333 21.59704,11 21.1,11 Z" id="Path" fill="#C2BFB5" fill-rule="nonzero"></path>
            <path d="M21.1,15 L7.9,15 C7.40296,15 7,15.4477333 7,16 C7,16.5522667 7.40296,17 7.9,17 L21.1,17 C21.59704,17 22,16.5522667 22,16 C22,15.4477333 21.59704,15 21.1,15 Z" id="Path" fill="#C2BFB5" fill-rule="nonzero"></path>
            <path d="M21.3,19.6583332 C21.8522847,19.6583332 22.3,20.1060485 22.3,20.6583332 L22.3,25.6583332 C22.3,26.210618 21.8522847,26.6583332 21.3,26.6583332 L8.3,26.6583332 C7.74771525,26.6583332 7.3,26.210618 7.3,25.6583332 L7.3,20.6583332 C7.3,20.1060485 7.74771525,19.6583332 8.3,19.6583332 L21.3,19.6583332 Z M20.7,21.2583332 L8.9,21.2583332 L8.9,25.0583332 L20.7,25.0583332 L20.7,21.2583332 Z" id="Rectangle" fill="#C2BFB5" fill-rule="nonzero"></path>
            <rect id="Rectangle" fill="#C2BFB5" x="7" y="7" width="8" height="2" rx="1"></rect>
        </g>
    </g>
</svg>