<?xml version="1.0" encoding="UTF-8"?>
<svg width="26px" height="30px" viewBox="0 0 26 30" version="1.1" xmlns="http://www.w3.org/2000/svg" xmlns:xlink="http://www.w3.org/1999/xlink">
    <title>resource-icon-report</title>
    <g id="Page-1" stroke="none" stroke-width="1" fill="none" fill-rule="evenodd">
        <g id="resource-icon-report" transform="translate(-2, 0)">
            <rect id="Rectangle" x="0" y="0" width="30" height="30"></rect>
            <rect id="Rectangle" fill="#FFFFFF" x="6" y="4" width="22" height="26" rx="3"></rect>
            <path d="M25,4 C26.6568542,4 28,5.34314575 28,7 L28,27 C28,28.6568542 26.6568542,30 25,30 L9,30 C7.34314575,30 6,28.6568542 6,27 L6,7 C6,5.34314575 7.34314575,4 9,4 L25,4 Z M25,5.6 L9,5.6 C8.22680135,5.6 7.6,6.22680135 7.6,7 L7.6,27 C7.6,27.7731986 8.22680135,28.4 9,28.4 L25,28.4 C25.7731986,28.4 26.4,27.7731986 26.4,27 L26.4,7 C26.4,6.22680135 25.7731986,5.6 25,5.6 Z" id="Rectangle" fill="#C2BFB5" fill-rule="nonzero"></path>
            <rect id="Rectangle" fill="#FFFFFF" x="2" y="0" width="23" height="27" rx="3"></rect>
            <path d="M22,0 C23.6568542,0 25,1.34314575 25,3 L25,24 C25,25.6568542 23.6568542,27 22,27 L5,27 C3.34314575,27 2,25.6568542 2,24 L2,3 C2,1.34314575 3.34314575,0 5,0 L22,0 Z M22,1.6 L5,1.6 C4.22680135,1.6 3.6,2.22680135 3.6,3 L3.6,24 C3.6,24.7731986 4.22680135,25.4 5,25.4 L22,25.4 C22.7731986,25.4 23.4,24.7731986 23.4,24 L23.4,3 C23.4,2.22680135 22.7731986,1.6 22,1.6 Z" id="Rectangle" fill="#C2BFB5" fill-rule="nonzero"></path>
            <g id="pie-chart-(1)" transform="translate(5, 5)" fill="#C2BFB5" fill-rule="nonzero">
                <path d="M16,6 L14,6 C13.448,6 13,5.552 13,5 C13,4.448 13.448,4 14,4 L16,4 C16.552,4 17,4.448 17,5 C17,5.552 16.552,6 16,6 Z" id="Path"></path>
                <path d="M16,2 L14,2 C13.448,2 13,1.552 13,1 C13,0.448 13.448,0 14,0 L16,0 C16.552,0 17,0.448 17,1 C17,1.552 16.552,2 16,2 Z" id="Path"></path>
                <path d="M16,10 L14,10 C13.448,10 13,9.552 13,9 C13,8.448 13.448,8 14,8 L16,8 C16.552,8 17,8.448 17,9 C17,9.552 16.552,10 16,10 Z" id="Path"></path>
                <path d="M16,14 L14,14 C13.448,14 13,13.552 13,13 C13,12.448 13.448,12 14,12 L16,12 C16.552,12 17,12.448 17,13 C17,13.552 16.552,14 16,14 Z" id="Path"></path>
                <path d="M16.1428571,18 L1.85714286,18 C1.384,18 1,17.552 1,17 C1,16.448 1.384,16 1.85714286,16 L16.1428571,16 C16.616,16 17,16.448 17,17 C17,17.552 16.616,18 16.1428571,18 Z" id="Path"></path>
                <path d="M6,12 C2.6916,12 0,9.3084 0,6 C0,2.6916 2.6916,0 6,0 C9.3084,0 12,2.6916 12,6 C12,9.3084 9.3084,12 6,12 Z M6,1.8 C3.684,1.8 1.8,3.684 1.8,6 C1.8,8.316 3.684,10.2 6,10.2 C8.316,10.2 10.2,8.316 10.2,6 C10.2,3.684 8.316,1.8 6,1.8 Z" id="Shape"></path>
                <path d="M2.89645483,10 C2.66688587,10 2.43731691,9.91342505 2.26274885,9.73908918 C1.91241705,9.39160342 1.91241705,8.82827324 2.26274885,8.48078748 L5.2064925,5.56095825 L5.2064925,0.889468691 C5.2064925,0.398481973 5.60823818,0 6.10324625,0 C6.59825432,0 7,0.398481973 7,0.889468691 L7,5.92979127 C7,6.16579696 6.90554194,6.39231499 6.73695223,6.55834915 L3.53016082,9.73908918 C3.35559275,9.91342505 3.12602379,10 2.89645483,10 Z" id="Path"></path>
            </g>
        </g>
    </g>
</svg>