<?xml version="1.0" encoding="UTF-8"?>
<svg width="24px" height="24px" viewBox="0 0 24 24" version="1.1" xmlns="http://www.w3.org/2000/svg" xmlns:xlink="http://www.w3.org/1999/xlink">
    <title>success</title>
    <defs>
        <path d="M12,2.00000001 C6.48000003,2.00000001 2.00000001,6.48000003 2.00000001,12 C2.00000001,17.5200001 6.48000003,22 12,22 C17.5200001,22 22,17.5200001 22,12 C22,6.48000003 17.5200001,2.00000001 12,2.00000001 L12,2.00000001 Z M10,17.0000001 L5.00000002,12.0000001 L6.41000003,10.59 L10,14.1700001 L17.5900001,6.58000003 L19,8.00000003 L10,17.0000001 L10,17.0000001 Z" id="path-1"></path>
    </defs>
    <g id="Page-1" stroke="none" stroke-width="1" fill="none" fill-rule="evenodd">
        <g id="success" transform="translate(-0.000000, -0.000000)">
            <polygon id="Base" points="0 0 24.0000001 0 24.0000001 24.0000001 0 24.0000001"></polygon>
            <mask id="mask-2" fill="white">
                <use xlink:href="#path-1"></use>
            </mask>
            <g id="Icon" fill-rule="nonzero"></g>
            <rect id="↳-🎨-Color" fill="#6DD400" mask="url(#mask-2)" x="5.00000397e-08" y="5.00000397e-08" width="24" height="24"></rect>
        </g>
    </g>
</svg>