<?xml version="1.0" encoding="UTF-8"?>
<svg width="16px" height="16px" viewBox="0 0 16 16" version="1.1" xmlns="http://www.w3.org/2000/svg" xmlns:xlink="http://www.w3.org/1999/xlink">
    <title>Group</title>
    <g id="Page-1" stroke="none" stroke-width="1" fill="none" fill-rule="evenodd">
        <g id="Group">
            <rect id="Rectangle" x="0" y="0" width="16" height="16"></rect>
            <g id="edit-(1)" transform="translate(0.000000, 0.000000)" fill="#007BD8" fill-rule="nonzero">
                <path d="M13.1272727,6.14973737 C12.7452,6.14973737 12.4363636,6.45926464 12.4363636,6.84064646 L12.4363636,12.8224646 C12.4363636,13.2031556 12.1268364,13.5133737 11.7454545,13.5133737 L2.07272727,13.5133737 C1.69134545,13.5133737 1.38181818,13.2031556 1.38181818,12.8224646 L1.38181818,2.69519192 C1.38181818,2.31450101 1.69134545,2.00428283 2.07272727,2.00428283 L9.78181818,2.00428283 C10.1638909,2.00428283 10.4727273,1.69475555 10.4727273,1.31337374 C10.4727273,0.931991917 10.1638909,0.622464644 9.78181818,0.622464644 L2.07272727,0.622464644 C0.929963636,0.622464644 0,1.55242828 0,2.69519192 L0,13.8224646 C0,14.9652283 0.929963636,15.8951919 2.07272727,15.8951919 L11.7454545,15.8951919 C12.8882182,15.8951919 13.8181818,14.9652283 13.8181818,13.8224646 L13.8181818,6.84064646 C13.8181818,6.45857374 13.5093455,6.14973737 13.1272727,6.14973737 Z" id="Path"></path>
                <path d="M7.74861907,6.17583429 C7.70960024,6.21485551 7.68340188,6.2644682 7.67225364,6.31798301 L7.27816345,8.28911195 C7.25976886,8.38053309 7.28875428,8.47474146 7.35452888,8.54107753 C7.407483,8.5940349 7.47883172,8.62246464 7.55185268,8.62246464 C7.56968986,8.62246464 7.58808445,8.62079231 7.60647904,8.61689018 L9.57692999,8.22277588 C9.63155636,8.21162697 9.68116601,8.185427 9.71962743,8.14640579 L13.9941845,3.89519192 L12.0237335,1.92462042 L7.74861907,6.17583429 Z" id="Path"></path>
                <path d="M15.515507,0.379252788 C14.8701781,-0.266161707 14.0216926,-0.0229498503 13.3770256,0.622464644 L12.4609896,1.53862224 L14.4559148,3.50570008 L15.3719508,2.58954248 C15.6843561,2.27775763 16,1.99179608 16,1.5496044 C16,1.10741273 15.8279123,0.691699599 15.515507,0.379252788 Z" id="Path"></path>
            </g>
            <path d="M6.90909091,3.89519192 C7.31075255,3.89519192 7.63636364,4.22080301 7.63636364,4.62246464 C7.63636364,4.99543616 7.35560713,5.30283349 6.99390627,5.34484448 L6.90909091,5.34973737 L3.27272727,5.34973737 C2.87106564,5.34973737 2.54545455,5.02412628 2.54545455,4.62246464 C2.54545455,4.24949312 2.82621105,3.9420958 3.18791191,3.90008481 L3.27272727,3.89519192 L6.90909091,3.89519192 Z" id="Line-2" fill="#007BD8" fill-rule="nonzero"></path>
            <path d="M5.45454545,6.80428283 C5.85620709,6.80428283 6.18181818,7.12989392 6.18181818,7.53155555 C6.18181818,7.90452707 5.90106168,8.2119244 5.53936082,8.25393538 L5.45454545,8.25882828 L3.27272727,8.25882828 C2.87106564,8.25882828 2.54545455,7.93321719 2.54545455,7.53155555 C2.54545455,7.15858403 2.82621105,6.85118671 3.18791191,6.80917572 L3.27272727,6.80428283 L5.45454545,6.80428283 Z" id="Line-2-Copy" fill="#007BD8" fill-rule="nonzero"></path>
            <path d="M10.5454545,9.71337374 C10.9471162,9.71337374 11.2727273,10.0389848 11.2727273,10.4406465 C11.2727273,10.813618 10.9919708,11.1210153 10.6302699,11.1630263 L10.5454545,11.1679192 L3.27272727,11.1679192 C2.87106564,11.1679192 2.54545455,10.8423081 2.54545455,10.4406465 C2.54545455,10.0676749 2.82621105,9.76027762 3.18791191,9.71826663 L3.27272727,9.71337374 L10.5454545,9.71337374 Z" id="Line-2-Copy-2" fill="#007BD8" fill-rule="nonzero"></path>
        </g>
    </g>
</svg>