<?xml version="1.0" encoding="UTF-8"?>
<svg width="66px" height="24px" viewBox="0 0 66 24" version="1.1" xmlns="http://www.w3.org/2000/svg" xmlns:xlink="http://www.w3.org/1999/xlink">
    <title>tag-overnight-hq</title>
    <g id="Page-1" stroke="none" stroke-width="1" fill="none" fill-rule="evenodd">
        <g id="Group">
            <path d="M12,0 L66,0 L66,0 L66,24 L12,24 C5.372583,24 7.91705186e-15,18.627417 0,12 C9.64732338e-16,5.372583 5.372583,2.99379359e-15 12,0 Z" id="Rectangle-Copy-23" fill="#F5DF4D"></path>
            <path d="M40.11,11.798 L40.11,10.44 L41.244,10.44 L41.244,7.766 L38.486,7.766 C38.332,7.248 38.08,6.604 37.842,6.058 L36.246,6.422 C36.414,6.828 36.582,7.318 36.722,7.766 L33.74,7.766 L33.74,10.44 L34.832,10.44 L34.832,11.798 L40.11,11.798 Z M28.952,14.906 C29.232,14.752 29.666,14.598 32.088,14.108 C32.144,14.402 32.186,14.654 32.214,14.878 L33.39,14.472 C33.292,13.758 32.956,12.554 32.648,11.644 L31.528,11.966 C31.626,12.26 31.724,12.582 31.808,12.918 L30.646,13.114 C31.626,11.896 32.578,10.398 33.292,8.942 L31.962,8.256 C31.724,8.83 31.43,9.446 31.136,10.006 L30.24,10.09 C30.87,9.068 31.472,7.836 31.892,6.674 L30.436,6.1 C30.058,7.57 29.316,9.138 29.064,9.544 C28.826,9.95 28.602,10.23 28.35,10.3 C28.532,10.678 28.756,11.378 28.84,11.672 C29.036,11.56 29.33,11.476 30.38,11.322 C29.988,11.952 29.652,12.414 29.484,12.624 C29.092,13.142 28.798,13.464 28.462,13.548 C28.644,13.912 28.882,14.626 28.952,14.906 Z M39.69,10.37 L35.21,10.37 L35.21,9.166 L39.69,9.166 L39.69,10.37 Z M38.276,19.162 L38.276,14.304 L41.314,14.304 L41.314,12.862 L33.516,12.862 L33.516,14.304 L36.638,14.304 L36.638,19.162 L38.276,19.162 Z M32.424,17.552 L33.53,17.132 C33.404,16.53 33.082,15.592 32.802,14.892 L31.738,15.228 C31.99,15.956 32.298,16.908 32.424,17.552 Z M40.054,18.322 L41.496,17.72 C41.174,16.978 40.488,15.788 39.942,14.92 L38.612,15.424 C39.13,16.348 39.774,17.594 40.054,18.322 Z M34.482,18.476 C35.084,17.706 35.84,16.446 36.344,15.41 L34.832,14.948 C34.426,15.858 33.782,16.894 33.194,17.594 C33.558,17.79 34.188,18.224 34.482,18.476 Z M30.646,18.518 L31.836,18.21 C31.78,17.412 31.626,16.222 31.444,15.256 L30.338,15.536 C30.478,16.46 30.632,17.706 30.646,18.518 Z M29.47,18.98 C29.75,18.098 29.974,16.782 30.072,15.522 L28.882,15.34 C28.798,16.488 28.644,17.748 28.308,18.574 C28.63,18.658 29.218,18.84 29.47,18.98 Z M44.87,18.56 L44.87,17.538 L47.544,17.538 L47.544,11.098 L44.926,11.098 C45.234,10.202 45.486,9.25 45.668,8.312 L47.726,8.312 L47.726,6.8 L42.644,6.8 L42.644,8.312 L44.128,8.312 C43.778,10.146 43.204,11.84 42.35,12.988 C42.574,13.464 42.854,14.528 42.91,14.976 C43.106,14.738 43.302,14.472 43.484,14.206 L43.484,18.56 L44.87,18.56 Z M48.958,19.33 C50.4,17.804 50.806,15.466 50.89,13.408 L52.486,13.408 L52.486,19.232 L54.068,19.232 L54.068,13.408 L55.538,13.408 L55.538,11.84 L54.068,11.84 L54.068,8.382 L55.258,8.382 L55.258,6.842 L48.398,6.842 L48.398,8.382 L49.364,8.382 L49.364,11.84 L48.034,11.84 L48.034,13.408 L49.336,13.408 C49.252,15.116 48.902,17.062 47.698,18.364 C48.076,18.574 48.678,19.036 48.958,19.33 Z M52.486,11.84 L50.918,11.84 L50.918,8.382 L52.486,8.382 L52.486,11.84 Z M46.13,16.068 L44.87,16.068 L44.87,12.568 L46.13,12.568 L46.13,16.068 Z" id="綜研" fill="#444444" fill-rule="nonzero"></path>
            <g transform="translate(8.000000, 5.000000)" fill="#444444" fill-rule="nonzero" id="Icn/tmr-back">
                <g>
                    <circle id="Oval" cx="13.6816406" cy="1.31835938" r="1"></circle>
                    <circle id="Oval" cx="14.5605469" cy="4.86328125" r="1"></circle>
                    <path d="M7.52929688,15 C10.7325,15 13.5747949,12.9296484 14.6021777,9.89208984 C14.6648438,9.70713867 14.5974609,9.50285156 14.4373828,9.39084961 C14.2777441,9.27969727 14.0627344,9.28655273 13.9099512,9.40930664 C12.9628125,10.1727539 11.8199707,10.5761719 10.6054688,10.5761719 C7.69751953,10.5761719 5.30273438,8.21068359 5.30273438,5.30273438 C5.30273438,3.48442383 6.25514648,1.78743164 7.80181641,0.8128125 C7.96746094,0.708515625 8.0249707,0.506396484 7.97047852,0.318427734 C7.91639648,0.130458984 7.725,0 7.52929688,0 C3.40986328,0 0,3.38056641 0,7.5 C0,11.6194336 3.40986328,15 7.52929688,15 Z" id="Path"></path>
                    <path d="M8.40820312,3.54492188 C9.13517578,3.54492188 9.7265625,4.13630859 9.7265625,4.86328125 C9.7265625,5.10618164 9.92311523,5.30273438 10.1660156,5.30273438 C10.408916,5.30273438 10.6054688,5.10618164 10.6054688,4.86328125 C10.6054688,4.13630859 11.1968555,3.54492188 11.9238281,3.54492188 C12.1667285,3.54492188 12.3632812,3.34836914 12.3632812,3.10546875 C12.3632812,2.86256836 12.1667285,2.66601562 11.9238281,2.66601562 C11.1968555,2.66601562 10.6054688,2.04533203 10.6054688,1.31835938 C10.6054688,1.07545898 10.408916,0.87890625 10.1660156,0.87890625 C9.92311523,0.87890625 9.7265625,1.07545898 9.7265625,1.31835938 C9.7265625,2.04533203 9.13517578,2.66601562 8.40820312,2.66601562 C8.16530273,2.66601562 7.96875,2.86256836 7.96875,3.10546875 C7.96875,3.34836914 8.16530273,3.54492188 8.40820312,3.54492188 Z" id="Path"></path>
                </g>
            </g>
        </g>
    </g>
</svg>