<?xml version="1.0" encoding="UTF-8"?>
<svg width="78px" height="24px" viewBox="0 0 78 24" version="1.1" xmlns="http://www.w3.org/2000/svg" xmlns:xlink="http://www.w3.org/1999/xlink">
    <title>tag-book</title>
    <g id="Page-1" stroke="none" stroke-width="1" fill="none" fill-rule="evenodd">
        <g id="Group-2-Copy-11">
            <path d="M12,0 L78,0 L78,0 L78,24 L12,24 C5.372583,24 2.58798134e-15,18.627417 0,12 C9.64732338e-16,5.372583 5.372583,2.99379359e-15 12,0 Z" id="Rectangle-Copy-23" fill="#444444"></path>
            <path d="M12.966,13.892 C13.288,13.738 13.792,13.612 16.788,13.122 C16.858,13.36 16.914,13.584 16.956,13.78 L18.23,13.248 C18.048,12.52 17.614,11.33 17.194,10.434 L15.99,10.882 C16.116,11.19 16.256,11.526 16.368,11.862 L14.94,12.058 C16.06,10.854 17.152,9.412 18.006,7.97 L16.662,7.102 C16.34,7.732 15.962,8.362 15.584,8.964 L14.45,9.048 C15.206,8.054 15.934,6.85 16.508,5.674 L15.024,5.058 C14.464,6.542 13.512,8.11 13.19,8.502 C12.896,8.908 12.644,9.174 12.35,9.244 C12.532,9.65 12.77,10.364 12.854,10.672 C13.078,10.574 13.4,10.49 14.59,10.35 C14.17,10.91 13.806,11.316 13.624,11.512 C13.148,12.03 12.812,12.366 12.448,12.436 C12.616,12.842 12.882,13.598 12.966,13.892 Z M18.51,18.26 C18.804,18.036 19.294,17.798 21.926,16.916 C21.842,16.58 21.758,15.922 21.73,15.488 L19.882,16.034 L19.882,12.016 L21.702,12.016 C21.94,15.474 22.542,18.05 23.984,18.05 C25.062,18.05 25.524,17.476 25.706,15.222 C25.314,15.054 24.782,14.746 24.46,14.41 C24.432,15.81 24.348,16.51 24.152,16.51 C23.718,16.51 23.382,14.662 23.214,12.016 L25.412,12.016 L25.412,10.476 L23.144,10.476 C23.116,9.44 23.102,8.32 23.13,7.158 C23.9,7.004 24.67,6.822 25.328,6.626 L24.18,5.282 C22.71,5.758 20.414,6.234 18.342,6.542 L18.328,6.542 L18.328,15.782 C18.328,16.44 18.048,16.832 17.782,17.028 C18.02,17.294 18.384,17.91 18.51,18.26 Z M21.604,10.476 L19.882,10.476 L19.882,7.732 C20.428,7.648 20.974,7.564 21.534,7.466 C21.548,8.488 21.562,9.51 21.604,10.476 Z M16.956,16.552 L18.244,16.104 C18.118,15.46 17.824,14.494 17.544,13.738 L16.34,14.116 C16.578,14.9 16.872,15.894 16.956,16.552 Z M15.052,17.434 L16.396,17.14 C16.354,16.342 16.186,15.166 16.018,14.228 L14.73,14.48 C14.884,15.404 15.024,16.622 15.052,17.434 Z M13.75,17.994 C14.044,17.154 14.296,15.824 14.38,14.564 L12.994,14.34 C12.91,15.46 12.742,16.706 12.42,17.532 C12.77,17.616 13.456,17.84 13.75,17.994 Z M33.882,18.218 L33.882,15.852 L36.766,15.852 L36.766,14.634 C37.228,15.18 37.718,15.67 38.25,16.076 C38.544,15.614 39.132,14.956 39.566,14.62 C37.928,13.514 36.514,11.596 35.632,9.552 L39.16,9.552 L39.16,7.858 L33.882,7.858 L33.882,5.156 L32.118,5.156 L32.118,7.858 L26.868,7.858 L26.868,9.552 L30.298,9.552 C29.43,11.666 28.002,13.668 26.378,14.788 C26.77,15.096 27.302,15.726 27.596,16.146 C28.156,15.698 28.688,15.18 29.178,14.606 L29.178,15.852 L32.118,15.852 L32.118,18.218 L33.882,18.218 Z M36.374,14.158 L33.882,14.158 L33.882,9.552 L33.938,9.552 C34.554,11.26 35.38,12.842 36.374,14.158 Z M32.118,14.158 L29.542,14.158 C30.55,12.842 31.404,11.26 32.02,9.552 L32.118,9.552 L32.118,14.158 Z M42.576,18.204 L42.576,17.714 L51.396,17.714 L51.396,18.204 L53.02,18.204 L53.02,5.604 L41.036,5.604 L41.036,18.204 L42.576,18.204 Z M51.396,16.356 L42.576,16.356 L42.576,6.976 L51.396,6.976 L51.396,16.356 Z M50.976,10.98 L50.976,10.07 L47.644,10.07 L47.644,9.65 L49.772,9.65 L49.772,7.424 L44.186,7.424 L44.186,9.65 L46.244,9.65 L46.244,10.07 L43.052,10.07 L43.052,10.98 L50.976,10.98 Z M48.372,8.824 L45.502,8.824 L45.502,8.264 L48.372,8.264 L48.372,8.824 Z M50.262,15.894 L50.262,11.386 L43.696,11.386 L43.696,15.894 L50.262,15.894 Z M48.918,14.97 L44.97,14.97 L44.97,12.296 L48.918,12.296 L48.918,14.97 Z M48.386,14.564 L48.386,12.702 L45.544,12.702 L45.544,14.564 L48.386,14.564 Z M47.434,13.864 L46.426,13.864 L46.426,13.416 L47.434,13.416 L47.434,13.864 Z M67.272,13.276 L67.272,12.114 L61.77,12.114 L61.77,11.61 L66.25,11.61 L66.25,10.602 L61.77,10.602 L61.77,10.112 L65.676,10.112 L65.676,8.614 L67.272,8.614 L67.272,7.466 L65.676,7.466 L65.676,5.982 L61.77,5.982 L61.77,5.1 L60.104,5.1 L60.104,5.982 L56.156,5.982 L56.156,6.948 L60.104,6.948 L60.104,7.466 L54.728,7.466 L54.728,8.614 L60.104,8.614 L60.104,9.146 L56.002,9.146 L56.002,10.112 L60.104,10.112 L60.104,10.602 L55.694,10.602 L55.694,11.61 L60.104,11.61 L60.104,12.114 L54.714,12.114 L54.714,13.276 L67.272,13.276 Z M64.024,7.466 L61.77,7.466 L61.77,6.948 L64.024,6.948 L64.024,7.466 Z M64.024,9.146 L61.77,9.146 L61.77,8.614 L64.024,8.614 L64.024,9.146 Z M58.074,18.26 L58.074,17.84 L64.066,17.84 L64.066,18.246 L65.746,18.246 L65.746,13.71 L56.464,13.71 L56.464,18.26 L58.074,18.26 Z M64.066,15.278 L58.074,15.278 L58.074,14.774 L64.066,14.774 L64.066,15.278 Z M64.066,16.79 L58.074,16.79 L58.074,16.244 L64.066,16.244 L64.066,16.79 Z" id="紙本圖書" fill="#FFFFFF" fill-rule="nonzero"></path>
        </g>
    </g>
</svg>