<?xml version="1.0" encoding="UTF-8"?>
<svg width="66px" height="24px" viewBox="0 0 66 24" version="1.1" xmlns="http://www.w3.org/2000/svg" xmlns:xlink="http://www.w3.org/1999/xlink">
    <title>tag-overnight-kf</title>
    <defs>
        <filter color-interpolation-filters="auto" id="filter-1">
            <feColorMatrix in="SourceGraphic" type="matrix" values="0 0 0 0 1.000000 0 0 0 0 1.000000 0 0 0 0 1.000000 0 0 0 1.000000 0"></feColorMatrix>
        </filter>
    </defs>
    <g id="Page-1" stroke="none" stroke-width="1" fill="none" fill-rule="evenodd">
        <g id="tag-overnight-kf">
            <g id="Group-2">
                <path d="M12,0 L66,0 L66,0 L66,24 L12,24 C5.372583,24 7.91705186e-15,18.627417 0,12 C9.64732338e-16,5.372583 5.372583,2.99379359e-15 12,0 Z" id="Rectangle-Copy-24" fill="#8CACD3"></path>
                <path d="M29.512,19.274 C33.04,17.972 33.726,15.676 34.006,12.778 L35.84,12.778 L35.84,16.81 C35.84,18.434 36.232,18.952 37.842,18.952 L39.592,18.952 C40.852,18.952 41.286,18.448 41.496,16.684 C41.02,16.586 40.306,16.306 39.956,16.04 C39.9,17.16 39.816,17.356 39.438,17.356 L38.094,17.356 C37.618,17.356 37.548,17.3 37.548,16.796 L37.548,12.778 L41.174,12.778 L41.174,11.154 L35.868,11.154 L35.868,6.1 L34.104,6.1 L34.104,11.154 L28.812,11.154 L28.812,12.778 L32.242,12.778 C32.046,15.06 31.57,16.824 28.476,17.832 C28.868,18.168 29.316,18.826 29.512,19.274 Z M31.696,10.636 L33.138,9.754 C32.718,8.97 31.794,7.766 31.024,6.912 L29.694,7.682 C30.45,8.606 31.332,9.852 31.696,10.636 Z M38.36,10.622 C39.06,9.88 39.928,8.732 40.656,7.64 L38.892,6.996 C38.43,7.962 37.59,9.222 36.904,10.02 L38.36,10.622 Z M47.026,19.288 C48.482,19.022 49.854,18.63 51.072,18.07 C52.122,18.56 53.312,18.924 54.6,19.162 C54.824,18.714 55.258,18.056 55.608,17.692 C54.586,17.566 53.62,17.356 52.724,17.09 C53.578,16.446 54.278,15.676 54.768,14.724 L53.732,14.206 L53.466,14.262 L50.666,14.262 C50.792,14.08 50.904,13.898 51.016,13.702 L54.544,13.702 L54.544,9.334 L48.734,9.334 C48.86,9.152 48.986,8.956 49.112,8.746 L55.314,8.746 L55.314,7.416 L49.84,7.416 C49.98,7.122 50.106,6.828 50.204,6.534 L48.678,6.142 C48.216,7.458 47.376,8.746 46.396,9.558 C46.466,9.6 46.536,9.656 46.62,9.712 L45.458,9.222 C44.702,10.594 43.428,11.98 42.266,12.862 C42.518,13.268 42.938,14.206 43.078,14.584 C43.428,14.29 43.778,13.94 44.142,13.562 L44.142,19.204 L45.836,19.204 L45.836,11.518 C46.228,10.986 46.592,10.44 46.9,9.894 C47.194,10.104 47.516,10.356 47.698,10.524 C47.824,10.398 47.95,10.272 48.076,10.132 L48.076,13.702 L49.308,13.702 C49.07,14.024 48.804,14.318 48.51,14.598 C48.286,14.374 48.09,14.122 47.922,13.87 L46.718,14.304 C46.956,14.682 47.194,15.032 47.474,15.368 C47.124,15.606 46.76,15.816 46.368,15.984 C46.69,16.222 47.25,16.754 47.488,17.034 C47.824,16.852 48.16,16.642 48.482,16.404 C48.804,16.684 49.126,16.936 49.476,17.174 C48.496,17.51 47.39,17.762 46.27,17.902 C46.55,18.238 46.9,18.882 47.026,19.288 Z M43.288,10.356 C44.534,9.488 45.864,8.088 46.746,6.772 L45.136,6.17 C44.604,7.108 43.456,8.256 42.448,8.942 C42.7,9.306 43.106,9.978 43.288,10.356 Z M53.004,11 L49.56,11 L49.56,10.426 L53.004,10.426 L53.004,11 Z M53.004,12.596 L49.56,12.596 L49.56,12.008 L53.004,12.008 L53.004,12.596 Z M51.1,16.446 C50.526,16.166 50.022,15.872 49.546,15.522 L49.616,15.466 L52.416,15.466 C52.052,15.83 51.604,16.152 51.1,16.446 Z" id="光復" fill="#FFFFFF" fill-rule="nonzero"></path>
            </g>
            <g id="Icn/tmr-back" transform="translate(8.000000, 5.000000)" filter="url(#filter-1)">
                <g>
                    <circle id="Oval" fill="#444444" fill-rule="nonzero" cx="13.6816406" cy="1.31835938" r="1"></circle>
                    <circle id="Oval" fill="#444444" fill-rule="nonzero" cx="14.5605469" cy="4.86328125" r="1"></circle>
                    <path d="M7.52929688,15 C10.7325,15 13.5747949,12.9296484 14.6021777,9.89208984 C14.6648438,9.70713867 14.5974609,9.50285156 14.4373828,9.39084961 C14.2777441,9.27969727 14.0627344,9.28655273 13.9099512,9.40930664 C12.9628125,10.1727539 11.8199707,10.5761719 10.6054688,10.5761719 C7.69751953,10.5761719 5.30273438,8.21068359 5.30273438,5.30273438 C5.30273438,3.48442383 6.25514648,1.78743164 7.80181641,0.8128125 C7.96746094,0.708515625 8.0249707,0.506396484 7.97047852,0.318427734 C7.91639648,0.130458984 7.725,0 7.52929688,0 C3.40986328,0 0,3.38056641 0,7.5 C0,11.6194336 3.40986328,15 7.52929688,15 Z" id="Path" fill="#444444" fill-rule="nonzero"></path>
                    <path d="M8.40820312,3.54492188 C9.13517578,3.54492188 9.7265625,4.13630859 9.7265625,4.86328125 C9.7265625,5.10618164 9.92311523,5.30273438 10.1660156,5.30273438 C10.408916,5.30273438 10.6054688,5.10618164 10.6054688,4.86328125 C10.6054688,4.13630859 11.1968555,3.54492188 11.9238281,3.54492188 C12.1667285,3.54492188 12.3632812,3.34836914 12.3632812,3.10546875 C12.3632812,2.86256836 12.1667285,2.66601562 11.9238281,2.66601562 C11.1968555,2.66601562 10.6054688,2.04533203 10.6054688,1.31835938 C10.6054688,1.07545898 10.408916,0.87890625 10.1660156,0.87890625 C9.92311523,0.87890625 9.7265625,1.07545898 9.7265625,1.31835938 C9.7265625,2.04533203 9.13517578,2.66601562 8.40820312,2.66601562 C8.16530273,2.66601562 7.96875,2.86256836 7.96875,3.10546875 C7.96875,3.34836914 8.16530273,3.54492188 8.40820312,3.54492188 Z" id="Path" fill="#444444" fill-rule="nonzero"></path>
                </g>
            </g>
        </g>
    </g>
</svg>