<?xml version="1.0" encoding="UTF-8"?>
<svg width="78px" height="24px" viewBox="0 0 78 24" version="1.1" xmlns="http://www.w3.org/2000/svg" xmlns:xlink="http://www.w3.org/1999/xlink">
    <title>tag-ebook</title>
    <g id="Page-1" stroke="none" stroke-width="1" fill="none" fill-rule="evenodd">
        <g id="Group-2-Copy-11">
            <path d="M12,0 L78,0 L78,0 L78,24 L12,24 C5.372583,24 8.11624501e-16,18.627417 0,12 C-8.11624501e-16,5.372583 5.372583,1.21743675e-15 12,0 Z" id="Rectangle-Copy-23" fill="#CCCCCC"></path>
            <path d="M14.758,11.484 C15.64,11.288 16.676,11.05 17.726,10.812 L17.67,9.86 C16.466,10.042 15.29,10.21 14.436,10.308 L14.436,8.39 L15.192,8.39 L14.8,9.174 C15.598,9.342 16.648,9.636 17.208,9.86 L17.656,8.964 C17.124,8.768 16.228,8.53 15.472,8.39 L18.146,8.39 L18.146,11.302 L19.77,11.302 L19.77,8.39 L22.164,8.39 C21.576,8.614 20.792,8.866 20.246,8.992 L20.764,9.776 C21.492,9.636 22.514,9.412 23.256,9.104 L22.752,8.39 L23.508,8.39 L23.508,10.392 C22.738,10.14 21.352,9.846 20.358,9.734 L20.036,10.672 C21.086,10.84 22.528,11.19 23.27,11.456 L23.564,10.448 L25.174,10.448 L25.174,7.298 L19.77,7.298 L19.77,6.738 L24.46,6.738 L24.46,5.646 L13.484,5.646 L13.484,6.738 L18.146,6.738 L18.146,7.298 L12.854,7.298 L12.854,10.448 L14.38,10.448 L14.758,11.484 Z M23.452,18.022 C24.978,18.022 25.44,17.574 25.636,15.894 C25.202,15.81 24.572,15.6 24.25,15.376 C24.152,16.552 24.026,16.762 23.312,16.762 L20.666,16.762 C19.826,16.762 19.658,16.678 19.658,16.174 L19.658,16.132 L23.844,16.132 L23.844,11.652 L14.142,11.652 L14.142,16.734 L15.738,16.734 L15.738,16.132 L18.062,16.132 L18.062,16.174 C18.062,17.63 18.608,18.022 20.512,18.022 L23.452,18.022 Z M18.062,13.402 L15.738,13.402 L15.738,12.772 L18.062,12.772 L18.062,13.402 Z M22.192,13.402 L19.658,13.402 L19.658,12.772 L22.192,12.772 L22.192,13.402 Z M18.062,15.012 L15.738,15.012 L15.738,14.382 L18.062,14.382 L18.062,15.012 Z M22.192,15.012 L19.658,15.012 L19.658,14.382 L22.192,14.382 L22.192,15.012 Z M33.07,17.896 C33.728,17.63 33.938,17.168 33.938,16.23 L33.938,12.856 L39.37,12.856 L39.37,11.19 L33.938,11.19 L33.938,10.126 C35.548,9.258 37.228,7.998 38.418,6.822 L37.158,5.856 L36.766,5.94 L28.044,5.94 L28.044,7.592 L34.904,7.592 C34.092,8.194 33.084,8.824 32.202,9.244 L32.202,11.19 L26.658,11.19 L26.658,12.856 L32.202,12.856 L32.202,16.188 C32.202,16.426 32.104,16.496 31.796,16.51 C31.7176,16.5137333 31.5824533,16.5164711 31.4078163,16.5174169 L31.1184,16.517392 C30.64632,16.51504 30.018,16.5016 29.43,16.468 C29.71,16.944 30.046,17.7 30.144,18.19 C31.432,18.204 32.384,18.162 33.07,17.896 Z M42.576,18.204 L42.576,17.714 L51.396,17.714 L51.396,18.204 L53.02,18.204 L53.02,5.604 L41.036,5.604 L41.036,18.204 L42.576,18.204 Z M51.396,16.356 L42.576,16.356 L42.576,6.976 L51.396,6.976 L51.396,16.356 Z M50.976,10.98 L50.976,10.07 L47.644,10.07 L47.644,9.65 L49.772,9.65 L49.772,7.424 L44.186,7.424 L44.186,9.65 L46.244,9.65 L46.244,10.07 L43.052,10.07 L43.052,10.98 L50.976,10.98 Z M48.372,8.824 L45.502,8.824 L45.502,8.264 L48.372,8.264 L48.372,8.824 Z M50.262,15.894 L50.262,11.386 L43.696,11.386 L43.696,15.894 L50.262,15.894 Z M48.918,14.97 L44.97,14.97 L44.97,12.296 L48.918,12.296 L48.918,14.97 Z M48.386,14.564 L48.386,12.702 L45.544,12.702 L45.544,14.564 L48.386,14.564 Z M47.434,13.864 L46.426,13.864 L46.426,13.416 L47.434,13.416 L47.434,13.864 Z M67.272,13.276 L67.272,12.114 L61.77,12.114 L61.77,11.61 L66.25,11.61 L66.25,10.602 L61.77,10.602 L61.77,10.112 L65.676,10.112 L65.676,8.614 L67.272,8.614 L67.272,7.466 L65.676,7.466 L65.676,5.982 L61.77,5.982 L61.77,5.1 L60.104,5.1 L60.104,5.982 L56.156,5.982 L56.156,6.948 L60.104,6.948 L60.104,7.466 L54.728,7.466 L54.728,8.614 L60.104,8.614 L60.104,9.146 L56.002,9.146 L56.002,10.112 L60.104,10.112 L60.104,10.602 L55.694,10.602 L55.694,11.61 L60.104,11.61 L60.104,12.114 L54.714,12.114 L54.714,13.276 L67.272,13.276 Z M64.024,7.466 L61.77,7.466 L61.77,6.948 L64.024,6.948 L64.024,7.466 Z M64.024,9.146 L61.77,9.146 L61.77,8.614 L64.024,8.614 L64.024,9.146 Z M58.074,18.26 L58.074,17.84 L64.066,17.84 L64.066,18.246 L65.746,18.246 L65.746,13.71 L56.464,13.71 L56.464,18.26 L58.074,18.26 Z M64.066,15.278 L58.074,15.278 L58.074,14.774 L64.066,14.774 L64.066,15.278 Z M64.066,16.79 L58.074,16.79 L58.074,16.244 L64.066,16.244 L64.066,16.79 Z" id="電子圖書" fill="#444444" fill-rule="nonzero"></path>
        </g>
    </g>
</svg>