<?xml version="1.0" encoding="UTF-8"?>
<svg width="68px" height="68px" viewBox="0 0 68 68" version="1.1" xmlns="http://www.w3.org/2000/svg" xmlns:xlink="http://www.w3.org/1999/xlink">
    <title>Group</title>
    <defs>
        <filter color-interpolation-filters="auto" id="filter-1">
            <feColorMatrix in="SourceGraphic" type="matrix" values="0 0 0 0 0.266667 0 0 0 0 0.266667 0 0 0 0 0.266667 0 0 0 1.000000 0"></feColorMatrix>
        </filter>
        <path d="M3.99999996,10.5 C3.16999996,10.5 2.49999996,11.17 2.49999996,12 C2.49999996,12.83 3.16999996,13.5 3.99999996,13.5 C4.82999997,13.5 5.49999996,12.83 5.49999996,12 C5.49999996,11.17 4.82999997,10.5 3.99999996,10.5 L3.99999996,10.5 Z M3.99999996,4.49999997 C3.16999996,4.49999997 2.49999996,5.16999997 2.49999996,5.99999997 C2.49999996,6.82999998 3.16999996,7.49999997 3.99999996,7.49999997 C4.82999997,7.49999997 5.49999996,6.82999998 5.49999996,5.99999997 C5.49999996,5.16999997 4.82999997,4.49999997 3.99999996,4.49999997 L3.99999996,4.49999997 Z M3.99999996,16.5 C3.16541349,16.5 2.49999996,17.1766917 2.49999996,18 C2.49999996,18.8233082 3.17669169,19.5 3.99999996,19.5 C4.82330823,19.5 5.49999996,18.8233082 5.49999996,18 C5.49999996,17.1766917 4.83458643,16.5 3.99999996,16.5 L3.99999996,16.5 Z M6.99999998,19 L21,19 L21,17 L6.99999998,17 L6.99999998,19 L6.99999998,19 Z M6.99999998,13 L21,13 L21,11 L6.99999998,11 L6.99999998,13 L6.99999998,13 Z M6.99999998,4.99999997 L6.99999998,6.99999997 L21,6.99999997 L21,4.99999997 L6.99999998,4.99999997 L6.99999998,4.99999997 Z" id="path-2"></path>
        <filter color-interpolation-filters="auto" id="filter-4">
            <feColorMatrix in="SourceGraphic" type="matrix" values="0 0 0 0 0.266667 0 0 0 0 0.266667 0 0 0 0 0.266667 0 0 0 1.000000 0"></feColorMatrix>
        </filter>
        <path d="M2.00000005,11.0000001 L8.00000005,11.0000001 L8.00000005,4.00000005 L2.00000005,4.00000005 L2.00000005,11.0000001 L2.00000005,11.0000001 Z M2.00000005,19.0000001 L8.00000005,19.0000001 L8.00000005,12.0000001 L2.00000005,12.0000001 L2.00000005,19.0000001 L2.00000005,19.0000001 Z M9.00000005,19.0000001 L15.0000001,19.0000001 L15.0000001,12.0000001 L9.00000005,12.0000001 L9.00000005,19.0000001 L9.00000005,19.0000001 Z M16.0000001,19.0000001 L22.0000001,19.0000001 L22.0000001,12.0000001 L16.0000001,12.0000001 L16.0000001,19.0000001 L16.0000001,19.0000001 Z M9.00000005,11.0000001 L15.0000001,11.0000001 L15.0000001,4.00000005 L9.00000005,4.00000005 L9.00000005,11.0000001 L9.00000005,11.0000001 Z M16.0000001,4.00000005 L16.0000001,11.0000001 L22.0000001,11.0000001 L22.0000001,4.00000005 L16.0000001,4.00000005 L16.0000001,4.00000005 Z" id="path-5"></path>
        <filter color-interpolation-filters="auto" id="filter-7">
            <feColorMatrix in="SourceGraphic" type="matrix" values="0 0 0 0 0.266667 0 0 0 0 0.266667 0 0 0 0 0.266667 0 0 0 1.000000 0"></feColorMatrix>
        </filter>
        <path d="M3.99999996,10.5 C3.16999996,10.5 2.49999996,11.17 2.49999996,12 C2.49999996,12.83 3.16999996,13.5 3.99999996,13.5 C4.82999997,13.5 5.49999996,12.83 5.49999996,12 C5.49999996,11.17 4.82999997,10.5 3.99999996,10.5 L3.99999996,10.5 Z M3.99999996,4.49999997 C3.16999996,4.49999997 2.49999996,5.16999997 2.49999996,5.99999997 C2.49999996,6.82999998 3.16999996,7.49999997 3.99999996,7.49999997 C4.82999997,7.49999997 5.49999996,6.82999998 5.49999996,5.99999997 C5.49999996,5.16999997 4.82999997,4.49999997 3.99999996,4.49999997 L3.99999996,4.49999997 Z M3.99999996,16.5 C3.16541349,16.5 2.49999996,17.1766917 2.49999996,18 C2.49999996,18.8233082 3.17669169,19.5 3.99999996,19.5 C4.82330823,19.5 5.49999996,18.8233082 5.49999996,18 C5.49999996,17.1766917 4.83458643,16.5 3.99999996,16.5 L3.99999996,16.5 Z M6.99999998,19 L21,19 L21,17 L6.99999998,17 L6.99999998,19 L6.99999998,19 Z M6.99999998,13 L21,13 L21,11 L6.99999998,11 L6.99999998,13 L6.99999998,13 Z M6.99999998,4.99999997 L6.99999998,6.99999997 L21,6.99999997 L21,4.99999997 L6.99999998,4.99999997 L6.99999998,4.99999997 Z" id="path-8"></path>
        <filter color-interpolation-filters="auto" id="filter-10">
            <feColorMatrix in="SourceGraphic" type="matrix" values="0 0 0 0 0.266667 0 0 0 0 0.266667 0 0 0 0 0.266667 0 0 0 1.000000 0"></feColorMatrix>
        </filter>
        <path d="M2,11 L8,11 L8,4 L2,4 L2,11 L2,11 Z M2,19 L8,19 L8,12 L2,12 L2,19 L2,19 Z M9,19 L15,19 L15,12 L9,12 L9,19 L9,19 Z M16,19 L22,19 L22,12 L16,12 L16,19 L16,19 Z M9,11 L15,11 L15,4 L9,4 L9,11 L9,11 Z M16,4 L16,11 L22,11 L22,4 L16,4 L16,4 Z" id="path-11"></path>
    </defs>
    <g id="Page-1" stroke="none" stroke-width="1" fill="none" fill-rule="evenodd">
        <g id="Group">
            <g transform="translate(0.000000, 34.000000)" id="Group-2-Copy-10">
                <circle id="Oval-Copy" fill="#EEEEEE" cx="17" cy="17" r="17"></circle>
                <g id="format_list_bulleted-copy" transform="translate(5.000000, 5.000000)" filter="url(#filter-1)">
                    <g>
                        <polygon id="Base" fill-rule="nonzero" points="-4.99999828e-08 -4.9999926e-08 24.0000001 -4.9999926e-08 24.0000001 24.0000001 -4.99999828e-08 24.0000001"></polygon>
                        <mask id="mask-3" fill="white">
                            <use xlink:href="#path-2"></use>
                        </mask>
                        <g id="Icon" fill-rule="nonzero"></g>
                        <rect id="↳-🎨-Color" fill="#444444" mask="url(#mask-3)" x="0" y="0" width="24" height="24"></rect>
                    </g>
                </g>
            </g>
            <g transform="translate(34.000000, 0.000000)" id="Group-6-Copy-3">
                <circle id="Oval" fill="#F5DF4D" cx="17" cy="17" r="17"></circle>
                <g filter="url(#filter-4)" id="view_module-copy">
                    <g transform="translate(5.000000, 5.000000)">
                        <polygon id="Base" fill-rule="nonzero" points="0 0 24.0000001 0 24.0000001 24.0000001 0 24.0000001"></polygon>
                        <mask id="mask-6" fill="white">
                            <use xlink:href="#path-5"></use>
                        </mask>
                        <g id="Icon" fill-rule="nonzero"></g>
                        <rect id="↳-🎨-Color" fill="#080808" mask="url(#mask-6)" x="5.00003807e-08" y="5.00003807e-08" width="24" height="24"></rect>
                    </g>
                </g>
            </g>
            <g transform="translate(34.000000, 34.000000)" id="Group-2-Copy-11">
                <circle id="Oval-Copy" fill="#F5DF4D" cx="17" cy="17" r="17"></circle>
                <g id="format_list_bulleted-copy" transform="translate(5.000000, 5.000000)" filter="url(#filter-7)">
                    <g>
                        <polygon id="Base" fill-rule="nonzero" points="-4.99999828e-08 -4.9999926e-08 24.0000001 -4.9999926e-08 24.0000001 24.0000001 -4.99999828e-08 24.0000001"></polygon>
                        <mask id="mask-9" fill="white">
                            <use xlink:href="#path-8"></use>
                        </mask>
                        <g id="Icon" fill-rule="nonzero"></g>
                        <rect id="↳-🎨-Color" fill="#444444" mask="url(#mask-9)" x="0" y="0" width="24" height="24"></rect>
                    </g>
                </g>
            </g>
            <g id="Group-6-Copy-4">
                <circle id="Oval" fill="#EEEEEE" cx="17" cy="17" r="17"></circle>
                <g filter="url(#filter-10)" id="view_module-copy">
                    <g transform="translate(5.000000, 5.000000)">
                        <polygon id="Base" fill-rule="nonzero" points="-5.00000112e-08 -5.00003807e-08 24 -5.00003807e-08 24 24 -5.00000112e-08 24"></polygon>
                        <mask id="mask-12" fill="white">
                            <use xlink:href="#path-11"></use>
                        </mask>
                        <g id="Icon" fill-rule="nonzero"></g>
                        <rect id="↳-🎨-Color" fill="#080808" mask="url(#mask-12)" x="0" y="0" width="24" height="24"></rect>
                    </g>
                </g>
            </g>
        </g>
    </g>
</svg>