<?xml version="1.0" encoding="UTF-8"?>
<svg width="64px" height="36px" viewBox="0 0 64 36" version="1.1" xmlns="http://www.w3.org/2000/svg" xmlns:xlink="http://www.w3.org/1999/xlink">
    <title>vote</title>
    <g id="Page-1" stroke="none" stroke-width="1" fill="none" fill-rule="evenodd">
        <g id="vote">
            <rect id="BG" fill="#F9EB94" x="0" y="0" width="64" height="36" rx="4"></rect>
            <path d="M19.648,25.864 C20.112,25.656 20.272,25.272 20.272,24.504 L20.272,20.312 C20.784,20.184 21.312,20.024 21.824,19.864 L21.632,18.504 L20.272,18.872 L20.272,16.088 L22.128,16.088 L22.128,14.712 L20.272,14.712 L20.272,11.592 L18.832,11.592 L18.832,14.712 L16.784,14.712 L16.784,16.088 L18.832,16.088 L18.832,19.256 C17.984,19.48 17.216,19.672 16.576,19.816 L16.976,21.24 L18.832,20.728 L18.832,24.488 C18.832,24.728 18.736,24.792 18.512,24.808 L18.1765926,24.8074074 C17.8684444,24.8062222 17.4133333,24.8026667 16.944,24.792 C17.12,25.16 17.328,25.768 17.376,26.136 C18.48,26.136 19.184,26.104 19.648,25.864 Z M22.416,18.216 C24.464,17.144 24.912,15.4 24.912,13.912 L24.912,13.512 L27.376,13.512 L27.376,15.704 C27.376,17.064 27.664,17.592 28.96,17.592 L30.16,17.592 C30.512,17.592 30.864,17.576 31.088,17.496 C31.04,17.16 30.992,16.632 30.976,16.248 C30.752,16.312 30.384,16.344 30.144,16.344 L29.072,16.344 C28.816,16.344 28.784,16.168 28.784,15.72 L28.784,12.136 L23.52,12.136 L23.52,13.864 C23.52,14.984 23.264,16.216 21.456,17.128 C21.712,17.336 22.24,17.928 22.416,18.216 Z M30.4,26.296 C30.624,25.88 31.024,25.24 31.344,24.92 C29.84,24.632 28.496,24.136 27.36,23.48 C28.656,22.312 29.696,20.824 30.304,18.872 L29.344,18.472 L29.088,18.52 L22.048,18.52 L22.048,19.912 L22.848,19.912 L22.448,20.056 C23.072,21.368 23.872,22.504 24.896,23.464 C23.696,24.168 22.304,24.648 20.848,24.936 C21.12,25.256 21.456,25.88 21.584,26.296 C23.216,25.88 24.752,25.288 26.096,24.424 C27.312,25.272 28.752,25.896 30.4,26.296 Z M26.128,22.616 C25.184,21.864 24.432,20.952 23.888,19.912 L28.336,19.912 C27.776,20.984 27.024,21.88 26.128,22.616 Z M46.032,18.184 L46.032,14.424 L42.4,14.424 L42.4,13.368 L46.832,13.368 L46.832,12.168 L33.104,12.168 L33.104,13.368 L37.472,13.368 L37.472,14.424 L34.032,14.424 L34.032,18.184 L46.032,18.184 Z M40.992,14.424 L38.848,14.424 L38.848,13.368 L40.992,13.368 L40.992,14.424 Z M44.56,17.064 L42.4,17.064 L42.4,15.528 L44.56,15.528 L44.56,17.064 Z M40.992,17.064 L38.848,17.064 L38.848,15.528 L40.992,15.528 L40.992,17.064 Z M37.472,17.064 L35.424,17.064 L35.424,15.528 L37.472,15.528 L37.472,17.064 Z M45.216,20.216 L45.216,19.048 L34.816,19.048 L34.816,20.216 L45.216,20.216 Z M40.72,26.28 L40.72,22.312 L47.136,22.312 L47.136,21.112 L32.896,21.112 L32.896,22.312 L39.248,22.312 L39.248,26.28 L40.72,26.28 Z M33.904,25.96 C35.184,25.288 36.656,24.2 37.584,23.064 L36.208,22.584 C35.424,23.512 34.08,24.408 32.8,24.984 C33.104,25.208 33.648,25.72 33.904,25.96 Z M45.856,25.928 L47.024,25.064 C46.16,24.328 44.528,23.304 43.264,22.632 L42.176,23.4 C43.472,24.12 45.088,25.208 45.856,25.928 Z" id="投票" fill="#444444" fill-rule="nonzero"></path>
        </g>
    </g>
</svg>