<?xml version="1.0" encoding="UTF-8"?>
<svg width="96px" height="36px" viewBox="0 0 96 36" version="1.1" xmlns="http://www.w3.org/2000/svg" xmlns:xlink="http://www.w3.org/1999/xlink">
    <title>voted</title>
    <g id="Page-1" stroke="none" stroke-width="1" fill="none" fill-rule="evenodd">
        <g id="voted">
            <rect id="BG-Copy-2" fill="#EEEEEE" x="0" y="0" width="96" height="36" rx="4"></rect>
            <path d="M23.584,26.232 L23.584,24.92 C23.904,25.208 24.304,25.72 24.512,26.072 C25.664,25.384 26.704,24.52 27.568,23.416 C28.4,24.52 29.392,25.416 30.576,26.104 C30.784,25.736 31.264,25.176 31.6,24.888 C30.352,24.232 29.328,23.272 28.496,22.088 C29.728,20.024 30.576,17.336 30.944,13.896 L29.984,13.64 L29.728,13.688 L24.656,13.688 L24.656,12.536 L16.816,12.536 L16.816,13.912 L17.984,13.912 L17.984,22.696 C17.424,22.76 16.928,22.84 16.48,22.888 L16.752,24.376 C18.24,24.136 20.208,23.816 22.144,23.496 L22.144,26.232 L23.584,26.232 Z M23.584,24.84 L23.584,13.912 L24.24,13.912 L24.24,15.144 L29.312,15.144 C28.976,17.24 28.384,19.08 27.584,20.6 C26.784,19.016 26.224,17.176 25.856,15.192 L24.416,15.48 C24.928,17.992 25.648,20.216 26.688,22.056 C25.808,23.272 24.768,24.216 23.584,24.84 Z M22.144,15.768 L19.408,15.768 L19.408,13.912 L22.144,13.912 L22.144,15.768 Z M22.144,19.048 L19.408,19.048 L19.408,17.096 L22.144,17.096 L22.144,19.048 Z M19.408,22.504 L19.408,20.392 L22.144,20.392 L22.144,22.12 L19.408,22.504 Z M38.352,26.36 C39.248,24.824 39.392,22.456 39.392,20.68 L39.392,17.416 L45.008,17.416 L45.008,20.664 C42.976,21.144 40.912,21.624 39.52,21.896 L39.984,23.144 C41.392,22.808 43.232,22.344 45.008,21.88 L45.008,24.52 C45.008,24.744 44.928,24.824 44.688,24.84 L44.3088066,24.8390678 C43.9208521,24.8369704 43.3329231,24.8301538 42.768,24.808 C42.96,25.192 43.168,25.816 43.232,26.2 L43.765178,26.1991261 C44.6918817,26.1943195 45.3427692,26.1630769 45.776,25.96 C46.304,25.736 46.464,25.304 46.464,24.552 L46.464,16.072 L43.024,16.072 L43.024,11.576 L41.52,11.576 L41.52,16.072 L38.016,16.072 L38.016,20.664 C38.016,22.216 37.952,24.136 37.184,25.512 C37.504,25.672 38.112,26.104 38.352,26.36 Z M36.352,14.712 L37.248,13.528 C36.576,13.064 35.264,12.312 34.352,11.8 L33.488,12.856 C34.416,13.416 35.712,14.216 36.352,14.712 Z M45.328,15.528 C45.856,14.76 46.496,13.608 47.024,12.536 L45.6,11.992 C45.248,12.936 44.56,14.2 44.032,15.016 L45.328,15.528 Z M39.12,15.624 L40.464,14.968 C40.208,14.168 39.52,12.968 38.864,12.088 L37.6,12.648 C38.256,13.56 38.896,14.824 39.12,15.624 Z M35.536,18.936 L36.368,17.704 C35.68,17.256 34.32,16.552 33.408,16.12 L32.592,17.208 C33.552,17.72 34.88,18.488 35.536,18.936 Z M43.616,20.6 L44.256,19.56 C43.36,19.096 41.68,18.536 40.368,18.264 L39.76,19.192 C41.088,19.496 42.752,20.12 43.616,20.6 Z M34.4,26.072 C35.328,24.568 36.4,22.664 37.232,21 L36.144,20.008 C35.216,21.832 33.984,23.864 33.12,25.08 L34.4,26.072 Z M51.648,25.864 C52.112,25.656 52.272,25.272 52.272,24.504 L52.272,20.312 C52.784,20.184 53.312,20.024 53.824,19.864 L53.632,18.504 L52.272,18.872 L52.272,16.088 L54.128,16.088 L54.128,14.712 L52.272,14.712 L52.272,11.592 L50.832,11.592 L50.832,14.712 L48.784,14.712 L48.784,16.088 L50.832,16.088 L50.832,19.256 C49.984,19.48 49.216,19.672 48.576,19.816 L48.976,21.24 L50.832,20.728 L50.832,24.488 C50.832,24.728 50.736,24.792 50.512,24.808 L50.1765926,24.8074074 C49.8684444,24.8062222 49.4133333,24.8026667 48.944,24.792 C49.12,25.16 49.328,25.768 49.376,26.136 C50.48,26.136 51.184,26.104 51.648,25.864 Z M54.416,18.216 C56.464,17.144 56.912,15.4 56.912,13.912 L56.912,13.512 L59.376,13.512 L59.376,15.704 C59.376,17.064 59.664,17.592 60.96,17.592 L62.16,17.592 C62.512,17.592 62.864,17.576 63.088,17.496 C63.04,17.16 62.992,16.632 62.976,16.248 C62.752,16.312 62.384,16.344 62.144,16.344 L61.072,16.344 C60.816,16.344 60.784,16.168 60.784,15.72 L60.784,12.136 L55.52,12.136 L55.52,13.864 C55.52,14.984 55.264,16.216 53.456,17.128 C53.712,17.336 54.24,17.928 54.416,18.216 Z M62.4,26.296 C62.624,25.88 63.024,25.24 63.344,24.92 C61.84,24.632 60.496,24.136 59.36,23.48 C60.656,22.312 61.696,20.824 62.304,18.872 L61.344,18.472 L61.088,18.52 L54.048,18.52 L54.048,19.912 L54.848,19.912 L54.448,20.056 C55.072,21.368 55.872,22.504 56.896,23.464 C55.696,24.168 54.304,24.648 52.848,24.936 C53.12,25.256 53.456,25.88 53.584,26.296 C55.216,25.88 56.752,25.288 58.096,24.424 C59.312,25.272 60.752,25.896 62.4,26.296 Z M58.128,22.616 C57.184,21.864 56.432,20.952 55.888,19.912 L60.336,19.912 C59.776,20.984 59.024,21.88 58.128,22.616 Z M78.032,18.184 L78.032,14.424 L74.4,14.424 L74.4,13.368 L78.832,13.368 L78.832,12.168 L65.104,12.168 L65.104,13.368 L69.472,13.368 L69.472,14.424 L66.032,14.424 L66.032,18.184 L78.032,18.184 Z M72.992,14.424 L70.848,14.424 L70.848,13.368 L72.992,13.368 L72.992,14.424 Z M76.56,17.064 L74.4,17.064 L74.4,15.528 L76.56,15.528 L76.56,17.064 Z M72.992,17.064 L70.848,17.064 L70.848,15.528 L72.992,15.528 L72.992,17.064 Z M69.472,17.064 L67.424,17.064 L67.424,15.528 L69.472,15.528 L69.472,17.064 Z M77.216,20.216 L77.216,19.048 L66.816,19.048 L66.816,20.216 L77.216,20.216 Z M72.72,26.28 L72.72,22.312 L79.136,22.312 L79.136,21.112 L64.896,21.112 L64.896,22.312 L71.248,22.312 L71.248,26.28 L72.72,26.28 Z M65.904,25.96 C67.184,25.288 68.656,24.2 69.584,23.064 L68.208,22.584 C67.424,23.512 66.08,24.408 64.8,24.984 C65.104,25.208 65.648,25.72 65.904,25.96 Z M77.856,25.928 L79.024,25.064 C78.16,24.328 76.528,23.304 75.264,22.632 L74.176,23.4 C75.472,24.12 77.088,25.208 77.856,25.928 Z" id="取消投票" fill="#444444" fill-rule="nonzero"></path>
        </g>
    </g>
</svg>