<svg width="316" height="221" viewBox="0 0 316 221" xmlns="http://www.w3.org/2000/svg">
    <defs>
        <filter color-interpolation-filters="auto" id="a">
            <feColorMatrix in="SourceGraphic" values="0 0 0 0 0.266667 0 0 0 0 0.266667 0 0 0 0 0.266667 0 0 0 1.000000 0"/>
        </filter>
    </defs>
    <g fill="none" fill-rule="evenodd">
        <path d="m174 133.3 6.324 44.7 9.026-2.995-4.137-17.784 8.833-3.415 12.195 16.45 8.759-5.34-.727-.64-.955-.844a328.179 328.179 0 0 1-12.782-12.002l-.622-.617.066-.115c5.083-9.14 1.794-18.946-5.418-22.007-3.265-1.386-8.24-.682-14.97 2.064l-.889.37-.907.392c-.918.404-1.866.843-2.844 1.317l-.952.466z" fill="#7BAEED" fill-rule="nonzero"/>
        <path fill="#F5DF4D" fill-rule="nonzero" d="M141 137.535 108.874 136 103 145.728h17.715L117.593 185h11.954l-.026-40.464L141 145.813z"/>
        <path fill="#7BAEED" fill-rule="nonzero" d="m77.41 133.573 1.35-7.187 20.65 1.446 1.782 8.389-9.779-1.162-1.334 33.517 9.216 1.541-1.212 9.267-26.465-3.259 1.624-8.668 9.025 1.01 1.83-34.316z"/>
        <path fill="#CCC" fill-rule="nonzero" d="m230.134 124.92-2.495-5.92L210 124.007v7.523l8.266-2.78 7.334 28.516-7.707 3.004 2.759 7.73L243 160.377l-3.006-7.141-7.64 2.512-7.911-29.112z"/>
        <path d="M199.238 46.938c4.673 14.467 14.327 27.037 28.385 34.3a52.36 52.36 0 0 0 22.505 5.824l-6.57-57.772-44.32 17.648z" fill="#F5DF4D" fill-rule="nonzero"/>
        <g filter="url(#a)">
            <g fill="#000200">
                <path d="M21.056 52.731a.844.844 0 0 1-.543-.283L4.388 32.198c-.136-.152-.174-.36-.155-.568.02-.208.136-.378.29-.51L41.388 3.155a.704.704 0 0 1 .581-.15.799.799 0 0 1 .524.283l14.962 18.775a.734.734 0 0 1-.116 1.04l-35.7 29.439a.828.828 0 0 1-.504.19h-.078zm.194-1.853 34.499-28.456L41.717 4.82 6.094 31.857 21.25 50.878z"/>
                <path d="M63.133 1 41.775 3.004a.77.77 0 0 0-.64.454.754.754 0 0 0 .097.775l14.962 18.775c.155.19.369.303.62.303.04 0 .097 0 .136-.019.291-.057.524-.246.601-.53l6.415-20.76a.746.746 0 0 0-.155-.718c-.155-.19-.426-.284-.678-.284zM43.325 4.384l9.206-.85 6.726 8.432-2.753 8.944L43.325 4.384z"/>
                <path d="M17.18 48.231a.743.743 0 0 1 .077-1.078l34.286-29.117a.788.788 0 0 1 1.105.075.743.743 0 0 1-.078 1.078L18.284 48.307a.793.793 0 0 1-1.105-.076zM9.815 39.004c-.272-.321-.194-.813.135-1.059L46.814 9.981a.783.783 0 0 1 1.085.132c.271.322.194.814-.136 1.06L10.9 39.136a.76.76 0 0 1-1.085-.132z" fill-rule="nonzero"/>
                <path d="M13.42 54.943c-2.985-.321-5.64-1.74-7.5-4.046l-3.528-4.349C.55 44.28-.283 41.424.085 38.55c.35-2.892 1.842-5.464 4.206-7.241l.233-.17c.349-.265.833-.208 1.085.132.271.321.194.813-.136 1.059l-.232.17c-2.016 1.531-3.295 3.744-3.605 6.22-.31 2.477.407 4.917 1.996 6.883l3.528 4.349c1.589 1.966 3.876 3.195 6.434 3.479 2.558.264 5.059-.454 7.055-2.042a.792.792 0 0 1 1.105.113.74.74 0 0 1-.117 1.059A11.259 11.259 0 0 1 14.641 55c-.407 0-.814-.019-1.221-.057z" fill-rule="nonzero"/>
            </g>
        </g>
        <path d="M157.853 220.98 53.614 207.946a.761.761 0 0 1-.673-.712l-3.806-47.174a.774.774 0 0 1 .711-.828c.423-.039.461-2.118.5-1.694l4.095 48.945 102.7 12.843-6.863-144.487-107.66-14.46 5.132 63.444a.774.774 0 0 1-.71.828.787.787 0 0 1-.828-.713l-5.21-64.407a.799.799 0 0 1 .231-.616.85.85 0 0 1 .635-.212l109.237 14.672a.798.798 0 0 1 .673.732l6.94 146.047a.713.713 0 0 1-.25.597.686.686 0 0 1-.519.23h-.096z" fill="#444" fill-rule="nonzero"/>
        <path d="M157.2 220.345a.76.76 0 0 1 .576-.885L259.4 194.64l-10.727-94.482a.749.749 0 0 1 .673-.847c.442-.039.807.25.846.673l10.804 95.157a.799.799 0 0 1-.577.847l-9.978 2.446.231 11.63a.79.79 0 0 1-.692.789L158.045 221c-.038-.02-.057-.02-.096-.02a.763.763 0 0 1-.75-.635zm12.515-2.214 79.42-8.76-.232-10.59-79.188 19.35z" fill="#444"/>
        <path d="M169.195 183.2a.742.742 0 0 1-.327-.558l-6.806-60.363a.774.774 0 0 1 .539-.828l13.63-4.352a.755.755 0 0 1 .962.5.757.757 0 0 1-.5.964l-13.016 4.159 6.633 58.842 13.285-3.659a.772.772 0 0 1 .942.54.774.774 0 0 1-.539.943l-14.15 3.909c-.076.038-.153.038-.21.038a.747.747 0 0 1-.443-.134zM240.369 163.117a.772.772 0 0 1 .596-.925l8.113-1.752-4.941-41.513a.777.777 0 0 1 .673-.866.777.777 0 0 1 .865.674l5.037 42.225c.038.405-.212.77-.596.847l-8.805 1.887c-.077.039-.135.039-.193.039a.761.761 0 0 1-.75-.616zM182.884 189.46a.785.785 0 0 1 .558-.943l57.887-14.806c.423-.116.826.134.942.558a.785.785 0 0 1-.558.943l-57.887 14.807c-.057 0-.115.02-.192.02a.78.78 0 0 1-.75-.578zM134.13 207.657a.798.798 0 0 1 .21-1.079l10.017-6.72-10.132-10.05a.768.768 0 0 1 0-1.098.765.765 0 0 1 1.096 0l10.805 10.706c.173.154.25.385.23.616a.73.73 0 0 1-.346.558l-10.804 7.24a.677.677 0 0 1-.442.173c-.25 0-.5-.115-.635-.346zM147.433 72.893l-14.746-1.983a.709.709 0 0 0-.615.192.736.736 0 0 0-.25.597l2.173 50.794c.019.308.211.578.5.693a.678.678 0 0 0 .269.058.692.692 0 0 0 .557-.25l8.478-9.05 4.268 6.662a.793.793 0 0 0 .885.327.754.754 0 0 0 .538-.77l-1.384-46.519a.783.783 0 0 0-.673-.75zM150.317 74.453a.775.775 0 0 1 .423-1.002l91.339-36.39a.695.695 0 0 1 .672.057.708.708 0 0 1 .366.578l2.845 25.011a.749.749 0 0 1-.673.848c-.423.038-.807-.25-.846-.674l-2.73-24.01-90.396 36.025c-.097.019-.193.038-.289.038a.774.774 0 0 1-.711-.481zM77.242 105.934 57.286 94.458a.782.782 0 0 1 .077-1.386l19.956-8.51c.384-.174.846.019 1.019.404.173.385-.02.847-.404 1.02L59.4 93.881l18.61 10.705c.365.212.5.693.288 1.06a.78.78 0 0 1-.673.384.874.874 0 0 1-.384-.096z" fill="#444" fill-rule="nonzero"/>
        <g fill="#444" fill-rule="nonzero">
            <path d="M150.276 69.041c0-.42.345-.765.767-.765 2.145 0 3.869-.574 4.711-1.569.498-.574.67-1.3.518-2.161-.345-2.047-4.693-2.966-6.187-3.119a.769.769 0 0 1-.69-.765v-9.928c0-.421.345-.766.767-.766.42 0 .766.345.766.766v9.24c1.82.286 6.34 1.3 6.838 4.304.21 1.3-.077 2.487-.862 3.405-1.111 1.358-3.257 2.123-5.861 2.123a.768.768 0 0 1-.767-.765zM158.685 50.79c0 2.794 4.348 2.794 4.348 0v-2.16c0-2.794-4.348-2.813-4.348-.02v2.18zM129.648 50.79c0 2.794 4.348 2.794 4.348 0v-2.16c0-2.794-4.348-2.813-4.348-.02v2.18zM126.852 39.791c-1.303.478-.326 2.41.977 1.932 1.494-.535 3.064-.822 4.635-1.052 1.379-.21.92-2.334-.46-2.123-1.762.267-3.486.63-5.152 1.243zM159.987 38.605c-1.36-.287-2.049 1.76-.69 2.047 1.495.306 3.008.287 4.521.497 1.398.192 1.532-1.99.153-2.162-1.321-.172-2.681-.114-3.984-.382z"/>
            <path d="M184.561 36.462c-.076-7.537-1.379-16.834-10.17-21.292a25.288 25.288 0 0 0-4.29-5.28C165.043 3.252 155.888 0 142.442 0c-13.944 0-23.597 3.042-29.267 9.393-9.979 1.53-17.525 9.182-19.058 19.532-13.484-4.075-26.91 2.066-36.334 11.937-4.96 5.185-9.653 13.22-8.236 20.087l63.264 8.475.02-.039c0-.057.019-.133.019-.19a.76.76 0 0 0 .325-.613c.02-3.788-.996-6.791-1.053-6.925-.115-.325-.383-.536-.766-.517-3.831.153-6.857-.707-8.715-2.506-1.705-1.645-1.973-3.539-1.973-4.514 0-1.11.306-2.736 1.762-4.113 2.356-2.239 7.03-3.233 13.542-2.908.306.019.862-.268 1.417-.46 6.946-3.035 11.862-12.931 14.748-29.69 4.54 4.19 29.765 12.588 41.2 14.176.038 1.645.057 3.252.095 4.82.21 10.618.268 21.216.02 29.04-.02.421 1.034-.344 1.014-.21-.038.536 2.356-.937 5.306-2.104l23.463-9.317c-.153-2.754-.843-5.49-2.222-8.073-3.275-6.045-9.71-9.584-16.453-8.819z"/>
            <path d="M126.928 57.008c-3.658-1.817-5.765-5.548-5.803-10.215 0-.421.345-.766.766-.766.421 0 .766.345.766.766.02 4.074 1.82 7.288 4.942 8.838 2.662 1.32 5.822 1.129 8.006-.517 2.51-1.874 3.448-5.26 2.7-9.527a.78.78 0 0 1 .614-.899c.42-.057.823.21.9.612 1.168 6.562-1.552 9.719-3.276 11.02-1.493 1.147-3.351 1.721-5.267 1.721a9.746 9.746 0 0 1-4.348-1.033zM158.283 55.88c-3.41-1.722-5.363-5.53-5.363-10.446 0-.42.344-.765.766-.765.421 0 .766.344.766.765 0 4.305 1.647 7.614 4.52 9.068 2.26 1.148 4.942.957 6.972-.536 2.47-1.798 3.524-5.165 2.873-9.201a.75.75 0 0 1 .632-.88.775.775 0 0 1 .881.631c.747 4.63-.536 8.532-3.486 10.694a7.909 7.909 0 0 1-4.788 1.588 8.315 8.315 0 0 1-3.773-.919z"/>
            <path d="M138.689 50.064a.768.768 0 0 1 .306-1.052c.326-.172 8.045-4.324 15.055-.995a.747.747 0 0 1 .364 1.014.77.77 0 0 1-1.035.363c-6.282-2.984-13.58.919-13.637.957a.63.63 0 0 1-.383.115.774.774 0 0 1-.67-.402z"/>
        </g>
        <g fill="#444" fill-rule="nonzero">
            <path d="M267.998 61.58c-25.264-3.998-43.613 6.39-54.51 30.896-5.785 13.008-5.23 15.993-3.908 17.217 1.302 1.224 3.467.306 4.98-.497 3.37-1.78 4.443-4.726 5.478-7.576.555-1.55 1.149-3.156 2.106-4.591 0-.058 0-.134.02-.21.21-.632.421-1.282.593-1.933 0-.019.02-.057.02-.076a.792.792 0 0 0-.996.134c-1.686 1.893-2.471 4.055-3.218 6.14-1.015 2.813-1.896 5.223-4.75 6.734-2.299 1.225-3.007.919-3.199.727-.555-.516-1.245-3.06 4.271-15.476 10.573-23.78 28.367-33.88 52.864-29.996 18.138 2.87 36.123 12.53 44.877 63.32 4.194 24.41 1.206 43.197-8.888 55.88-13.541 17.007-37.406 20.24-54.204 21.197a.769.769 0 0 0-.728.803c.02.402.364.727.766.727h.039c17.085-.976 41.39-4.285 55.315-21.77 10.4-13.028 13.484-32.235 9.213-57.085-8.907-51.747-27.447-61.619-46.141-64.565z"/>
            <path d="M228.044 106.957c-4.214-.956-6.646-2.563-7.45-4.935-1.284-3.769 1.474-9.278 9.538-19.035a.765.765 0 0 1 1.091-.095c.326.267.364.746.096 1.09-7.566 9.144-10.343 14.405-9.27 17.562.613 1.817 2.7 3.099 6.34 3.94.421.096.67.498.574.919a.799.799 0 0 1-.747.574c-.057 0-.115 0-.172-.02z"/>
            <path d="M235.111 109.96c-4.462-.382-7.22-1.912-8.178-4.571-2.241-6.084 5.9-15.19 9.5-18.805a.764.764 0 0 1 1.092 0 .762.762 0 0 1 0 1.09c-6.972 7.02-10.477 13.602-9.156 17.198.747 2.028 3.065 3.233 6.877 3.558a.783.783 0 0 1 .708.823c-.057.402-.383.708-.785.708h-.058z"/>
            <path d="M256.544 165.496a.769.769 0 0 1-.728-.803.781.781 0 0 1 .805-.727c.574.038 13.924.459 15.15-18.595 1.264-19.475-2.528-35.87-10.65-46.142a6.136 6.136 0 0 0-4.52-2.334 6.324 6.324 0 0 0-4.826 1.875c-3.18 3.233-5.44 5.241-6.742 5.95-.766.42-1.207.84-1.264 1.185-.077.517.613 1.282 1.245 1.97.555.594 1.11 1.225 1.436 1.914.517 1.11.02 2.468-1.206 3.405-1.763 1.32-5.114 1.76-8.773-1.358-5.937-5.07-2.107-11.172 4.233-21.254a.777.777 0 0 1 1.054-.249c.364.23.46.708.249 1.052-6.742 10.713-9.27 15.209-4.54 19.265 2.97 2.544 5.536 2.295 6.838 1.3.632-.478.939-1.11.747-1.53-.21-.478-.709-1.014-1.168-1.511-.862-.938-1.839-1.99-1.628-3.252.134-.861.804-1.607 2.03-2.296.804-.44 2.566-1.798 6.397-5.682a7.84 7.84 0 0 1 5.995-2.334 7.713 7.713 0 0 1 5.65 2.927c8.37 10.58 12.259 27.357 10.975 47.195-1.244 19.417-14.882 20.03-16.586 20.03h-.173zM207.396 87.693c-1.034-.708-1.168-1.588-1.11-2.219.536-5.7 22.007-15.228 24.44-16.299.382-.172 2.01-1.033 2.183-.631.172.382-1.169 1.875-1.57 2.047-13.14 5.739-23.272 12.205-23.521 15.036-.02.23.019.498.46.804 2.432 1.664 5.018.287 7.105-.823.652-.344 1.226-.65 1.743-.842a.77.77 0 0 1 .977.479.77.77 0 0 1-.479.975c-.402.134-.92.421-1.532.746-1.436.727-3.352 1.76-5.401 1.76a5.744 5.744 0 0 1-3.295-1.033z"/>
            <path d="M269.147 113.08a.774.774 0 0 1-.287-1.053.8.8 0 0 1 1.053-.306c8.255 4.61 21.452 3.788 29.4-1.837 3.276-2.314 6.973-6.37 5.92-12.55a.75.75 0 0 1 .631-.88c.422-.056.824.211.881.632.92 5.433-1.398 10.426-6.55 14.061-4.808 3.405-11.224 5.146-17.487 5.146-4.884 0-9.673-1.052-13.56-3.214z"/>
        </g>
        <g fill="#444" fill-rule="nonzero">
            <path d="M51.77 198.4c-12.047-7.174-19.613-17.064-22.505-29.442-3.85-16.394 1.724-32.942 8.197-42.966.996-1.55 1.82-3.424 2.624-5.223 1.475-3.347 2.873-6.504 5.306-7.843a.77.77 0 0 1 1.053.306.758.758 0 0 1-.306 1.033c-1.992 1.09-3.275 4.017-4.635 7.116-.824 1.875-1.667 3.807-2.74 5.453-6.3 9.756-11.721 25.864-7.986 41.78 2.796 11.957 10.132 21.522 21.797 28.466a.772.772 0 1 1-.805 1.32z"/>
            <path d="M49.261 166.204c-2.375-4.534-1.38-7.959.345-9.642 1.724-1.683 4.31-1.97 6.57-.727 4.002 2.18 6.052 1.875 6.473 1.148.575-1.033-.92-4.438-7.144-7.94-2.662-1.51-5.114-1.817-7.297-.937-3.218 1.301-5.861 5.185-7.643 11.23-.115.402-.555.631-.957.516a.777.777 0 0 1-.518-.956c1.916-6.524 4.865-10.751 8.543-12.224 2.643-1.072 5.535-.727 8.619 1.014 6.646 3.768 8.926 7.9 7.738 10.024-.843 1.53-3.543 2.2-8.542-.536-1.667-.918-3.544-.727-4.77.478-1.321 1.301-2.03 4.037-.057 7.844.191.382.057.842-.326 1.033a.781.781 0 0 1-.345.096c-.287 0-.536-.153-.689-.421z"/>
            <path d="M36.447 153.29a.786.786 0 0 1-.517-.956c1.724-5.586 4.788-9.603 8.868-11.63 3.582-1.78 7.815-1.914 11.933-.403 6.416 2.353 9.73 4.572 10.094 6.81.115.728-.02 1.799-1.322 2.87-2.28 1.856-5.631 1.78-5.784 1.76-.422-.019-.766-.363-.747-.784.019-.421.364-.708.785-.746.02 0 2.95.057 4.77-1.416.9-.727.804-1.243.765-1.415-.114-.747-1.264-2.755-9.117-5.625-3.715-1.358-7.527-1.243-10.726.345-3.696 1.836-6.493 5.528-8.082 10.713-.058.306-.364.516-.69.516a.962.962 0 0 1-.23-.038z"/>
            <path d="M33.996 147.57a.747.747 0 0 1-.364-1.013C41.12 130.64 46.982 131.54 52.67 132.4c5.382.823 13.37 3.406 13.58 7.232.153 2.984-2.509 4.323-3.926 4.61-.422.077-.824-.191-.9-.593a.74.74 0 0 1 .593-.9c.115-.018 2.835-.63 2.7-3.022-.114-2.372-6.416-4.897-12.22-5.777-5.4-.823-10.457-1.588-17.467 13.276a.814.814 0 0 1-.709.421.63.63 0 0 1-.325-.076z"/>
            <path d="M32.636 137.183a.747.747 0 0 1-.364-1.014c6.742-14.328 13.35-13.047 18.655-12.014.613.115 1.207.23 1.782.326 5.324.803 13.33 3.405 13.522 7.23.153 2.985-2.51 4.324-3.926 4.611-.422.077-.824-.172-.9-.593a.74.74 0 0 1 .593-.899c.115-.02 2.835-.631 2.7-3.023-.114-2.372-6.416-4.897-12.22-5.777-.593-.096-1.206-.21-1.838-.325-5.037-.976-10.726-2.104-16.97 11.153a.855.855 0 0 1-.709.402.63.63 0 0 1-.325-.077z"/>
        </g>
        <path stroke="#444" stroke-width="1.5" d="m106.48 132.335 32.11 1.528v6.982l-11.888-1.316.026 41.806h-10.817l3.234-40.49H101.32zM182.863 173.682l-6.552-45.822c9.843-4.783 16.793-6.321 20.853-4.616 6.089 2.558 11.546 12.108 5.065 22.819 5.423 5.34 10.685 10.23 15.787 14.67l-7.893 4.763-12.96-17.298-10.574 4.046L191 171.01l-8.136 2.672zM212.578 119.813l16.59-4.76 1.984 4.76-5.603 1.707 8.26 30.724 7.723-2.567 2.497 5.994-21.056 7.258-2.327-6.585 7.657-3.015-7.657-30.085-8.068 2.742zM95.551 123.566l-19.419-1.36-1.073 5.716 6.582.57-1.91 35.835-9.122-1.021-1.349 7.198 24.934 3.07 1.022-7.811-9.155-1.53 1.393-34.988 9.545 1.133z"/>
        <path d="M182.863 134.55c5.1-2.755 8.983-3.603 11.65-2.545 3.618 1.772 4.57 7.074 2.746 9.596-1.216 1.681-5.516 3.397-12.9 5.146l-1.496-12.197z" stroke="#444" stroke-width="1.5"/>
    </g>
</svg>
